<svg width="24" height="24" viewBox="0 0 24 24" fill="none" xmlns="http://www.w3.org/2000/svg">
<path d="M19.75 11.7188V15.375C19.75 15.612 19.6738 15.8066 19.5215 15.959C19.3691 16.1113 19.1745 16.1875 18.9375 16.1875H18.125C17.888 16.1875 17.6934 16.1113 17.541 15.959C17.3887 15.8066 17.3125 15.612 17.3125 15.375V11.7188L17.2617 11.5156L16.0938 9.43359V17C16.0768 17.457 15.916 17.8379 15.6113 18.1426C15.3066 18.4473 14.9258 18.6081 14.4688 18.625H8.78125C8.32422 18.6081 7.94336 18.4473 7.63867 18.1426C7.33398 17.8379 7.17318 17.457 7.15625 17V9.43359L5.98828 11.541L5.9375 11.7188V15.375C5.9375 15.612 5.86133 15.8066 5.70898 15.959C5.55664 16.1113 5.36198 16.1875 5.125 16.1875H4.3125C4.07552 16.1875 3.88086 16.1113 3.72852 15.959C3.57617 15.8066 3.5 15.612 3.5 15.375V11.7188C3.5 11.2279 3.61849 10.7708 3.85547 10.3477L5.6582 7.12305C6.08138 6.42904 6.69922 6.0651 7.51172 6.03125H9.1875C9.20443 6.72526 9.44141 7.30078 9.89844 7.75781C10.3555 8.21484 10.931 8.45182 11.625 8.46875C12.319 8.45182 12.8945 8.21484 13.3516 7.75781C13.8086 7.30078 14.0456 6.72526 14.0625 6.03125H15.7383C16.5508 6.0651 17.1686 6.42904 17.5918 7.12305L19.3945 10.3477C19.6315 10.7708 19.75 11.2279 19.75 11.7188Z" fill="#1D2A3D"/>
</svg>
