<svg width="24" height="24" viewBox="0 0 24 24" fill="none" xmlns="http://www.w3.org/2000/svg">
<path d="M5.5 17.8125L6.3125 18.625H7.9375L8.75 17.8125L9.5625 18.625H11.1875L12 17.8125L12.8125 18.625H14.4375L15.25 17.8125L16.0625 18.625H17.6875L18.5 17.8125V17H5.5V17.8125ZM14.4375 7.65625V6.03125C14.4206 5.77734 14.2852 5.64193 14.0312 5.625H5.90625C5.65234 5.64193 5.51693 5.77734 5.5 6.03125V8.0625H14.0312C14.2852 8.04557 14.4206 7.91016 14.4375 7.65625ZM16.6465 12.8867L13.625 12.125H12.4062C12.1523 12.1081 12.0169 11.9727 12 11.7188C12.0339 11.4648 12.1608 11.3294 12.3809 11.3125H13.625V10.5H12.4062C12.1523 10.4831 12.0169 10.3477 12 10.0938C12.0339 9.83984 12.1608 9.70443 12.3809 9.6875H13.625V8.875H5.5V16.1875H18.5V15.248C18.4831 14.6725 18.3053 14.1732 17.9668 13.75C17.6283 13.3268 17.1882 13.0391 16.6465 12.8867Z" fill="#1D2A3D"/>
</svg>
