<svg width="24" height="24" viewBox="0 0 24 24" fill="none" xmlns="http://www.w3.org/2000/svg">
<path d="M15.0977 16.125H7.25C6.99479 16.125 6.79427 16.207 6.64844 16.3711C6.48438 16.5352 6.40234 16.7357 6.40234 16.9727V17.8203C6.38411 18.0938 6.45703 18.3125 6.62109 18.4766C6.78516 18.6589 6.98568 18.75 7.22266 18.75H15.0977C15.3529 18.75 15.5625 18.668 15.7266 18.5039C15.8906 18.3398 15.9727 18.1393 15.9727 17.9023V17.0547C15.9362 16.4714 15.6445 16.1615 15.0977 16.125ZM17.1211 10.4102C16.7383 10.1003 16.3099 9.96354 15.8359 10C15.3802 10.0547 14.9883 10.2643 14.6602 10.6289L14.0859 11.3125L13.2656 7.8125C12.9922 6.73698 12.4089 5.91667 11.5156 5.35156C10.6406 4.80469 9.65625 4.64062 8.5625 4.85938C7.46875 5.13281 6.64844 5.71615 6.10156 6.60938C5.53646 7.48438 5.3724 8.46875 5.60938 9.5625L7.25 15.25H15.125L17.3398 12.8984C17.6497 12.4974 17.7865 12.0599 17.75 11.5859C17.6953 11.1302 17.4857 10.7383 17.1211 10.4102Z" fill="#1D2A3D"/>
</svg>
