<svg width="24" height="24" viewBox="0 0 24 24" fill="none" xmlns="http://www.w3.org/2000/svg">
<path d="M18.125 12.625C18.125 10.4375 16.7578 8.57812 14.8438 7.78516L13.75 10V6.9375C13.75 6.71875 13.5312 6.5 13.3125 6.5H10.6875C10.4414 6.5 10.25 6.71875 10.25 6.9375V10L9.12891 7.78516C7.21484 8.57812 5.875 10.4375 5.875 12.625V14.375H18.125V12.625ZM18.5625 15.25H5.4375C5.19141 15.25 5 15.4688 5 15.6875V16.5625C5 16.8086 5.19141 17 5.4375 17H18.5625C18.7812 17 19 16.8086 19 16.5625V15.6875C19 15.4688 18.7812 15.25 18.5625 15.25Z" fill="#1D2A3D"/>
</svg>
