<svg width="24" height="24" viewBox="0 0 24 24" fill="none" xmlns="http://www.w3.org/2000/svg">
<path d="M9.75781 8.25L10.9062 5.29688C11.0703 4.95052 11.3438 4.76823 11.7266 4.75H12.2734C12.6745 4.76823 12.9388 4.95052 13.0664 5.29688L14.2422 8.25H9.75781ZM14.9258 10L15.9648 12.625H8.03516L9.07422 10H14.9258ZM6.3125 17L7.35156 14.375H16.6484L17.6875 17H18.125C18.3802 17 18.5898 17.082 18.7539 17.2461C18.918 17.4102 19 17.6198 19 17.875C19 18.1302 18.918 18.3398 18.7539 18.5039C18.5898 18.668 18.3802 18.75 18.125 18.75H5.875C5.61979 18.75 5.41016 18.668 5.24609 18.5039C5.08203 18.3398 5 18.1302 5 17.875C5 17.6198 5.08203 17.4102 5.24609 17.2461C5.41016 17.082 5.61979 17 5.875 17H6.3125Z" fill="#1D2A3D"/>
</svg>
