<svg width="24" height="24" viewBox="0 0 24 24" fill="none" xmlns="http://www.w3.org/2000/svg">
<path d="M17.6875 7.375H15.5V6.0625C15.4818 5.69792 15.3542 5.38802 15.1172 5.13281C14.862 4.89583 14.5521 4.76823 14.1875 4.75H9.8125C9.44792 4.76823 9.13802 4.89583 8.88281 5.13281C8.64583 5.38802 8.51823 5.69792 8.5 6.0625V7.375H6.3125C5.94792 7.39323 5.63802 7.52083 5.38281 7.75781C5.14583 8.01302 5.01823 8.32292 5 8.6875V16.5625C5.01823 16.9271 5.14583 17.237 5.38281 17.4922C5.63802 17.7292 5.94792 17.8568 6.3125 17.875H17.6875C18.0521 17.8568 18.362 17.7292 18.6172 17.4922C18.8542 17.237 18.9818 16.9271 19 16.5625V8.6875C18.9818 8.32292 18.8542 8.01302 18.6172 7.75781C18.362 7.52083 18.0521 7.39323 17.6875 7.375ZM9.8125 6.0625H14.1875V7.375H9.8125V6.0625ZM15.0625 13.3359C15.0443 13.6094 14.8984 13.7552 14.625 13.7734H13.1484V15.25C13.112 15.5234 12.9753 15.6693 12.7383 15.6875H11.3164C11.043 15.6693 10.8971 15.5234 10.8789 15.25V13.8008H9.375C9.10156 13.7826 8.95573 13.6367 8.9375 13.3633V11.9414C8.95573 11.668 9.10156 11.5221 9.375 11.5039H10.8242V10C10.8424 9.72656 10.9883 9.58073 11.2617 9.5625H12.6836C12.9388 9.58073 13.0755 9.72656 13.0938 10V11.4766H14.625C14.8984 11.4948 15.0443 11.6406 15.0625 11.9141V13.3359Z" fill="#1D2A3D"/>
</svg>
