<svg width="5" height="8" viewBox="0 0 5 8" fill="none" xmlns="http://www.w3.org/2000/svg">
<path d="M1 7.5C0.864583 7.5 0.744792 7.45312 0.640625 7.35938C0.546875 7.25521 0.5 7.13542 0.5 7C0.5 6.86458 0.546875 6.74479 0.640625 6.64062L3.29688 4L0.640625 1.35938C0.546875 1.25521 0.5 1.13542 0.5 1C0.5 0.864583 0.546875 0.744792 0.640625 0.640625C0.744792 0.546875 0.864583 0.5 1 0.5C1.13542 0.5 1.25521 0.546875 1.35938 0.640625L4.35938 3.64062C4.45312 3.74479 4.5 3.86458 4.5 4C4.5 4.13542 4.45312 4.25521 4.35938 4.35938L1.35938 7.35938C1.25521 7.45312 1.13542 7.5 1 7.5Z" fill="#1D2A3D"/>
</svg>
