<svg width="57" height="57" viewBox="0 0 57 57" fill="none" xmlns="http://www.w3.org/2000/svg">
<path d="M8.85742 8.85715L12.5555 12.1444C21.6488 20.2273 35.3517 20.2273 44.445 12.1444L48.1431 8.85715L44.8559 12.5553C36.773 21.6485 36.773 35.3515 44.8559 44.4447L48.1431 48.1429L44.445 44.8556C35.3517 36.7727 21.6488 36.7727 12.5555 44.8556L8.85742 48.1429L12.1446 44.4447C20.2275 35.3515 20.2275 21.6485 12.1446 12.5553L8.85742 8.85715Z" fill="#B49B7E"/>
<path d="M8.85742 8.85715L9.52179 8.10974C9.12605 7.75797 8.52471 7.77564 8.15032 8.15004C7.77592 8.52444 7.75825 9.12578 8.11001 9.52151L8.85742 8.85715ZM48.1431 8.85715L48.8905 9.52151C49.2423 9.12578 49.2246 8.52444 48.8502 8.15004C48.4758 7.77564 47.8745 7.75797 47.4788 8.10974L48.1431 8.85715ZM48.1431 48.1429L47.4788 48.8903C47.8745 49.242 48.4758 49.2244 48.8502 48.85C49.2246 48.4756 49.2423 47.8742 48.8905 47.4785L48.1431 48.1429ZM8.85742 48.1429L8.11001 47.4785C7.75825 47.8742 7.77592 48.4756 8.15032 48.85C8.52471 49.2244 9.12605 49.242 9.52179 48.8903L8.85742 48.1429ZM44.445 44.8556L45.1094 44.1082L44.445 44.8556ZM44.8559 12.5553L44.1085 11.8909L44.8559 12.5553ZM47.3957 8.19278L44.1085 11.8909L45.6033 13.2196L48.8905 9.52151L47.3957 8.19278ZM44.1085 45.1091L47.3957 48.8072L48.8905 47.4785L45.6033 43.7804L44.1085 45.1091ZM8.19306 9.60456L11.8912 12.8918L13.2199 11.397L9.52179 8.10974L8.19306 9.60456ZM45.1094 12.8918L48.8075 9.60456L47.4788 8.10974L43.7806 11.397L45.1094 12.8918ZM9.60483 48.8072L12.892 45.1091L11.3972 43.7804L8.11001 47.4785L9.60483 48.8072ZM12.8921 11.8909L9.60483 8.19278L8.11001 9.52151L11.3972 13.2196L12.8921 11.8909ZM48.8075 47.3955L45.1094 44.1082L43.7807 45.6031L47.4788 48.8903L48.8075 47.3955ZM11.8912 44.1082L8.19306 47.3955L9.52179 48.8903L13.2199 45.6031L11.8912 44.1082ZM45.1094 44.1082C35.6372 35.6885 21.3633 35.6885 11.8912 44.1082L13.2199 45.6031C21.9343 37.8569 35.0663 37.8569 43.7807 45.6031L45.1094 44.1082ZM12.892 45.1091C21.3117 35.637 21.3117 21.3631 12.8921 11.8909L11.3972 13.2196C19.1433 21.934 19.1433 35.066 11.3972 43.7804L12.892 45.1091ZM11.8912 12.8918C21.3633 21.3115 35.6372 21.3115 45.1094 12.8918L43.7806 11.397C35.0663 19.1431 21.9343 19.1431 13.2199 11.397L11.8912 12.8918ZM44.1085 11.8909C35.6888 21.3631 35.6888 35.637 44.1085 45.1091L45.6033 43.7804C37.8572 35.066 37.8572 21.934 45.6033 13.2196L44.1085 11.8909Z" fill="#B49B7E"/>
<circle cx="10.1669" cy="10.1667" r="3.92857" fill="#B49B7E"/>
<circle cx="10.1669" cy="46.8333" r="3.92857" fill="#B49B7E"/>
<circle cx="46.8329" cy="10.1667" r="3.92857" fill="#B49B7E"/>
<circle cx="46.8329" cy="46.8333" r="3.92857" fill="#B49B7E"/>
<path d="M20.0956 44.6474C19.9768 44.108 19.4433 43.767 18.9039 43.8858C18.3646 44.0045 18.0236 44.538 18.1423 45.0774L20.0956 44.6474ZM14.5694 54.8734L15.0497 55.7505L15.0497 55.7505L14.5694 54.8734ZM3.68419 53.3145L4.39137 52.6074L4.39137 52.6074L3.68419 53.3145ZM1.09232 48.131L0.102395 48.2726L1.09232 48.131ZM2.12746 42.4289L3.00446 42.9094L2.12746 42.4289ZM6.37585 38.4872L6.78939 39.3977L6.37585 38.4872ZM11.9242 38.858C12.4636 38.9769 12.9971 38.636 13.116 38.0967C13.2349 37.5573 12.894 37.0237 12.3546 36.9049L11.9242 38.858ZM18.1423 45.0774C18.5221 46.8024 18.3324 48.6041 17.6016 50.2121L19.4224 51.0396C20.3321 49.0377 20.5683 46.7948 20.0956 44.6474L18.1423 45.0774ZM17.6016 50.2121C16.8708 51.8202 15.6384 53.148 14.0891 53.9963L15.0497 55.7505C16.9784 54.6944 18.5127 53.0414 19.4224 51.0396L17.6016 50.2121ZM14.0891 53.9963C12.5399 54.8447 10.7573 55.1679 9.00887 54.9175L8.72533 56.8973C10.902 57.209 13.1211 56.8067 15.0497 55.7505L14.0891 53.9963ZM9.00887 54.9175C7.26039 54.6671 5.64022 53.8565 4.39137 52.6074L2.97701 54.0215C4.5317 55.5765 6.54865 56.5856 8.72533 56.8973L9.00887 54.9175ZM4.39137 52.6074C3.14252 51.3583 2.33231 49.738 2.08225 47.9895L0.102395 48.2726C0.413689 50.4494 1.42232 52.4665 2.97701 54.0215L4.39137 52.6074ZM2.08225 47.9895C1.8322 46.2409 2.15578 44.4585 3.00446 42.9094L1.25045 41.9484C0.193925 43.8769 -0.2089 46.0959 0.102395 48.2726L2.08225 47.9895ZM3.00446 42.9094C3.85315 41.3603 5.18119 40.1282 6.78939 39.3977L5.96231 37.5767C3.96025 38.4861 2.30698 40.02 1.25045 41.9484L3.00446 42.9094ZM6.78939 39.3977C8.3976 38.6673 10.1993 38.4779 11.9242 38.858L12.3546 36.9049C10.2073 36.4317 7.96436 36.6674 5.96231 37.5767L6.78939 39.3977Z" fill="#B49B7E"/>
<path d="M36.9044 44.6474C37.0232 44.108 37.5567 43.767 38.0961 43.8858C38.6354 44.0045 38.9764 44.538 38.8577 45.0774L36.9044 44.6474ZM42.4306 54.8734L41.9503 55.7505L41.9503 55.7505L42.4306 54.8734ZM53.3158 53.3145L52.6086 52.6074L52.6086 52.6074L53.3158 53.3145ZM55.9077 48.131L56.8976 48.2726L55.9077 48.131ZM54.8725 42.4289L53.9955 42.9094L54.8725 42.4289ZM50.6241 38.4872L50.2106 39.3977L50.6241 38.4872ZM45.0758 38.858C44.5364 38.9769 44.0029 38.636 43.884 38.0967C43.7651 37.5573 44.106 37.0237 44.6454 36.9049L45.0758 38.858ZM38.8577 45.0774C38.4779 46.8024 38.6676 48.6041 39.3984 50.2121L37.5776 51.0396C36.6679 49.0377 36.4317 46.7948 36.9044 44.6474L38.8577 45.0774ZM39.3984 50.2121C40.1292 51.8202 41.3616 53.148 42.9109 53.9963L41.9503 55.7505C40.0216 54.6944 38.4873 53.0414 37.5776 51.0396L39.3984 50.2121ZM42.9109 53.9963C44.4601 54.8447 46.2427 55.1679 47.9911 54.9175L48.2747 56.8973C46.098 57.209 43.8789 56.8067 41.9503 55.7505L42.9109 53.9963ZM47.9911 54.9175C49.7396 54.6671 51.3598 53.8565 52.6086 52.6074L54.023 54.0215C52.4683 55.5765 50.4514 56.5856 48.2747 56.8973L47.9911 54.9175ZM52.6086 52.6074C53.8575 51.3583 54.6677 49.738 54.9177 47.9895L56.8976 48.2726C56.5863 50.4494 55.5777 52.4665 54.023 54.0215L52.6086 52.6074ZM54.9177 47.9895C55.1678 46.2409 54.8442 44.4585 53.9955 42.9094L55.7495 41.9484C56.8061 43.8769 57.2089 46.0959 56.8976 48.2726L54.9177 47.9895ZM53.9955 42.9094C53.1469 41.3603 51.8188 40.1282 50.2106 39.3977L51.0377 37.5767C53.0397 38.4861 54.693 40.02 55.7495 41.9484L53.9955 42.9094ZM50.2106 39.3977C48.6024 38.6673 46.8007 38.4779 45.0758 38.858L44.6454 36.9049C46.7927 36.4317 49.0356 36.6674 51.0377 37.5767L50.2106 39.3977Z" fill="#B49B7E"/>
<path d="M20.0956 12.3526C19.9768 12.892 19.4433 13.233 18.9039 13.1142C18.3646 12.9955 18.0236 12.462 18.1423 11.9226L20.0956 12.3526ZM14.5694 2.12656L15.0497 1.24946L15.0497 1.24946L14.5694 2.12656ZM3.68419 3.68553L4.39137 4.39256L4.39137 4.39256L3.68419 3.68553ZM1.09232 8.86896L0.102395 8.72739L1.09232 8.86896ZM2.12746 14.5711L3.00446 14.0906L2.12746 14.5711ZM6.37585 18.5128L6.78939 17.6023L6.37585 18.5128ZM11.9242 18.142C12.4636 18.0231 12.9971 18.364 13.116 18.9033C13.2349 19.4427 12.894 19.9763 12.3546 20.0951L11.9242 18.142ZM18.1423 11.9226C18.5221 10.1976 18.3324 8.39594 17.6016 6.78788L19.4224 5.96042C20.3321 7.96229 20.5683 10.2052 20.0956 12.3526L18.1423 11.9226ZM17.6016 6.78788C16.8708 5.17982 15.6384 3.85204 14.0891 3.00367L15.0497 1.24946C16.9784 2.30559 18.5127 3.95855 19.4224 5.96042L17.6016 6.78788ZM14.0891 3.00367C12.5399 2.1553 10.7573 1.83208 9.00887 2.08249L8.72533 0.102697C10.902 -0.209044 13.1211 0.193331 15.0497 1.24946L14.0891 3.00367ZM9.00887 2.08249C7.26039 2.33291 5.64022 3.14345 4.39137 4.39256L2.97701 2.97849C4.5317 1.42348 6.54865 0.414436 8.72533 0.102697L9.00887 2.08249ZM4.39137 4.39256C3.14252 5.64167 2.33231 7.262 2.08225 9.01053L0.102395 8.72739C0.413689 6.55065 1.42232 4.5335 2.97701 2.97849L4.39137 4.39256ZM2.08225 9.01053C1.8322 10.7591 2.15578 12.5415 3.00446 14.0906L1.25045 15.0516C0.193925 13.1231 -0.2089 10.9041 0.102395 8.72739L2.08225 9.01053ZM3.00446 14.0906C3.85315 15.6397 5.18119 16.8718 6.78939 17.6023L5.96231 19.4233C3.96025 18.5139 2.30698 16.98 1.25045 15.0516L3.00446 14.0906ZM6.78939 17.6023C8.3976 18.3327 10.1993 18.5221 11.9242 18.142L12.3546 20.0951C10.2073 20.5683 7.96436 20.3326 5.96231 19.4233L6.78939 17.6023Z" fill="#B49B7E"/>
<path d="M36.9044 12.3526C37.0232 12.892 37.5567 13.233 38.0961 13.1142C38.6354 12.9955 38.9764 12.462 38.8577 11.9226L36.9044 12.3526ZM42.4306 2.12656L41.9503 1.24946L41.9503 1.24946L42.4306 2.12656ZM53.3158 3.68553L52.6086 4.39256L52.6086 4.39256L53.3158 3.68553ZM55.9077 8.86896L56.8976 8.72739L55.9077 8.86896ZM54.8725 14.5711L53.9955 14.0906L54.8725 14.5711ZM50.6241 18.5128L50.2106 17.6023L50.6241 18.5128ZM45.0758 18.142C44.5364 18.0231 44.0029 18.364 43.884 18.9033C43.7651 19.4427 44.106 19.9763 44.6454 20.0951L45.0758 18.142ZM38.8577 11.9226C38.4779 10.1976 38.6676 8.39594 39.3984 6.78788L37.5776 5.96042C36.6679 7.96229 36.4317 10.2052 36.9044 12.3526L38.8577 11.9226ZM39.3984 6.78788C40.1292 5.17982 41.3616 3.85204 42.9109 3.00367L41.9503 1.24946C40.0216 2.30559 38.4873 3.95855 37.5776 5.96042L39.3984 6.78788ZM42.9109 3.00367C44.4601 2.1553 46.2427 1.83208 47.9911 2.08249L48.2747 0.102697C46.098 -0.209044 43.8789 0.193331 41.9503 1.24946L42.9109 3.00367ZM47.9911 2.08249C49.7396 2.33291 51.3598 3.14345 52.6086 4.39256L54.023 2.97849C52.4683 1.42348 50.4514 0.414436 48.2747 0.102697L47.9911 2.08249ZM52.6086 4.39256C53.8575 5.64167 54.6677 7.262 54.9177 9.01053L56.8976 8.72739C56.5863 6.55065 55.5777 4.5335 54.023 2.97849L52.6086 4.39256ZM54.9177 9.01053C55.1678 10.7591 54.8442 12.5415 53.9955 14.0906L55.7495 15.0516C56.8061 13.1231 57.2089 10.9041 56.8976 8.72739L54.9177 9.01053ZM53.9955 14.0906C53.1469 15.6397 51.8188 16.8718 50.2106 17.6023L51.0377 19.4233C53.0397 18.5139 54.693 16.98 55.7495 15.0516L53.9955 14.0906ZM50.2106 17.6023C48.6024 18.3327 46.8007 18.5221 45.0758 18.142L44.6454 20.0951C46.7927 20.5683 49.0356 20.3326 51.0377 19.4233L50.2106 17.6023Z" fill="#B49B7E"/>
<path d="M34.2097 28.3705C34.6002 28.761 35.2334 28.761 35.6239 28.3705C36.0144 27.98 36.0144 27.3468 35.6239 26.9563L34.2097 28.3705ZM22.1191 26.9563C21.7285 27.3468 21.7285 27.98 22.1191 28.3705C22.5096 28.761 23.1428 28.761 23.5333 28.3705L22.1191 26.9563ZM35.6239 26.9563C34.7371 26.0696 33.6844 25.3662 32.5259 24.8863L31.7605 26.734C32.6764 27.1134 33.5087 27.6695 34.2097 28.3705L35.6239 26.9563ZM32.5259 24.8863C31.3673 24.4064 30.1255 24.1594 28.8715 24.1594L28.8715 26.1594C29.8629 26.1594 30.8446 26.3546 31.7605 26.734L32.5259 24.8863ZM28.8715 24.1594C27.6174 24.1594 26.3757 24.4064 25.2171 24.8863L25.9825 26.734C26.8984 26.3546 27.8801 26.1594 28.8715 26.1594L28.8715 24.1594ZM25.2171 24.8863C24.0585 25.3662 23.0058 26.0696 22.1191 26.9563L23.5333 28.3705C24.2343 27.6695 25.0665 27.1134 25.9825 26.734L25.2171 24.8863Z" fill="white"/>
<path d="M24.4735 29.3628C24.097 29.7668 24.1193 30.3996 24.5233 30.7762C24.9273 31.1527 25.5601 31.1304 25.9366 30.7264L24.4735 29.3628ZM31.8015 30.7264C32.1781 31.1304 32.8109 31.1527 33.2149 30.7762C33.6189 30.3996 33.6412 29.7668 33.2646 29.3628L31.8015 30.7264ZM25.9366 30.7264C26.7272 29.8782 27.7837 29.4162 28.8691 29.4162L28.8691 27.4162C27.206 27.4162 25.6265 28.1257 24.4735 29.3628L25.9366 30.7264ZM28.8691 29.4162C29.9545 29.4162 31.011 29.8782 31.8015 30.7264L33.2646 29.3628C32.1117 28.1257 30.5322 27.4162 28.8691 27.4162L28.8691 29.4162Z" fill="white"/>
<circle cx="28.8698" cy="32.0802" r="1.22134" fill="white"/>
</svg>
