<svg width="72" height="57" viewBox="0 0 72 57" fill="none" xmlns="http://www.w3.org/2000/svg">
<path d="M31.3234 35.4841C31.3234 34.9319 30.8756 34.4841 30.3234 34.4841C29.7711 34.4841 29.3234 34.9319 29.3234 35.4841H31.3234ZM42.5159 35.4841C42.5159 34.9319 42.0682 34.4841 41.5159 34.4841C40.9636 34.4841 40.5159 34.9319 40.5159 35.4841H42.5159ZM36.9196 46.3968C36.9196 45.8446 36.4719 45.3968 35.9196 45.3968C35.3673 45.3968 34.9196 45.8446 34.9196 46.3968H36.9196ZM27.9755 42.1174L27.414 42.9449L27.9755 42.1174ZM30.8849 42.8832L28.537 41.2899L27.414 42.9449L29.7619 44.5381L30.8849 42.8832ZM28.1895 40.6342V35.9207H26.1895V40.6342H28.1895ZM43.6498 35.9207V40.6342H45.6498V35.9207H43.6498ZM43.3023 41.2899L40.9544 42.8832L42.0774 44.5381L44.4253 42.9449L43.3023 41.2899ZM40.5159 43.7106V53.127H42.5159V43.7106H40.5159ZM31.3234 53.127V43.7106H29.3234V53.127H31.3234ZM31.3234 43.7106V35.4841H29.3234V43.7106H31.3234ZM42.5159 43.7106V35.4841H40.5159V43.7106H42.5159ZM39.5159 54.127H35.9196V56.127H39.5159V54.127ZM35.9196 54.127H32.3234V56.127H35.9196V54.127ZM36.9196 55.127V46.3968H34.9196V55.127H36.9196ZM29.3234 53.127C29.3234 54.7839 30.6665 56.127 32.3234 56.127V54.127C31.7711 54.127 31.3234 53.6793 31.3234 53.127H29.3234ZM43.6498 40.6342C43.6498 40.8968 43.5196 41.1425 43.3023 41.2899L44.4253 42.9449C45.1912 42.4252 45.6498 41.5597 45.6498 40.6342H43.6498ZM35.9196 28.1905C40.1889 28.1905 43.6498 31.6514 43.6498 35.9207H45.6498C45.6498 30.5468 41.2934 26.1905 35.9196 26.1905V28.1905ZM28.1895 35.9207C28.1895 31.6514 31.6504 28.1905 35.9196 28.1905V26.1905C30.5458 26.1905 26.1895 30.5468 26.1895 35.9207H28.1895ZM40.5159 53.127C40.5159 53.6793 40.0682 54.127 39.5159 54.127V56.127C41.1727 56.127 42.5159 54.7838 42.5159 53.127H40.5159ZM28.537 41.2899C28.3196 41.1425 28.1895 40.8968 28.1895 40.6342H26.1895C26.1895 41.5597 26.6481 42.4252 27.414 42.9449L28.537 41.2899Z" fill="#B49B7E"/>
<path d="M48.1275 1H22.8418C18.9758 1 15.8418 4.13401 15.8418 8V9.34279H55.1275V8C55.1275 4.13401 51.9935 1 48.1275 1Z" fill="#B49B7E"/>
<path d="M14.8418 56C14.8418 56.5523 15.2895 57 15.8418 57C16.3941 57 16.8418 56.5523 16.8418 56H14.8418ZM54.1275 56C54.1275 56.5523 54.5752 57 55.1275 57C55.6798 57 56.1275 56.5523 56.1275 56H54.1275ZM22.8418 2H48.1275V0H22.8418V2ZM16.8418 56V9.34279H14.8418V56H16.8418ZM16.8418 9.34279V8H14.8418V9.34279H16.8418ZM54.1275 8V9.34279H56.1275V8H54.1275ZM54.1275 9.34279V56H56.1275V9.34279H54.1275ZM15.8418 10.3428H55.1275V8.34279H15.8418V10.3428ZM48.1275 2C51.4412 2 54.1275 4.68629 54.1275 8H56.1275C56.1275 3.58173 52.5458 0 48.1275 0V2ZM22.8418 0C18.4235 0 14.8418 3.58172 14.8418 8H16.8418C16.8418 4.68629 19.5281 2 22.8418 2V0Z" fill="#B49B7E"/>
<circle cx="35.9217" cy="22.8253" r="4.23809" stroke="#B49B7E" stroke-width="2"/>
<mask id="path-5-inside-1_634_1509" fill="white">
<path d="M41.1598 22.8253C41.1598 22.1374 41.0243 21.4563 40.7611 20.8208C40.4978 20.1853 40.112 19.6078 39.6256 19.1214C39.1392 18.635 38.5617 18.2492 37.9262 17.9859C37.2907 17.7227 36.6096 17.5872 35.9217 17.5872C35.2338 17.5872 34.5527 17.7227 33.9172 17.9859C33.2816 18.2492 32.7042 18.635 32.2178 19.1214C31.7314 19.6078 31.3456 20.1853 31.0823 20.8208C30.8191 21.4563 30.6836 22.1374 30.6836 22.8253L35.9217 22.8253H41.1598Z"/>
</mask>
<path d="M41.1598 22.8253C41.1598 22.1374 41.0243 21.4563 40.7611 20.8208C40.4978 20.1853 40.112 19.6078 39.6256 19.1214C39.1392 18.635 38.5617 18.2492 37.9262 17.9859C37.2907 17.7227 36.6096 17.5872 35.9217 17.5872C35.2338 17.5872 34.5527 17.7227 33.9172 17.9859C33.2816 18.2492 32.7042 18.635 32.2178 19.1214C31.7314 19.6078 31.3456 20.1853 31.0823 20.8208C30.8191 21.4563 30.6836 22.1374 30.6836 22.8253L35.9217 22.8253H41.1598Z" fill="#B49B7E" stroke="#B49B7E" stroke-width="4" mask="url(#path-5-inside-1_634_1509)"/>
<path d="M30.6815 5.3651C30.6815 6.08833 30.0953 6.67462 29.372 6.67462C28.6488 6.67462 28.0625 6.08833 28.0625 5.3651C28.0625 4.64187 28.6488 4.05557 29.372 4.05557C30.0953 4.05557 30.6815 4.64187 30.6815 5.3651Z" fill="white"/>
<path d="M36.7927 5.3651C36.7927 6.08833 36.2064 6.67462 35.4831 6.67462C34.7599 6.67462 34.1736 6.08833 34.1736 5.3651C34.1736 4.64187 34.7599 4.05557 35.4831 4.05557C36.2064 4.05557 36.7927 4.64187 36.7927 5.3651Z" fill="white"/>
<path d="M42.9038 5.3651C42.9038 6.08833 42.3175 6.67462 41.5942 6.67462C40.871 6.67462 40.2847 6.08833 40.2847 5.3651C40.2847 4.64187 40.871 4.05557 41.5942 4.05557C42.3175 4.05557 42.9038 4.64187 42.9038 5.3651Z" fill="white"/>
<path d="M35.9198 31.119L35.2613 31.8716L35.9654 32.4876L36.6269 31.8261L35.9198 31.119ZM33.0862 27.3109C32.6706 26.9472 32.0388 26.9893 31.6752 27.4049C31.3115 27.8206 31.3536 28.4523 31.7692 28.816L33.0862 27.3109ZM39.6825 28.7706C40.073 28.38 40.073 27.7469 39.6825 27.3563C39.2919 26.9658 38.6588 26.9658 38.2682 27.3563L39.6825 28.7706ZM36.5783 30.3664L33.0862 27.3109L31.7692 28.816L35.2613 31.8716L36.5783 30.3664ZM36.6269 31.8261L39.6825 28.7706L38.2682 27.3563L35.2127 30.4119L36.6269 31.8261Z" fill="#B49B7E"/>
<path d="M10.0462 32.9859C10.4367 33.3765 11.0699 33.3765 11.4604 32.9859C11.8509 32.5954 11.8509 31.9622 11.4604 31.5717L10.0462 32.9859ZM9.99629 31.1459L10.9202 30.7632L9.99629 31.1459ZM9.99629 28.4732L10.9202 28.8559L9.99629 28.4732ZM11.4604 28.0474C11.8509 27.6569 11.8509 27.0237 11.4604 26.6332C11.0699 26.2427 10.4367 26.2427 10.0462 26.6332L11.4604 28.0474ZM11.4604 31.5717C11.229 31.3403 11.0454 31.0656 10.9202 30.7632L9.07241 31.5286C9.29815 32.0736 9.62904 32.5688 10.0462 32.9859L11.4604 31.5717ZM10.9202 30.7632C10.7949 30.4609 10.7305 30.1368 10.7305 29.8096H8.73047C8.73047 30.3995 8.84666 30.9836 9.07241 31.5286L10.9202 30.7632ZM10.7305 29.8096C10.7305 29.4823 10.7949 29.1582 10.9202 28.8559L9.07241 28.0905C8.84666 28.6355 8.73047 29.2197 8.73047 29.8096H10.7305ZM10.9202 28.8559C11.0454 28.5535 11.229 28.2788 11.4604 28.0474L10.0462 26.6332C9.62904 27.0503 9.29815 27.5455 9.07241 28.0905L10.9202 28.8559Z" fill="#B49B7E"/>
<path d="M6.95943 36.0724C7.34996 36.4629 7.98312 36.4629 8.37365 36.0724C8.76417 35.6819 8.76417 35.0487 8.37364 34.6582L6.95943 36.0724ZM5.96332 32.8162L6.8872 32.4336L5.96332 32.8162ZM5.96332 26.8026L5.03944 26.42H5.03944L5.96332 26.8026ZM8.37365 24.9607C8.76417 24.5702 8.76417 23.937 8.37365 23.5465C7.98312 23.156 7.34996 23.156 6.95943 23.5465L8.37365 24.9607ZM8.37364 34.6582C7.7369 34.0214 7.23181 33.2655 6.8872 32.4336L5.03944 33.1989C5.48456 34.2735 6.13697 35.2499 6.95943 36.0724L8.37364 34.6582ZM6.8872 32.4336C6.5426 31.6016 6.36523 30.7099 6.36523 29.8094H4.36523C4.36523 30.9726 4.59433 32.1243 5.03944 33.1989L6.8872 32.4336ZM6.36523 29.8094C6.36523 28.9089 6.5426 28.0173 6.8872 27.1853L5.03944 26.42C4.59433 27.4946 4.36523 28.6463 4.36523 29.8094H6.36523ZM6.8872 27.1853C7.23181 26.3534 7.7369 25.5975 8.37365 24.9607L6.95943 23.5465C6.13697 24.369 5.48456 25.3454 5.03944 26.42L6.8872 27.1853Z" fill="#B49B7E"/>
<path d="M5.28691 21.8742C5.67744 21.4837 5.67744 20.8505 5.28691 20.46C4.89639 20.0695 4.26322 20.0695 3.8727 20.46L5.28691 21.8742ZM3.8727 39.159C4.26322 39.5495 4.89639 39.5495 5.28691 39.159C5.67744 38.7685 5.67744 38.1353 5.28691 37.7448L3.8727 39.159ZM3.8727 20.46C1.39305 22.9396 0 26.3027 0 29.8095H2C2 26.8332 3.18234 23.9788 5.28691 21.8742L3.8727 20.46ZM0 29.8095C0 33.3163 1.39305 36.6794 3.8727 39.159L5.28691 37.7448C3.18234 35.6402 2 32.7858 2 29.8095H0Z" fill="#B49B7E"/>
<path d="M61.073 32.9859C60.6825 33.3765 60.0493 33.3765 59.6588 32.9859C59.2682 32.5954 59.2682 31.9622 59.6588 31.5717L61.073 32.9859ZM61.1229 31.1459L60.199 30.7632L61.1229 31.1459ZM61.1229 28.4732L60.199 28.8559L61.1229 28.4732ZM59.6588 28.0474C59.2682 27.6569 59.2682 27.0237 59.6588 26.6332C60.0493 26.2427 60.6825 26.2427 61.073 26.6332L59.6588 28.0474ZM59.6588 31.5717C59.8902 31.3403 60.0737 31.0656 60.199 30.7632L62.0467 31.5286C61.821 32.0736 61.4901 32.5688 61.073 32.9859L59.6588 31.5717ZM60.199 30.7632C60.3242 30.4609 60.3887 30.1368 60.3887 29.8096H62.3887C62.3887 30.3995 62.2725 30.9836 62.0467 31.5286L60.199 30.7632ZM60.3887 29.8096C60.3887 29.4823 60.3242 29.1582 60.199 28.8559L62.0467 28.0905C62.2725 28.6355 62.3887 29.2197 62.3887 29.8096H60.3887ZM60.199 28.8559C60.0737 28.5535 59.8902 28.2788 59.6588 28.0474L61.073 26.6332C61.4901 27.0503 61.821 27.5455 62.0467 28.0905L60.199 28.8559Z" fill="#B49B7E"/>
<path d="M64.1597 36.0724C63.7692 36.4629 63.136 36.4629 62.7455 36.0724C62.355 35.6819 62.355 35.0487 62.7455 34.6582L64.1597 36.0724ZM65.1558 32.8162L64.2319 32.4336L65.1558 32.8162ZM65.1558 26.8026L66.0797 26.42H66.0797L65.1558 26.8026ZM62.7455 24.9607C62.355 24.5702 62.355 23.937 62.7455 23.5465C63.136 23.156 63.7692 23.156 64.1597 23.5465L62.7455 24.9607ZM62.7455 34.6582C63.3822 34.0214 63.8873 33.2655 64.2319 32.4336L66.0797 33.1989C65.6346 34.2735 64.9822 35.2499 64.1597 36.0724L62.7455 34.6582ZM64.2319 32.4336C64.5765 31.6016 64.7539 30.7099 64.7539 29.8094H66.7539C66.7539 30.9726 66.5248 32.1243 66.0797 33.1989L64.2319 32.4336ZM64.7539 29.8094C64.7539 28.9089 64.5765 28.0173 64.2319 27.1853L66.0797 26.42C66.5248 27.4946 66.7539 28.6463 66.7539 29.8094H64.7539ZM64.2319 27.1853C63.8873 26.3534 63.3822 25.5975 62.7455 24.9607L64.1597 23.5465C64.9822 24.369 65.6346 25.3454 66.0797 26.42L64.2319 27.1853Z" fill="#B49B7E"/>
<path d="M65.8322 21.8742C65.4417 21.4837 65.4417 20.8505 65.8322 20.46C66.2228 20.0695 66.8559 20.0695 67.2464 20.46L65.8322 21.8742ZM67.2464 39.159C66.8559 39.5495 66.2228 39.5495 65.8322 39.159C65.4417 38.7685 65.4417 38.1353 65.8322 37.7448L67.2464 39.159ZM67.2464 20.46C69.7261 22.9396 71.1191 26.3027 71.1191 29.8095H69.1191C69.1191 26.8332 67.9368 23.9788 65.8322 21.8742L67.2464 20.46ZM71.1191 29.8095C71.1191 33.3163 69.7261 36.6794 67.2464 39.159L65.8322 37.7448C67.9368 35.6402 69.1191 32.7858 69.1191 29.8095H71.1191Z" fill="#B49B7E"/>
</svg>
