<svg width="64" height="55" viewBox="0 0 64 55" fill="none" xmlns="http://www.w3.org/2000/svg">
<rect x="15.9688" y="11.4762" width="31.1746" height="32.0476" rx="4" stroke="#B49B7E" stroke-width="2"/>
<path d="M20.207 10.4762H42.9054L41.8557 4.17801C41.4539 1.76707 39.368 5.72205e-06 36.9238 5.72205e-06H26.1887C23.7445 5.72205e-06 21.6586 1.76707 21.2567 4.17801L20.207 10.4762Z" fill="#B49B7E"/>
<path d="M20.207 44.5238H42.9054L41.8557 50.822C41.4539 53.2329 39.368 55 36.9238 55H26.1887C23.7445 55 21.6586 53.2329 21.2567 50.822L20.207 44.5238Z" fill="#B49B7E"/>
<path fill-rule="evenodd" clip-rule="evenodd" d="M34.2637 33.3944C37.5238 29.7982 38.5386 28.6789 38.5386 25.5601C38.5386 21.7028 35.4117 18.5759 31.5544 18.5759C27.6972 18.5759 24.5703 21.7028 24.5703 25.5601C24.5703 28.6789 25.585 29.7982 28.8452 33.3944C29.617 34.2458 30.5146 35.2359 31.5544 36.4243C32.5942 35.2359 33.4919 34.2458 34.2637 33.3944ZM31.5533 28.664C33.2676 28.664 34.6573 27.2743 34.6573 25.56C34.6573 23.8457 33.2676 22.4559 31.5533 22.4559C29.839 22.4559 28.4492 23.8457 28.4492 25.56C28.4492 27.2743 29.839 28.664 31.5533 28.664Z" fill="#B49B7E"/>
<path d="M10.0462 31.1129C10.4367 31.5035 11.0699 31.5035 11.4604 31.1129C11.8509 30.7224 11.8509 30.0893 11.4604 29.6987L10.0462 31.1129ZM9.99629 29.2729L9.07241 29.6556L9.99629 29.2729ZM9.99629 26.6002L9.07241 26.2175L9.07241 26.2175L9.99629 26.6002ZM11.4604 26.1744C11.8509 25.7839 11.8509 25.1507 11.4604 24.7602C11.0699 24.3697 10.4367 24.3697 10.0462 24.7602L11.4604 26.1744ZM11.4604 29.6987C11.229 29.4673 11.0454 29.1926 10.9202 28.8902L9.07241 29.6556C9.29815 30.2006 9.62904 30.6958 10.0462 31.1129L11.4604 29.6987ZM10.9202 28.8902C10.7949 28.5879 10.7305 28.2638 10.7305 27.9366H8.73047C8.73047 28.5265 8.84666 29.1106 9.07241 29.6556L10.9202 28.8902ZM10.7305 27.9366C10.7305 27.6093 10.7949 27.2853 10.9202 26.9829L9.07241 26.2175C8.84666 26.7625 8.73047 27.3467 8.73047 27.9366H10.7305ZM10.9202 26.9829C11.0454 26.6806 11.229 26.4058 11.4604 26.1744L10.0462 24.7602C9.62904 25.1773 9.29815 25.6725 9.07241 26.2175L10.9202 26.9829Z" fill="#B49B7E"/>
<path d="M6.95943 34.1994C7.34996 34.59 7.98312 34.59 8.37364 34.1994C8.76417 33.8089 8.76417 33.1757 8.37365 32.7852L6.95943 34.1994ZM5.96332 30.9433L6.8872 30.5606L5.96332 30.9433ZM5.96332 24.9297L5.03944 24.547L5.96332 24.9297ZM8.37365 23.0878C8.76417 22.6972 8.76417 22.0641 8.37365 21.6735C7.98312 21.283 7.34996 21.283 6.95943 21.6735L8.37365 23.0878ZM8.37365 32.7852C7.7369 32.1485 7.23181 31.3925 6.8872 30.5606L5.03944 31.326C5.48456 32.4006 6.13697 33.377 6.95943 34.1994L8.37365 32.7852ZM6.8872 30.5606C6.5426 29.7287 6.36523 28.837 6.36523 27.9365H4.36523C4.36523 29.0996 4.59433 30.2514 5.03944 31.326L6.8872 30.5606ZM6.36523 27.9365C6.36523 27.036 6.5426 26.1443 6.8872 25.3124L5.03944 24.547C4.59433 25.6216 4.36523 26.7733 4.36523 27.9365H6.36523ZM6.8872 25.3124C7.23181 24.4804 7.7369 23.7245 8.37365 23.0878L6.95943 21.6735C6.13697 22.496 5.48456 23.4724 5.03944 24.547L6.8872 25.3124Z" fill="#B49B7E"/>
<path d="M5.28691 20.0012C5.67744 19.6107 5.67744 18.9775 5.28691 18.587C4.89639 18.1965 4.26322 18.1965 3.8727 18.587L5.28691 20.0012ZM3.8727 37.286C4.26322 37.6766 4.89639 37.6766 5.28691 37.286C5.67744 36.8955 5.67744 36.2623 5.28691 35.8718L3.8727 37.286ZM3.8727 18.587C1.39305 21.0666 0 24.4298 0 27.9365H2C2 24.9602 3.18234 22.1058 5.28691 20.0012L3.8727 18.587ZM0 27.9365C0 31.4433 1.39305 34.8064 3.8727 37.286L5.28691 35.8718C3.18234 33.7672 2 30.9128 2 27.9365H0Z" fill="#B49B7E"/>
<path d="M53.2156 31.1129C52.825 31.5034 52.1919 31.5034 51.8013 31.1129C51.4108 30.7224 51.4108 30.0892 51.8013 29.6987L53.2156 31.1129ZM53.2654 29.2729L54.1893 29.6556L53.2654 29.2729ZM53.2654 26.6002L54.1893 26.2175L54.1893 26.2175L53.2654 26.6002ZM51.8013 26.1744C51.4108 25.7839 51.4108 25.1507 51.8013 24.7602C52.1919 24.3697 52.825 24.3697 53.2156 24.7602L51.8013 26.1744ZM51.8013 29.6987C52.0328 29.4673 52.2163 29.1926 52.3416 28.8902L54.1893 29.6556C53.9636 30.2006 53.6327 30.6958 53.2156 31.1129L51.8013 29.6987ZM52.3416 28.8902C52.4668 28.5879 52.5312 28.2638 52.5312 27.9365H54.5312C54.5312 28.5265 54.4151 29.1106 54.1893 29.6556L52.3416 28.8902ZM52.5312 27.9365C52.5312 27.6093 52.4668 27.2852 52.3416 26.9829L54.1893 26.2175C54.4151 26.7625 54.5312 27.3466 54.5312 27.9365H52.5312ZM52.3416 26.9829C52.2163 26.6805 52.0328 26.4058 51.8013 26.1744L53.2156 24.7602C53.6327 25.1773 53.9636 25.6725 54.1893 26.2175L52.3416 26.9829Z" fill="#B49B7E"/>
<path d="M56.3023 34.1994C55.9118 34.5899 55.2786 34.5899 54.8881 34.1994C54.4975 33.8089 54.4975 33.1757 54.8881 32.7852L56.3023 34.1994ZM57.2984 30.9433L56.3745 30.5606L57.2984 30.9433ZM57.2984 24.9297L58.2223 24.547L57.2984 24.9297ZM54.8881 23.0877C54.4975 22.6972 54.4975 22.064 54.8881 21.6735C55.2786 21.283 55.9118 21.283 56.3023 21.6735L54.8881 23.0877ZM54.8881 32.7852C55.5248 32.1484 56.0299 31.3925 56.3745 30.5606L58.2223 31.3259C57.7772 32.4005 57.1247 33.3769 56.3023 34.1994L54.8881 32.7852ZM56.3745 30.5606C56.7191 29.7286 56.8965 28.8369 56.8965 27.9365H58.8965C58.8965 29.0996 58.6674 30.2513 58.2223 31.3259L56.3745 30.5606ZM56.8965 27.9365C56.8965 27.036 56.7191 26.1443 56.3745 25.3123L58.2223 24.547C58.6674 25.6216 58.8965 26.7733 58.8965 27.9365H56.8965ZM56.3745 25.3123C56.0299 24.4804 55.5248 23.7245 54.8881 23.0877L56.3023 21.6735C57.1247 22.496 57.7772 23.4724 58.2223 24.547L56.3745 25.3123Z" fill="#B49B7E"/>
<path d="M57.9748 20.0012C57.5843 19.6106 57.5843 18.9775 57.9748 18.587C58.3653 18.1964 58.9985 18.1964 59.389 18.587L57.9748 20.0012ZM59.389 37.286C58.9985 37.6765 58.3653 37.6765 57.9748 37.286C57.5843 36.8955 57.5843 36.2623 57.9748 35.8718L59.389 37.286ZM59.389 18.587C61.8687 21.0666 63.2617 24.4297 63.2617 27.9365H61.2617C61.2617 24.9602 60.0794 22.1057 57.9748 20.0012L59.389 18.587ZM63.2617 27.9365C63.2617 31.4432 61.8687 34.8064 59.389 37.286L57.9748 35.8718C60.0794 33.7672 61.2617 30.9128 61.2617 27.9365H63.2617Z" fill="#B49B7E"/>
</svg>
