<svg width="57" height="56" viewBox="0 0 57 56" fill="none" xmlns="http://www.w3.org/2000/svg">
<path d="M19.2259 1C14.801 1.65756 10.6832 3.65311 7.42524 6.71875C4.1673 9.78438 1.92522 13.7734 1 18.1501" stroke="#B49B7E" stroke-width="2" stroke-linecap="round"/>
<path d="M19.2259 44.4014C14.801 43.7438 10.6832 41.7483 7.42524 38.6826C4.1673 35.617 1.92522 31.628 1 27.2512" stroke="#B49B7E" stroke-width="2" stroke-linecap="round"/>
<path d="M26.1002 1C30.5251 1.65756 34.643 3.65311 37.9009 6.71875C41.1589 9.78438 43.4009 13.7734 44.3262 18.1501" stroke="#B49B7E" stroke-width="2" stroke-linecap="round"/>
<path d="M30.539 23.5293C30.4816 24.0786 30.8804 24.5704 31.4297 24.6278C31.979 24.6852 32.4708 24.2865 32.5282 23.7372L30.539 23.5293ZM30.45 18.2779L29.574 18.7602L29.574 18.7602L30.45 18.2779ZM26.5035 14.4991L26.0596 15.3952V15.3952L26.5035 14.4991ZM21.1061 13.649L20.9591 12.6599L21.1061 13.649ZM16.1891 16.0318L15.5038 15.3036V15.3036L16.1891 16.0318ZM13.5119 20.7949L14.4903 21.0017L13.5119 20.7949ZM14.0325 26.234L13.1111 26.6226L14.0325 26.234ZM17.5645 30.4028L17.0297 31.2479H17.0297L17.5645 30.4028ZM22.8874 32.8089C23.4392 32.785 23.8671 32.3183 23.8432 31.7665C23.8193 31.2148 23.3526 30.7868 22.8008 30.8107L22.8874 32.8089ZM32.5282 23.7372C32.743 21.6803 32.3235 19.607 31.326 17.7955L29.574 18.7602C30.3748 20.2143 30.7115 21.8784 30.539 23.5293L32.5282 23.7372ZM31.326 17.7955C30.3284 15.984 28.8005 14.521 26.9474 13.603L26.0596 15.3952C27.547 16.132 28.7733 17.3062 29.574 18.7602L31.326 17.7955ZM26.9474 13.603C25.0943 12.685 23.0047 12.3559 20.9591 12.6599L21.2531 14.6382C22.895 14.3942 24.5722 14.6583 26.0596 15.3952L26.9474 13.603ZM20.9591 12.6599C18.9135 12.9639 17.0099 13.8864 15.5038 15.3036L16.8744 16.7601C18.0833 15.6226 19.6112 14.8821 21.2531 14.6382L20.9591 12.6599ZM15.5038 15.3036C13.9978 16.7207 12.9613 18.5648 12.5336 20.5881L14.4903 21.0017C14.8336 19.3777 15.6656 17.8976 16.8744 16.7601L15.5038 15.3036ZM12.5336 20.5881C12.1059 22.6114 12.3074 24.7171 13.1111 26.6226L14.9539 25.8453C14.3088 24.3159 14.147 22.6257 14.4903 21.0017L12.5336 20.5881ZM13.1111 26.6226C13.9148 28.5281 15.2822 30.142 17.0297 31.2479L18.0992 29.5578C16.6965 28.6702 15.599 27.3748 14.9539 25.8453L13.1111 26.6226ZM17.0297 31.2479C18.7773 32.3537 20.8213 32.8984 22.8874 32.8089L22.8008 30.8107C21.1425 30.8826 19.5018 30.4454 18.0992 29.5578L17.0297 31.2479Z" fill="#B49B7E"/>
<path d="M54.4481 37.3365L30.8531 29.774C30.0628 29.5207 29.3257 30.2847 29.6072 31.0654L37.7807 53.7361C38.0825 54.5732 39.2452 54.6288 39.6255 53.8243L44.0296 44.508C44.1275 44.3008 44.2937 44.1335 44.5003 44.0342L54.5762 39.19C55.3909 38.7983 55.309 37.6124 54.4481 37.3365Z" fill="#B49B7E"/>
<path d="M36.678 25.6138C36.5667 26.1548 36.9149 26.6836 37.4559 26.7949C37.9968 26.9063 38.5256 26.5581 38.637 26.0171L36.678 25.6138ZM29.6144 8.90834L30.0759 8.02119L29.6144 8.90834ZM19.8609 7.37295L20.0275 8.35897L19.8609 7.37295ZM11.1534 12.028L10.426 11.3417L11.1534 12.028ZM7.01248 20.9914L6.01844 20.8824H6.01844L7.01248 20.9914ZM26.7168 38.6517C27.2504 38.5091 27.5673 37.9609 27.4246 37.4274C27.282 36.8938 26.7338 36.5769 26.2003 36.7196L26.7168 38.6517ZM38.637 26.0171C39.3622 22.4945 38.9187 18.8315 37.3737 15.5838L35.5676 16.443C36.9257 19.2977 37.3155 22.5175 36.678 25.6138L38.637 26.0171ZM37.3737 15.5838C35.8287 12.3361 33.2665 9.68095 30.0759 8.02119L29.1529 9.79548C31.9574 11.2544 34.2096 13.5883 35.5676 16.443L37.3737 15.5838ZM30.0759 8.02119C26.8853 6.36144 23.2404 5.78767 19.6942 6.38693L20.0275 8.35897C23.1446 7.83222 26.3484 8.33657 29.1529 9.79548L30.0759 8.02119ZM19.6942 6.38693C16.148 6.98618 12.8941 8.72576 10.426 11.3417L11.8807 12.7142C14.0502 10.4148 16.9104 8.88571 20.0275 8.35897L19.6942 6.38693ZM10.426 11.3417C7.95794 13.9577 6.4105 17.3073 6.01844 20.8824L8.00652 21.1004C8.35114 17.958 9.71134 15.0137 11.8807 12.7142L10.426 11.3417ZM6.01844 20.8824C5.62638 24.4574 6.41111 28.0628 8.25356 31.1515L9.97118 30.1269C8.35168 27.4119 7.66191 24.2428 8.00652 21.1004L6.01844 20.8824ZM8.25356 31.1515C10.096 34.2402 12.8956 36.6436 16.2277 37.9972L16.9804 36.1442C14.0515 34.9545 11.5907 32.8418 9.97118 30.1269L8.25356 31.1515ZM16.2277 37.9972C19.5597 39.3507 23.2423 39.5805 26.7168 38.6517L26.2003 36.7196C23.1462 37.536 19.9092 37.334 16.9804 36.1442L16.2277 37.9972Z" fill="#B49B7E"/>
</svg>
