<svg width="55" height="55" viewBox="0 0 55 55" fill="none" xmlns="http://www.w3.org/2000/svg">
<rect x="1" y="1" width="53" height="53" rx="10" stroke="#B49B7E" stroke-width="2"/>
<rect x="20.207" y="20.2064" width="14.5873" height="14.5873" rx="2" fill="#B49B7E" stroke="#B49B7E" stroke-width="2"/>
<path d="M4.49219 11.4921C4.49219 7.62607 7.62619 4.49207 11.4922 4.49207H43.5081C47.3741 4.49207 50.5081 7.62607 50.5081 11.4921V32.9165C50.5081 34.773 49.7706 36.5534 48.4578 37.8662L37.8663 48.4577C36.5536 49.7704 34.7731 50.5079 32.9166 50.5079H11.4922C7.6262 50.5079 4.49219 47.3739 4.49219 43.5079V11.4921Z" stroke="#B49B7E" stroke-width="2"/>
<path d="M7.98438 11.9841C7.98438 9.77499 9.77524 7.98413 11.9844 7.98413H43.0161C45.2253 7.98413 47.0161 9.77499 47.0161 11.9841V32.8893C47.0161 33.9501 46.5947 34.9675 45.8445 35.7177L35.7179 45.8443C34.9678 46.5944 33.9504 47.0159 32.8895 47.0159H11.9844C9.77524 47.0159 7.98438 45.225 7.98438 43.0159V11.9841Z" stroke="#B49B7E" stroke-width="2"/>
<path d="M42.6512 33.373C42.6512 33.9253 43.0989 34.373 43.6512 34.373C44.2035 34.373 44.6512 33.9253 44.6512 33.373H42.6512ZM34.0805 32.6659C33.69 32.2754 33.0568 32.2754 32.6663 32.6659C32.2758 33.0564 32.2758 33.6896 32.6663 34.0801L34.0805 32.6659ZM13.3496 12.3492H41.6512V10.3492H13.3496V12.3492ZM12.3496 41.6508V13.3492H10.3496V41.6508H12.3496ZM32.1308 42.6508H13.3496V44.6508H32.1308V42.6508ZM42.6512 13.3492V33.373H44.6512V13.3492H42.6512ZM35.6839 39.9261L33.545 42.065L34.9592 43.4792L37.0981 41.3403L35.6839 39.9261ZM37.0981 35.6835L34.0805 32.6659L32.6663 34.0801L35.6839 37.0977L37.0981 35.6835ZM32.1308 44.6508C33.1916 44.6508 34.2091 44.2294 34.9592 43.4792L33.545 42.065C33.1699 42.4401 32.6612 42.6508 32.1308 42.6508V44.6508ZM10.3496 41.6508C10.3496 43.3077 11.6928 44.6508 13.3496 44.6508V42.6508C12.7973 42.6508 12.3496 42.2031 12.3496 41.6508H10.3496ZM41.6512 12.3492C42.2035 12.3492 42.6512 12.7969 42.6512 13.3492H44.6512C44.6512 11.6924 43.308 10.3492 41.6512 10.3492V12.3492ZM37.0981 41.3403C38.6602 39.7782 38.6602 37.2456 37.0981 35.6835L35.6839 37.0977C36.4649 37.8787 36.4649 39.1451 35.6839 39.9261L37.0981 41.3403ZM13.3496 10.3492C11.6928 10.3492 10.3496 11.6924 10.3496 13.3492H12.3496C12.3496 12.7969 12.7973 12.3492 13.3496 12.3492V10.3492Z" fill="#B49B7E"/>
</svg>
