<svg width="15" height="13" viewBox="0 0 15 13" fill="none" xmlns="http://www.w3.org/2000/svg">
<path d="M13.9453 10.6016C13.9453 10.9124 13.8218 11.2104 13.6021 11.4302C13.3823 11.65 13.0842 11.7734 12.7734 11.7734H2.22656C1.91576 11.7734 1.61769 11.65 1.39792 11.4302C1.17815 11.2104 1.05469 10.9124 1.05469 10.6016V4.15625C1.05469 3.84545 1.17815 3.54738 1.39792 3.32761C1.61769 3.10784 1.91576 2.98438 2.22656 2.98438H4.57031L5.74219 1.22656H9.25781L10.4297 2.98438H12.7734C13.0842 2.98438 13.3823 3.10784 13.6021 3.32761C13.8218 3.54738 13.9453 3.84545 13.9453 4.15625V10.6016Z" stroke="black" stroke-linecap="round" stroke-linejoin="round"/>
<path d="M7.5 9.42969C8.79442 9.42969 9.84375 8.38035 9.84375 7.08594C9.84375 5.79152 8.79442 4.74219 7.5 4.74219C6.20558 4.74219 5.15625 5.79152 5.15625 7.08594C5.15625 8.38035 6.20558 9.42969 7.5 9.42969Z" stroke="black" stroke-linecap="round" stroke-linejoin="round"/>
</svg>
