<svg width="66" height="66" viewBox="0 0 66 66" fill="none" xmlns="http://www.w3.org/2000/svg">
<rect width="66" height="66" rx="17" fill="#FAF4EF"/>
<path d="M29 37.5H24.5C23.6562 37.5 23 38.2031 23 39V43.5C23 44.3438 23.6562 45 24.5 45H29C29.7969 45 30.5 44.3438 30.5 43.5V39C30.5 38.2031 29.7969 37.5 29 37.5ZM27.875 33.75H36.875V36H39.125V33.75H48.125V36H50.375V33.3281C50.375 32.3438 49.5312 31.5 48.5469 31.5H39.125V28.5H41C41.7969 28.5 42.5 27.8438 42.5 27V22.5C42.5 21.7031 41.7969 21 41 21H35C34.1562 21 33.5 21.7031 33.5 22.5V27C33.5 27.8438 34.1562 28.5 35 28.5H36.875V31.5H27.4062C26.4219 31.5 25.625 32.3438 25.625 33.3281V36H27.875V33.75ZM40.25 37.5H35.75C34.9062 37.5 34.25 38.2031 34.25 39V43.5C34.25 44.3438 34.9062 45 35.75 45H40.25C41.0469 45 41.75 44.3438 41.75 43.5V39C41.75 38.2031 41.0469 37.5 40.25 37.5ZM51.5 37.5H47C46.1562 37.5 45.5 38.2031 45.5 39V43.5C45.5 44.3438 46.1562 45 47 45H51.5C52.2969 45 53 44.3438 53 43.5V39C53 38.2031 52.2969 37.5 51.5 37.5Z" fill="#B49B7E"/>
</svg>
