<svg width="66" height="66" viewBox="0 0 66 66" fill="none" xmlns="http://www.w3.org/2000/svg">
<rect width="66" height="66" rx="17" fill="#FAF4EF"/>
<path d="M45.0996 37.5684C43.7285 38.623 42.3047 39.5195 40.7227 40.1523L43.5703 45.1094L46.418 46.3223C46.9453 46.5332 47.5254 46.2168 47.5781 45.6367L47.9473 42.5781L45.0996 37.5684ZM47.3145 32.5586C47.5781 32.1895 47.4199 31.6094 46.998 31.3984L45.5215 30.5547C45.0996 30.3438 44.625 30.502 44.4141 30.8711C42.252 34.2461 38.5078 36.25 34.5 36.25C33.2344 36.25 31.9688 36.0391 30.8086 35.6699L34.3418 29.5C34.3945 29.5 34.4473 29.5 34.4473 29.5C34.5 29.5 34.5527 29.5 34.6055 29.5L37.2949 34.1934C38.9297 33.7188 40.4062 32.8223 41.6191 31.6094L38.877 26.8633C39.2988 26.1777 39.5625 25.334 39.5625 24.4375C39.5625 21.6426 37.2949 19.375 34.5 19.375C31.6523 19.375 29.4375 21.6426 29.4375 24.4375C29.4375 25.334 29.6484 26.1777 30.0703 26.8633L26.4316 33.0859C25.7988 32.5059 25.166 31.8203 24.6914 31.0293C24.4277 30.6602 23.9531 30.5547 23.5312 30.7656L22.0547 31.6094C21.6855 31.873 21.5273 32.4004 21.791 32.8223C22.582 34.0352 23.584 35.1426 24.7441 36.0918L21 42.5781L21.3691 45.6367C21.4219 46.2168 22.002 46.5332 22.5293 46.3223L25.377 45.1094L29.0684 38.6758C30.8086 39.3086 32.6016 39.625 34.5 39.625C39.7207 39.625 44.5195 36.9355 47.3145 32.5586ZM34.5 22.75C35.3965 22.75 36.1875 23.541 36.1875 24.4375C36.1875 25.3867 35.3965 26.125 34.5 26.125C33.5508 26.125 32.8125 25.3867 32.8125 24.4375C32.8125 23.541 33.5508 22.75 34.5 22.75Z" fill="#B49B7E"/>
</svg>
