<svg width="66" height="66" viewBox="0 0 66 66" fill="none" xmlns="http://www.w3.org/2000/svg">
<rect width="66" height="66" rx="17" fill="#FAF4EF"/>
<path d="M52.168 39.0977C52.3262 38.3594 52.3262 37.5684 52.168 36.8301L53.5391 36.0391C53.6973 35.9863 53.75 35.7754 53.6973 35.6172C53.3281 34.457 52.748 33.4551 51.957 32.5586C51.8516 32.4531 51.6406 32.4004 51.4824 32.5059L50.1113 33.2969C49.5312 32.8223 48.8984 32.4004 48.1602 32.1895V30.6074C48.1602 30.3965 48.0547 30.2383 47.8965 30.2383C46.6836 29.9746 45.5234 29.9746 44.3633 30.2383C44.2051 30.2383 44.0996 30.3965 44.0996 30.6074V32.1895C43.3613 32.4004 42.7285 32.8223 42.1484 33.2969L40.7773 32.5059C40.6191 32.4004 40.4082 32.4531 40.3027 32.5586C39.5117 33.4551 38.8789 34.457 38.5625 35.6172C38.5098 35.7754 38.5625 35.9863 38.7207 36.0391L40.0918 36.8301C39.9336 37.5684 39.9336 38.3594 40.0918 39.0977L38.7207 39.8887C38.5625 39.9414 38.5098 40.1523 38.5625 40.3105C38.8789 41.4707 39.5117 42.4727 40.3027 43.3691C40.4082 43.4746 40.6191 43.5273 40.7773 43.4219L42.1484 42.6309C42.7285 43.1055 43.3613 43.5273 44.0996 43.7383V45.3203C44.0996 45.5312 44.2051 45.6895 44.3633 45.6895C45.5762 45.9531 46.7363 45.9531 47.8965 45.6895C48.0547 45.6895 48.1602 45.5312 48.1602 45.3203V43.7383C48.8984 43.5273 49.5312 43.1055 50.1113 42.6309L51.4824 43.4219C51.6406 43.5273 51.8516 43.4746 51.957 43.3691C52.748 42.4727 53.3281 41.4707 53.6973 40.3105C53.75 40.1523 53.6973 39.9414 53.5391 39.8887L52.168 39.0977ZM46.1562 40.5215C44.7324 40.5215 43.5723 39.3613 43.5723 37.9375C43.5723 36.5664 44.7324 35.4062 46.1562 35.4062C47.5273 35.4062 48.6875 36.5664 48.6875 37.9375C48.6875 39.3613 47.5273 40.5215 46.1562 40.5215ZM31.8125 32.875C35.5039 32.875 38.5625 29.8691 38.5625 26.125C38.5625 22.4336 35.5039 19.375 31.8125 19.375C28.0684 19.375 25.0625 22.4336 25.0625 26.125C25.0625 29.8691 28.0684 32.875 31.8125 32.875ZM42.4121 44.8457C42.2539 44.793 42.1484 44.6875 42.043 44.6348L41.6211 44.8984C41.3047 45.0566 40.9355 45.1621 40.5664 45.1621C40.0391 45.1621 39.459 44.8984 39.0898 44.4766C38.0879 43.4746 37.3496 42.1562 36.9277 40.8379C36.6641 39.8887 37.0332 38.8867 37.877 38.4121L38.2988 38.1484C38.2988 38.043 38.2988 37.8848 38.2988 37.7793L37.877 37.5156C37.0332 37.041 36.6641 36.0391 36.9277 35.0898C36.9805 34.9316 37.0859 34.8262 37.1387 34.668C36.9277 34.6152 36.7168 34.5625 36.5059 34.5625H35.6094C34.4492 35.1426 33.1836 35.4062 31.8125 35.4062C30.4414 35.4062 29.123 35.1426 27.9629 34.5625H27.0664C23.1641 34.5625 20 37.7793 20 41.6816V43.8438C20 45.2676 21.1074 46.375 22.5312 46.375H41.0938C41.6211 46.375 42.0957 46.2168 42.5176 45.9531C42.4648 45.7422 42.4121 45.5312 42.4121 45.3203V44.8457Z" fill="#B49B7E"/>
</svg>
