<svg width="66" height="66" viewBox="0 0 66 66" fill="none" xmlns="http://www.w3.org/2000/svg">
<rect width="66" height="66" rx="17" fill="#FAF4EF"/>
<path d="M45.6816 36.0391L43.4141 34.7734C43.6777 33.5078 43.6777 32.2949 43.4141 31.0293L45.6816 29.7637C45.9453 29.6055 46.0508 29.2891 45.9453 29.0254C45.3652 27.127 44.3633 25.4395 43.0977 24.0156C42.8867 23.8047 42.5703 23.752 42.3066 23.9102L40.0391 25.1758C39.0898 24.3848 38.0352 23.752 36.875 23.3301V20.7461C36.875 20.4824 36.6641 20.2188 36.3477 20.166C34.3965 19.6914 32.4453 19.7441 30.5996 20.166C30.2832 20.2188 30.125 20.4824 30.125 20.7461V23.3301C28.9121 23.752 27.8574 24.3848 26.9082 25.2285L24.6406 23.9102C24.377 23.752 24.0605 23.8047 23.8496 24.0156C22.584 25.4395 21.582 27.127 21.002 29.0254C20.8965 29.2891 21.002 29.6055 21.2656 29.7637L23.5332 31.0293C23.3223 32.2949 23.3223 33.5078 23.5332 34.7734L21.2656 36.0391C21.002 36.1973 20.8965 36.5137 21.002 36.7773C21.582 38.6758 22.584 40.3633 23.8496 41.7871C24.0605 41.998 24.377 42.0508 24.6406 41.8926L26.9082 40.627C27.8574 41.418 28.9121 42.0508 30.125 42.4727V45.0566C30.125 45.3203 30.3359 45.584 30.5996 45.6895C32.5508 46.1113 34.502 46.0586 36.3477 45.6895C36.6641 45.584 36.875 45.3203 36.875 45.0566V42.4727C38.0352 42.0508 39.0898 41.418 40.0391 40.627L42.3066 41.8926C42.5703 42.0508 42.8867 41.998 43.0977 41.7871C44.416 40.3633 45.3652 38.6758 45.998 36.7773C46.0508 36.5137 45.9453 36.1973 45.6816 36.0391ZM33.5 37.0938C31.127 37.0938 29.2812 35.248 29.2812 32.875C29.2812 30.5547 31.127 28.6562 33.5 28.6562C35.8203 28.6562 37.7188 30.5547 37.7188 32.875C37.7188 35.248 35.8203 37.0938 33.5 37.0938Z" fill="#B49B7E"/>
</svg>
