<svg width="66" height="66" viewBox="0 0 66 66" fill="none" xmlns="http://www.w3.org/2000/svg">
<rect width="66" height="66" rx="17" fill="#FAF4EF"/>
<path d="M44.1562 39.625H26.4375V38.7812C26.4375 38.3594 26.0156 37.9375 25.5938 37.9375H23.9062C23.4316 37.9375 23.0625 38.3594 23.0625 38.7812V39.625H18.8438C18.3691 39.625 18 40.0469 18 40.4688V42.1562C18 42.6309 18.3691 43 18.8438 43H23.0625V43.8438C23.0625 44.3184 23.4316 44.6875 23.9062 44.6875H25.5938C26.0156 44.6875 26.4375 44.3184 26.4375 43.8438V43H44.1562C44.5781 43 45 42.6309 45 42.1562V40.4688C45 40.0469 44.5781 39.625 44.1562 39.625ZM44.1562 31.1875H39.9375V30.3438C39.9375 29.9219 39.5156 29.5 39.0938 29.5H37.4062C36.9316 29.5 36.5625 29.9219 36.5625 30.3438V31.1875H18.8438C18.3691 31.1875 18 31.6094 18 32.0312V33.7188C18 34.1934 18.3691 34.5625 18.8438 34.5625H36.5625V35.4062C36.5625 35.8809 36.9316 36.25 37.4062 36.25H39.0938C39.5156 36.25 39.9375 35.8809 39.9375 35.4062V34.5625H44.1562C44.5781 34.5625 45 34.1934 45 33.7188V32.0312C45 31.6094 44.5781 31.1875 44.1562 31.1875ZM44.1562 22.75H33.1875V21.9062C33.1875 21.4844 32.7656 21.0625 32.3438 21.0625H30.6562C30.1816 21.0625 29.8125 21.4844 29.8125 21.9062V22.75H18.8438C18.3691 22.75 18 23.1719 18 23.5938V25.2812C18 25.7559 18.3691 26.125 18.8438 26.125H29.8125V26.9688C29.8125 27.4434 30.1816 27.8125 30.6562 27.8125H32.3438C32.7656 27.8125 33.1875 27.4434 33.1875 26.9688V26.125H44.1562C44.5781 26.125 45 25.7559 45 25.2812V23.5938C45 23.1719 44.5781 22.75 44.1562 22.75Z" fill="#B49B7E"/>
</svg>
