<svg width="66" height="66" viewBox="0 0 66 66" fill="none" xmlns="http://www.w3.org/2000/svg">
<rect width="66" height="66" rx="17" fill="#FAF4EF"/>
<path d="M42.6406 37.6875H26.1094C25.9297 37.6875 25.75 37.8672 25.75 38.0469V40.2031C25.75 40.4277 25.8848 40.5625 26.1094 40.5625H42.6406C42.8203 40.5625 43 40.4277 43 40.2031V38.0469C43 37.8672 42.8203 37.6875 42.6406 37.6875ZM42.6406 42H26.1094C25.8848 42 25.75 42.1797 25.75 42.3594V44.5156C25.75 44.7402 25.8848 44.875 26.1094 44.875H42.6406C42.8203 44.875 43 44.7402 43 44.5156V42.3594C43 42.1797 42.8203 42 42.6406 42ZM42.6406 33.375H26.1094C25.9297 33.375 25.75 33.5547 25.75 33.7344V35.8906C25.75 36.1152 25.9297 36.25 26.1094 36.25H42.6406C42.8203 36.25 43 36.1152 43 35.8906V33.7344C43 33.5547 42.8203 33.375 42.6406 33.375ZM47.4023 27.1309L35.1836 22.0547C34.9141 21.9648 34.6445 21.9199 34.3301 21.9199C34.0605 21.9199 33.791 21.9648 33.5215 22.0547L21.3027 27.1309C20.4941 27.4902 20 28.2539 20 29.1523V44.5156C20 44.7402 20.1348 44.875 20.3594 44.875H23.9531C24.1328 44.875 24.3125 44.7402 24.3125 44.5156V33.375C24.3125 32.6113 24.9414 31.9375 25.75 31.9375H42.9551C43.7637 31.9375 44.4375 32.6113 44.4375 33.375V44.5156C44.4375 44.7402 44.5723 44.875 44.7969 44.875H48.3906C48.5703 44.875 48.75 44.7402 48.75 44.5156V29.1523C48.75 28.2539 48.2109 27.4902 47.4023 27.1309Z" fill="#B49B7E"/>
</svg>
