<svg width="66" height="66" viewBox="0 0 66 66" fill="none" xmlns="http://www.w3.org/2000/svg">
<rect width="66" height="66" rx="17" fill="#FAF4EF"/>
<path d="M39.9375 21.9062C39.9375 20.5352 38.7773 19.375 37.4062 19.375H25.5938C24.1699 19.375 23.0625 20.5352 23.0625 21.9062V43.8438C23.0625 45.2676 24.1699 46.375 25.5938 46.375H37.4062C38.7773 46.375 39.9375 45.2676 39.9375 43.8438V21.9062ZM45 24.9648C45 24.8066 44.8418 24.6484 44.6836 24.6484H43.7344V24.332C43.7344 24.1738 43.5762 24.0156 43.418 24.0156H41.2031V26.5469H43.418C43.5762 26.5469 43.7344 26.4414 43.7344 26.2305V25.9141H44.6836C44.8418 25.9141 45 25.8086 45 25.5977V24.9648ZM45 30.0273C45 29.8691 44.8418 29.7109 44.6836 29.7109H43.7344V29.3945C43.7344 29.2363 43.5762 29.0781 43.418 29.0781H41.2031V31.6094H43.418C43.5762 31.6094 43.7344 31.5039 43.7344 31.293V30.9766H44.6836C44.8418 30.9766 45 30.8711 45 30.6602V30.0273ZM45 35.0898C45 34.9316 44.8418 34.7734 44.6836 34.7734H43.7344V34.457C43.7344 34.2988 43.5762 34.1406 43.418 34.1406H41.2031V36.6719H43.418C43.5762 36.6719 43.7344 36.5664 43.7344 36.3555V36.0391H44.6836C44.8418 36.0391 45 35.9336 45 35.7227V35.0898ZM45 40.1523C45 39.9941 44.8418 39.8359 44.6836 39.8359H43.7344V39.5195C43.7344 39.3613 43.5762 39.2031 43.418 39.2031H41.2031V41.7344H43.418C43.5762 41.7344 43.7344 41.6289 43.7344 41.418V41.1016H44.6836C44.8418 41.1016 45 40.9961 45 40.7852V40.1523ZM19.582 39.2031C19.3711 39.2031 19.2656 39.3613 19.2656 39.5195V39.8359H18.3164C18.1055 39.8359 18 39.9941 18 40.1523V40.7852C18 40.9961 18.1055 41.1016 18.3164 41.1016H19.2656V41.418C19.2656 41.6289 19.3711 41.7344 19.582 41.7344H21.7969V39.2031H19.582ZM19.582 34.1406C19.3711 34.1406 19.2656 34.2988 19.2656 34.457V34.7734H18.3164C18.1055 34.7734 18 34.9316 18 35.0898V35.7227C18 35.9336 18.1055 36.0391 18.3164 36.0391H19.2656V36.3555C19.2656 36.5664 19.3711 36.6719 19.582 36.6719H21.7969V34.1406H19.582ZM19.582 29.0781C19.3711 29.0781 19.2656 29.2363 19.2656 29.3945V29.7109H18.3164C18.1055 29.7109 18 29.8691 18 30.0273V30.6602C18 30.8711 18.1055 30.9766 18.3164 30.9766H19.2656V31.293C19.2656 31.5039 19.3711 31.6094 19.582 31.6094H21.7969V29.0781H19.582ZM19.582 24.0156C19.3711 24.0156 19.2656 24.1738 19.2656 24.332V24.6484H18.3164C18.1055 24.6484 18 24.8066 18 24.9648V25.5977C18 25.8086 18.1055 25.9141 18.3164 25.9141H19.2656V26.2305C19.2656 26.4414 19.3711 26.5469 19.582 26.5469H21.7969V24.0156H19.582Z" fill="#B49B7E"/>
</svg>
