<svg width="14" height="16" viewBox="0 0 14 16" fill="none" xmlns="http://www.w3.org/2000/svg">
<path d="M0 14.5V6H14V14.5C14 14.9167 13.8542 15.2708 13.5625 15.5625C13.2708 15.8542 12.9167 16 12.5 16H1.5C1.08333 16 0.729167 15.8542 0.4375 15.5625C0.145833 15.2708 0 14.9167 0 14.5ZM2 8.5V11.5C2 11.6458 2.04167 11.7708 2.125 11.875C2.22917 11.9583 2.35417 12 2.5 12H5.5C5.64583 12 5.76042 11.9583 5.84375 11.875C5.94792 11.7708 6 11.6458 6 11.5V8.5C6 8.35417 5.94792 8.23958 5.84375 8.15625C5.76042 8.05208 5.64583 8 5.5 8H2.5C2.35417 8 2.22917 8.05208 2.125 8.15625C2.04167 8.23958 2 8.35417 2 8.5ZM12.5 2C12.9167 2 13.2708 2.14583 13.5625 2.4375C13.8542 2.72917 14 3.08333 14 3.5V5H0V3.5C0 3.08333 0.145833 2.72917 0.4375 2.4375C0.729167 2.14583 1.08333 2 1.5 2H3V0.5C3 0.354167 3.04167 0.239583 3.125 0.15625C3.22917 0.0520833 3.35417 0 3.5 0H4.5C4.64583 0 4.76042 0.0520833 4.84375 0.15625C4.94792 0.239583 5 0.354167 5 0.5V2H9V0.5C9 0.354167 9.04167 0.239583 9.125 0.15625C9.22917 0.0520833 9.35417 0 9.5 0H10.5C10.6458 0 10.7604 0.0520833 10.8438 0.15625C10.9479 0.239583 11 0.354167 11 0.5V2H12.5Z" fill="#838383"/>
</svg>
