<svg width="18" height="17" viewBox="0 0 18 17" fill="none" xmlns="http://www.w3.org/2000/svg">
<path d="M5.375 6.96875H12.625L10.0938 2.09375C9.90625 1.67708 10.0104 1.34375 10.4062 1.09375C10.8229 0.90625 11.1562 1.01042 11.4062 1.40625L14.3125 6.96875H17C17.2917 6.98958 17.5312 7.09375 17.7188 7.28125C17.9062 7.46875 18 7.69792 18 7.96875C18 8.26042 17.9062 8.5 17.7188 8.6875C17.5312 8.875 17.2917 8.96875 17 8.96875L15.375 15.5C15.25 15.9375 15.0104 16.2917 14.6562 16.5625C14.3021 16.8542 13.8958 17 13.4375 17H4.53125C4.07292 17 3.66667 16.8542 3.3125 16.5625C2.97917 16.2917 2.75 15.9375 2.625 15.5L1 8.96875C0.708333 8.96875 0.46875 8.875 0.28125 8.6875C0.09375 8.5 0 8.26042 0 7.96875C0 7.69792 0.09375 7.46875 0.28125 7.28125C0.46875 7.09375 0.708333 6.98958 1 6.96875H3.6875L6.59375 1.40625C6.84375 1.01042 7.17708 0.90625 7.59375 1.09375C7.98958 1.34375 8.09375 1.67708 7.90625 2.09375L5.375 6.96875ZM5.96875 10.4688C5.94792 10.1771 5.78125 10.0104 5.46875 9.96875C5.17708 10.0104 5.01042 10.1771 4.96875 10.4688V13.4688C5.01042 13.7812 5.17708 13.9479 5.46875 13.9688C5.78125 13.9479 5.94792 13.7812 5.96875 13.4688V10.4688ZM8.46875 10.4688V13.4688C8.51042 13.7812 8.67708 13.9479 8.96875 13.9688C9.30208 13.9479 9.47917 13.7812 9.5 13.4688V10.4688C9.47917 10.1771 9.30208 10.0104 8.96875 9.96875C8.67708 10.0104 8.51042 10.1771 8.46875 10.4688ZM13 10.4688C12.9792 10.1771 12.8125 10.0104 12.5 9.96875C12.1875 10.0104 12.0208 10.1771 12 10.4688V13.4688C12.0208 13.7812 12.1875 13.9479 12.5 13.9688C12.8125 13.9479 12.9792 13.7812 13 13.4688V10.4688Z" fill="#1D2A3D"/>
</svg>
