<svg width="23" height="23" viewBox="0 0 23 23" fill="none" xmlns="http://www.w3.org/2000/svg">
<path d="M8.75 9.6875C8.75 8.95703 8.10547 8.3125 7.375 8.3125H6.6875C5.14062 8.3125 3.9375 9.55859 3.9375 11.0625V13.125C3.9375 14.6719 5.14062 15.875 6.6875 15.875H7.375C8.10547 15.875 8.75 15.2734 8.75 14.5V9.6875ZM16.3125 15.875C17.8164 15.875 19.0625 14.6719 19.0625 13.125V11.0625C19.0625 9.55859 17.8164 8.3125 16.3125 8.3125H15.625C14.8516 8.3125 14.25 8.95703 14.25 9.6875V14.5C14.25 15.2734 14.8516 15.875 15.625 15.875H16.3125ZM11.5 0.75C5.35547 0.75 0.671875 5.86328 0.5 11.75V12.4375C0.5 12.8242 0.800781 13.125 1.1875 13.125H1.875C2.21875 13.125 2.5625 12.8242 2.5625 12.4375V11.75C2.5625 6.85156 6.55859 2.8125 11.5 2.8125C16.3984 2.8125 20.4375 6.85156 20.4375 11.75H20.3945C20.3945 11.8789 20.4375 18.8828 20.4375 18.8828C20.4375 19.9141 19.6211 20.6875 18.5898 20.6875H14.25C14.25 19.5703 13.3047 18.625 12.1875 18.625H10.8125C9.65234 18.625 8.75 19.5703 8.75 20.6875C8.75 21.8477 9.65234 22.75 10.8125 22.75H18.5898C20.7383 22.75 22.5 21.0312 22.5 18.8828V11.75C22.2852 5.86328 17.6016 0.75 11.5 0.75Z" fill="#B49B7E"/>
</svg>
