<svg width="8" height="8" viewBox="0 0 8 8" fill="none" xmlns="http://www.w3.org/2000/svg">
<path d="M7.01052 0.169729C7.23682 -0.0565759 7.60372 -0.0565764 7.83002 0.169728C8.05632 0.396033 8.05632 0.762945 7.83002 0.98925L0.989219 7.83027C0.762922 8.05657 0.39602 8.05658 0.169723 7.83027C-0.0565743 7.60397 -0.0565743 7.23705 0.169723 7.01075L7.01052 0.169729Z" fill="black"/>
<path d="M0.989478 0.169729C0.76318 -0.0565759 0.396279 -0.0565764 0.169982 0.169728C-0.0563153 0.396033 -0.0563153 0.762945 0.169982 0.98925L7.01078 7.83027C7.23708 8.05657 7.60398 8.05658 7.83028 7.83027C8.05657 7.60397 8.05657 7.23705 7.83028 7.01075L0.989478 0.169729Z" fill="black"/>
</svg>
