<svg width="41" height="43" viewBox="0 0 41 43" fill="none" xmlns="http://www.w3.org/2000/svg">
<path fill-rule="evenodd" clip-rule="evenodd" d="M35.6422 41.2317H1.79681V18.8283H14.2765V22.4089C14.2765 22.9017 14.6685 23.2959 15.1586 23.2959H23.1625C23.6526 23.2959 24.0446 22.9017 24.0446 22.4089V18.8283H31.1665V17.0216H23.1625H15.1586H0.882072C0.392032 17.0216 0 17.4158 0 17.9085V42.0858C0 42.5785 0.392032 42.9727 0.882072 42.9727H36.5243C37.0143 42.9727 37.4064 42.5785 37.4064 42.0858V29.5701H35.6096V41.2317H35.6422ZM16.0406 18.8283H22.2805V21.522H16.0406V18.8283ZM6.23984 39.425V37.6182H4.44303V39.425H6.23984ZM9.8008 39.425V37.6182H8.00398V39.425H9.8008ZM13.3618 39.425V37.6182H11.5976V39.425H13.3618ZM22.6072 15.9376C22.9665 16.2332 23.4892 16.2004 23.7833 15.8719L24.6653 14.9849C24.8287 14.8207 24.9267 14.5907 24.9267 14.3608V12.5541H26.7235C30.6438 12.5541 33.8454 15.7733 33.8454 19.7153C33.8454 23.5258 30.8072 27.7634 26.7235 27.7634H25.8414C25.3514 27.7634 24.9594 28.1576 24.9594 28.6503V29.5701C24.9594 30.0629 25.3514 30.4571 25.8414 30.4571H27.6382C35.0215 30.4571 41 24.4127 41 17.0216C41 9.59762 34.9888 3.58616 27.6382 3.58616H24.9594V1.81229C24.9594 1.58234 24.8614 1.35239 24.698 1.18815L23.7833 0.268359C23.4566 -0.060136 22.9665 -0.0929856 22.6072 0.20266L13.6884 7.36385C13.4924 7.5281 13.3618 7.7909 13.3618 8.05369C13.3618 8.31649 13.4924 8.57928 13.6884 8.74353L22.6072 15.9376ZM23.0972 2.10793L23.1625 2.17363V4.50594C23.1625 4.99869 23.5546 5.39288 24.0446 5.39288H27.6056C33.9761 5.39288 39.2032 10.616 39.2032 17.0545C39.2032 22.2118 35.8709 26.5808 31.2645 28.1247C33.9434 26.2523 35.6422 22.8688 35.6422 19.7481C35.6422 14.8207 31.6566 10.7802 26.7235 10.7802H24.0446C23.5546 10.7802 23.1625 11.1744 23.1625 11.6671V13.9995L23.0972 14.0323L15.6813 8.05369L23.0972 2.10793Z" fill="#B49B7E"/>
</svg>
