<svg width="49" height="33" viewBox="0 0 49 33" fill="none" xmlns="http://www.w3.org/2000/svg">
<path fill-rule="evenodd" clip-rule="evenodd" d="M44.9931 14.1435H44.5898L41.4362 8.40733C40.8862 7.59316 39.9328 7.07506 38.9427 7.07506H32.0122V0.0065918H14.0076V2.04201H29.9954V25.2458H16.5745C15.8044 23.4695 14.0443 22.2112 12.0275 22.2112C9.97403 22.2112 8.2139 23.4695 7.44385 25.2458H3.00688V27.2812H7.00382C7.00382 30.0568 9.24064 32.3143 12.0275 32.3143C14.7777 32.3143 17.0512 30.0568 17.0512 27.2812H34.029C34.029 30.0568 36.2659 32.3143 39.0527 32.3143C41.8029 32.3143 44.0764 30.0568 44.0764 27.2812H45.0665C46.7166 27.2812 48.0733 25.912 48.0733 24.2466V17.3632C48 15.4388 46.7899 14.1435 44.9931 14.1435ZM12.0275 30.2789C10.3774 30.2789 9.02063 28.9096 9.02063 27.2442C9.02063 25.5789 10.3774 24.2096 12.0275 24.2096C13.6776 24.2096 15.0344 25.5789 15.0344 27.2442C15.0344 28.9466 13.6776 30.2789 12.0275 30.2789ZM38.9794 30.2789C37.3293 30.2789 35.9725 28.9096 35.9725 27.2442C35.9725 25.5789 37.3293 24.2096 38.9794 24.2096C40.6295 24.2096 41.9863 25.5789 41.9863 27.2442C41.9863 28.9466 40.6662 30.2789 38.9794 30.2789ZM46.0199 24.2096C46.0199 24.7647 45.5798 25.2088 45.0298 25.2088H43.5997C42.793 23.4695 41.0329 22.2112 38.9794 22.2112C36.9626 22.2112 35.2024 23.4695 34.4324 25.2458H32.0122V9.07347H38.9427C39.2727 9.07347 39.5661 9.2215 39.7128 9.44355L43.4164 16.1419H44.9931C45.6532 16.1419 45.9832 16.549 45.9832 17.3632V24.2096H46.0199ZM37.1826 12.6632L38.8327 15.1427H33.0023V17.1782H40.9962V14.8467L38.8327 11.553L37.1826 12.6632ZM17.0145 12.1081H0V14.1435H17.0145V12.1081ZM22.9916 6.07585H7.99389V8.11127H22.9916V6.07585ZM6.01375 6.07585H3.99694V8.11127H6.01375V6.07585ZM11.9908 0.0065918H10.0107V2.04201H12.0275V0.0065918H11.9908Z" fill="#B49B7E"/>
</svg>
