<svg width="27" height="43" viewBox="0 0 27 43" fill="none" xmlns="http://www.w3.org/2000/svg">
<path fill-rule="evenodd" clip-rule="evenodd" d="M11.6748 29.4677H15.2594V27.6471H11.6748V29.4677ZM11.6748 36.684H15.2594V34.8634H11.6748V36.684ZM6.28136 29.4677H9.86602V27.6471H6.28136V29.4677ZM6.28136 33.0759H9.86602V31.2552H6.28136V33.0759ZM6.28136 36.684H9.86602V34.8634H6.28136V36.684ZM11.6748 33.0759H15.2594V31.2552H11.6748V33.0759ZM5.39342 24.9327H21.5408V18.6101H5.39342V24.9327ZM7.16931 20.4308H19.732V23.1452H7.16931V20.4308ZM26.9013 36.684V34.9958H25.1255V37.6109C25.1255 38.5047 24.6979 39.1667 23.9086 39.4646C21.0146 40.557 17.2326 41.2191 13.4507 41.2191C9.70158 41.2191 5.88672 40.5901 2.99269 39.4646C2.20341 39.1667 1.77588 38.5047 1.77588 37.6109V14.1082C1.77588 13.2144 2.20341 12.5524 2.99269 12.2545C3.7162 11.9897 4.50548 11.7248 5.36054 11.5262V14.1413H3.58465V15.8957H5.39342H6.28136H20.62H21.5079H23.3167V14.1082H21.5408V11.4931C22.363 11.7248 23.1851 11.9566 23.9086 12.2545C24.665 12.5524 25.1255 13.2144 25.1255 14.1082V34.8634H26.9342V34.9627V14.0751C26.9342 12.42 26.0463 11.0959 24.5664 10.5332C23.6456 10.169 22.6261 9.8711 21.5408 9.60628V0.0065918L18.8441 1.36379L17.0353 0.470025L15.2594 1.36379L13.4507 0.470025L11.6748 1.36379L9.86602 0.470025L8.05725 1.36379L5.39342 0.0065918V9.63939C4.30816 9.90421 3.28867 10.2021 2.36784 10.5663C0.887942 11.129 0 12.4531 0 14.1082V37.5778C0 39.2329 0.887942 40.557 2.36784 41.1198C5.4592 42.3114 9.47138 42.9735 13.4507 42.9735C17.43 42.9735 21.4421 42.2783 24.5335 41.1198C25.7503 40.6563 26.5396 39.6964 26.8027 38.4716H27V36.6509H26.9013V36.684ZM7.16931 2.9196L8.05725 3.38304L9.86602 2.48927L11.6748 3.38304L13.4836 2.48927L15.2923 3.38304L17.1011 2.48927L18.9099 3.38304L19.732 2.9196V14.1082H7.16931V2.9196ZM17.0353 36.684H20.62V34.8634H17.0353V36.684ZM17.0353 29.4677H20.62V27.6471H17.0353V29.4677ZM17.0353 33.0759H20.62V31.2552H17.0353V33.0759Z" fill="#B49B7E"/>
</svg>
