<svg width="30" height="22" viewBox="0 0 30 22" fill="none" xmlns="http://www.w3.org/2000/svg">
<path d="M27.4875 19.5L27.5 3.25C27.5 1.875 26.375 0.75 25 0.75H5C3.625 0.75 2.5 1.875 2.5 3.25V19.5C1.875 19.5 1.125 19.5 0 19.5C0 20.875 1.125 22 2.5 22H27.5C28.875 22 30 20.875 30 19.5C28.5 19.5 28.5 19.5 27.4875 19.5ZM5 3.25H25V17H5V3.25ZM15 20.75C14.3125 20.75 13.75 20.1875 13.75 19.5C13.75 18.8125 14.3125 18.25 15 18.25C15.6875 18.25 16.25 18.8125 16.25 19.5C16.25 20.1875 15.6875 20.75 15 20.75Z" fill="#8EC069"/>
</svg>
