<svg width="22" height="30" viewBox="0 0 22 30" fill="none" xmlns="http://www.w3.org/2000/svg">
<path d="M19.6875 10C18.825 10 18.125 10.7 18.125 11.5625V18.75H17.5C15.4375 18.75 13.75 20.4375 13.75 22.5H12.5C12.5 19.95 14.4125 17.85 16.875 17.5375V4.0625C16.875 3.2 16.175 2.5 15.3125 2.5C14.45 2.5 13.75 3.2 13.75 4.0625V13.75H12.5V1.5625C12.5 0.7 11.8 0 10.9375 0C10.075 0 9.375 0.7 9.375 1.5625V13.75H8.125V3.4375C8.125 2.575 7.425 1.875 6.5625 1.875C5.7 1.875 5 2.575 5 3.4375V15H3.75V7.1875C3.75 6.325 3.05 5.625 2.1875 5.625C1.325 5.625 0.625 6.325 0.625 7.1875V19.6875C0.625 25.3875 5.2375 30 10.9375 30C16.6375 30 21.25 25.3875 21.25 19.6875V11.5625C21.25 10.7 20.55 10 19.6875 10Z" fill="#8EC069"/>
</svg>
