<svg width="26" height="26" viewBox="0 0 26 26" fill="none" xmlns="http://www.w3.org/2000/svg">
<path d="M11.75 8V11.75H8V14.25H11.75V18H14.25V14.25H18V11.75H14.25V8H11.75ZM14.25 0.5625V4.35C18.4875 4.9625 21.75 8.5875 21.75 13C21.75 14.125 21.525 15.1875 21.15 16.175L24.4 18.0875C25.1 16.5375 25.5 14.8125 25.5 13C25.5 6.525 20.5625 1.1875 14.25 0.5625ZM13 21.75C8.1625 21.75 4.25 17.8375 4.25 13C4.25 8.5875 7.5125 4.9625 11.75 4.35V0.5625C5.425 1.1875 0.5 6.5125 0.5 13C0.5 19.9 6.0875 25.5 12.9875 25.5C17.125 25.5 20.7875 23.4875 23.0625 20.3875L19.8125 18.475C18.2125 20.475 15.7625 21.75 13 21.75Z" fill="#8EC069"/>
</svg>
