<svg width="35" height="35" viewBox="0 0 35 35" fill="none" xmlns="http://www.w3.org/2000/svg">
<path fill-rule="evenodd" clip-rule="evenodd" d="M17.5 18.2496C20.5272 18.2496 22.8336 15.972 22.8336 12.916V10.6384C22.8336 7.6112 20.556 5.30478 17.5 5.30478C14.4728 5.30478 12.1664 7.58237 12.1664 10.6384V12.916C12.1664 15.972 14.4728 18.2496 17.5 18.2496ZM13.6944 10.6384C13.6944 8.44728 15.2801 6.83278 17.5 6.83278C19.6911 6.83278 21.3056 8.41845 21.3056 10.6384V12.916C21.3056 15.1071 19.7199 16.7216 17.5 16.7216C15.3089 16.7216 13.6944 15.1359 13.6944 12.916V10.6384ZM17.5 19.028C14.0404 19.028 7.6112 21.1038 7.6112 25.1112V28.9168H9.13921V25.1112C9.13921 22.43 14.5593 20.556 17.5 20.556C20.4407 20.556 25.8608 22.43 25.8608 25.1112V28.9168H27.3888V25.1112C27.3888 21.1038 20.9596 19.028 17.5 19.028ZM17.5 0C7.84185 0 0 7.84185 0 17.5C0 27.1582 7.84185 35 17.5 35C27.1582 35 35 27.1582 35 17.5C35 7.84185 27.1293 0 17.5 0ZM17.5 33.472C8.67792 33.472 1.52801 26.2932 1.52801 17.5C1.52801 8.67792 8.70675 1.52801 17.5 1.52801C26.2932 1.52801 33.472 8.70675 33.472 17.5C33.472 26.2932 26.2932 33.472 17.5 33.472Z" fill="#BAA081"/>
</svg>
