<svg width="16" height="15" viewBox="0 0 16 15" fill="none" xmlns="http://www.w3.org/2000/svg">
<path fill-rule="evenodd" clip-rule="evenodd" d="M15.3577 2.51931C15.3577 2.51931 5.42036 2.51931 4.239 2.51931C3.09238 2.51931 3.47459 3.32409 3.47459 3.32409C3.47459 3.32409 5.38561 8.74762 5.55934 9.20249C5.73307 9.65737 6.39324 9.69236 6.39324 9.69236C6.39324 9.69236 13.9678 8.53767 14.3848 8.39771C14.8365 8.25775 15.0797 7.66291 15.0797 7.66291C15.0797 7.66291 15.8789 3.95392 15.9831 3.35908C16.1221 2.76425 15.3577 2.51931 15.3577 2.51931ZM3.82205 0.804781C3.82205 0.349905 3.47459 0 3.02289 0H0.799156C0.347459 0 0 0.349905 0 0.804781C0 1.22467 0.347459 1.60956 0.799156 1.60956H3.05764C3.47459 1.57457 3.82205 1.22467 3.82205 0.804781ZM6.08053 11.4419C5.24663 11.4419 4.58646 12.1067 4.58646 12.9465C4.58646 13.7862 5.24663 14.4511 6.08053 14.4511C6.91443 14.4511 7.5746 13.7513 7.5746 12.9465C7.5746 12.1417 6.91443 11.4419 6.08053 11.4419ZM13.5162 11.4419C12.6823 11.4419 12.0221 12.1067 12.0221 12.9465C12.0221 13.7862 12.6823 14.4511 13.5162 14.4511C14.3501 14.4511 15.0102 13.7862 15.0102 12.9465C15.0102 12.1067 14.3501 11.4419 13.5162 11.4419Z" fill="#BAA081"/>
</svg>
