<svg width="14" height="15" viewBox="0 0 14 15" fill="none" xmlns="http://www.w3.org/2000/svg">
<path fill-rule="evenodd" clip-rule="evenodd" d="M7.08 7.21311C9 7.21311 10.52 5.61475 10.52 3.60656C10.52 1.59836 9 0 7.08 0C5.16 0 3.64 1.59836 3.64 3.60656C3.64 5.61475 5.2 7.21311 7.08 7.21311ZM7.04 8.52459H7H6.96C1.76 8.52459 0 12.623 0 13.4426C0 14.2623 0.84 14.918 1.4 14.918C1.88 14.918 5.76 15 6.84 15C6.84 15 6.88 15 7 15C7.08 15 7.16 15 7.16 15C8.24 15 12.12 14.918 12.6 14.918C13.16 14.918 14 14.2623 14 13.4426C14 12.623 12.24 8.52459 7.04 8.52459Z" fill="#BAA081"/>
</svg>
