<svg width="14" height="14" viewBox="0 0 14 14" fill="none" xmlns="http://www.w3.org/2000/svg">
<path fill-rule="evenodd" clip-rule="evenodd" d="M7.01877 0C3.15282 0 0 3.15282 0 7.01877C0 10.8847 3.15282 14 7.01877 14C10.8847 14 14 10.8847 14 7.01877C14 3.15282 10.8847 0 7.01877 0ZM10.8097 7.65684H7.01877C6.68096 7.65684 6.3807 7.35657 6.3807 7.01877V3.19035C6.3807 2.85255 6.68096 2.55228 7.01877 2.55228C7.35657 2.55228 7.65684 2.85255 7.65684 3.19035V6.3807H10.8472C11.185 6.3807 11.4853 6.68096 11.4853 7.01877C11.4477 7.35657 11.185 7.65684 10.8097 7.65684Z" fill="#BAA081"/>
</svg>
