<svg width="134" height="62" viewBox="0 0 134 62" fill="none" xmlns="http://www.w3.org/2000/svg">
<path fill-rule="evenodd" clip-rule="evenodd" d="M73.0017 14.0926C69.3766 14.4454 66.7416 16.3457 65.6564 19.3901C65.3474 20.2567 65.3228 20.4327 65.3213 21.7902C65.3193 23.542 65.5226 24.2752 66.3556 25.5196C67.4984 27.2275 69.17 28.3937 72.595 29.8729C74.7258 30.7932 76.1067 31.7222 76.675 32.6177C77.388 33.7414 76.8482 34.7365 75.2316 35.2787C74.595 35.4922 74.2488 35.5114 70.0432 35.5667L65.5368 35.6261V38.1762V40.7264L69.1202 40.7577C72.9177 40.791 74.6834 40.6902 76.2376 40.3512C79.2226 39.7001 81.2362 38.0417 82.091 35.5302L82.2713 35.0001L82.7165 35.7472C84.4917 38.726 87.1902 40.3152 91.0943 40.6813C92.9682 40.857 95.1629 40.6231 96.2942 40.1269L96.756 39.9245L96.2378 39.2402C95.6471 38.4603 95.3101 37.7379 95.0453 36.6843C94.944 36.2813 94.8578 35.9416 94.8539 35.9293C94.8499 35.917 94.4333 35.9819 93.928 36.0735C92.8503 36.2687 91.2583 36.2105 90.3447 35.9422C88.4254 35.3788 87.0628 33.9197 86.5938 31.9254C86.3479 30.8801 86.4315 28.6148 86.7486 27.7288C87.4227 25.8451 88.6047 24.515 90.0603 24.0017C91.2934 23.567 93.179 23.6097 94.9137 24.1118L95.7596 24.3566L96.2032 22.0583C96.4472 20.7942 96.6469 19.7354 96.6469 19.7055C96.6469 19.6757 96.2439 19.5588 95.7511 19.4457C95.0316 19.2806 94.4276 19.2401 92.6835 19.2402C90.754 19.2403 90.4027 19.2687 89.5345 19.4952C86.92 20.1772 84.7598 21.7221 83.2504 23.9892C82.4373 25.2105 82.0181 26.1606 81.6692 27.5735L81.3799 28.7448L81.0304 28.2586C80.1485 27.0311 78.2543 25.8165 75.0925 24.4507C73.4153 23.7264 72.4825 23.1583 71.7163 22.395C71.2386 21.9191 71.0342 21.6266 70.9809 21.3424C70.8254 20.514 71.3595 19.8336 72.4226 19.5054C73.3912 19.2065 74.0882 19.1651 78.4586 19.1472L82.2592 19.1316V16.5814V14.0313L78.0786 14.0183C75.7793 14.0112 73.4946 14.0446 73.0017 14.0926ZM101.642 19.3073C100.287 19.4625 98.4026 19.8496 98.353 19.9829C98.254 20.249 97.486 24.4012 97.528 24.4432C97.5524 24.4676 98.0185 24.3718 98.5636 24.2303C100.769 23.6579 103.853 23.4009 105.863 23.6218C107.898 23.8453 108.5 24.3386 108.756 25.9929C108.795 26.2453 108.795 26.5993 108.755 26.7796C108.684 27.1012 108.67 27.1075 108.013 27.1079C105.958 27.1091 102.813 27.6268 101.219 28.2262C99.6267 28.8249 98.3748 29.8074 97.52 31.1292C96.8894 32.1041 96.6305 33.0024 96.5679 34.4324C96.4814 36.4063 96.9171 37.6124 98.1553 38.8273C99.4719 40.1192 100.957 40.6721 103.111 40.6721C104.961 40.6721 106.797 40.2804 108.128 39.6019C108.378 39.4743 108.609 39.3699 108.641 39.3699C108.674 39.3699 108.7 39.5652 108.7 39.804V40.238H111.202H113.704L113.669 32.3977C113.63 23.8425 113.65 24.1179 112.987 22.7174C112.096 20.8352 110.225 19.723 107.234 19.2981C106.329 19.1696 102.793 19.1754 101.642 19.3073ZM124.445 19.3551C123.475 19.564 122.638 19.889 121.78 20.3898C121.381 20.6229 121.036 20.8136 121.013 20.8136C120.989 20.8136 120.97 20.5938 120.97 20.3253V19.8369H118.201H115.432V30.0375V40.238H118.184H120.935L121.007 35.6626C121.047 33.1461 121.079 29.8068 121.079 28.2421V25.397L121.432 25.1309C122.887 24.0333 124.734 23.5166 126.444 23.7288C127.536 23.8643 128.019 24.1187 128.327 24.7223L128.571 25.2003V32.7192V40.238H131.286H134.001L134 33.4286C134 29.4294 133.952 26.1064 133.884 25.3766C133.621 22.5753 132.706 21.0929 130.594 20.0492C129.415 19.4663 128.039 19.1865 126.4 19.1959C125.713 19.1998 124.833 19.2715 124.445 19.3551ZM108.54 31.1498C108.568 31.2244 108.554 32.14 108.509 33.1845L108.429 35.0835L107.756 35.4391C106.716 35.9886 105.603 36.2365 104.085 36.2567C102.951 36.2718 102.715 36.2432 102.263 36.036C101.604 35.7343 101.368 35.2545 101.474 34.4368C101.726 32.4873 103.466 31.4185 106.854 31.1318C108.393 31.0016 108.485 31.0025 108.54 31.1498ZM0.113281 56.8411V61.7243H0.656215H1.19915V61.2682V60.8121L1.60635 61.2076C2.1153 61.7016 2.45984 61.8332 3.24221 61.8318C4.38563 61.8298 5.38886 61.1375 5.90563 59.9936C6.2113 59.3172 6.28785 57.5445 6.04733 56.7174C5.68346 55.4666 4.80836 54.6509 3.66211 54.4939C2.96303 54.398 2.48416 54.516 1.85566 54.9387L1.30774 55.3072V53.6325V51.9578H0.710509H0.113281V56.8411ZM23.8938 52.6089V53.26H24.491H25.0882V52.6089V51.9578H24.491H23.8938V52.6089ZM116.301 52.6089V53.26H116.898H117.496V52.6089V51.9578H116.898H116.301V52.6089ZM80.0874 52.4997L79.5445 52.8162L79.4902 53.7163L79.4359 54.6165L79.0287 54.6501C78.6328 54.6829 78.6215 54.6957 78.6215 55.1113C78.6215 55.5378 78.6226 55.5389 79.0559 55.5389H79.4902L79.4963 58.0619C79.503 60.8108 79.563 61.177 80.0682 61.5514C80.3093 61.73 80.5337 61.7786 81.1179 61.7786C81.5267 61.7786 81.8954 61.7442 81.9374 61.7022C81.9795 61.6602 81.9815 61.4102 81.942 61.1465C81.871 60.6732 81.8648 60.6674 81.4542 60.6781C80.6864 60.6982 80.6847 60.6922 80.6847 57.9673V55.5389H81.2819H81.8791V55.1048V54.6708H81.2854H80.6915L80.661 53.4269L80.6304 52.1831L80.0874 52.4997ZM112.695 52.5024L112.184 52.8209L112.152 53.7186L112.121 54.6165L111.659 54.6498C111.2 54.6831 111.198 54.6853 111.198 55.111V55.5389H111.686H112.175V58.2626V60.9864L112.53 61.3417C112.931 61.7426 113.537 61.897 114.241 61.778C114.675 61.7048 114.678 61.7009 114.613 61.3073C114.506 60.6621 114.488 60.6381 114.157 60.7043C113.943 60.7469 113.768 60.6998 113.582 60.5494L113.315 60.3331L113.282 57.936L113.249 55.5389H113.906H114.564V55.1102V54.6816L113.939 54.649L113.315 54.6165L113.261 53.4002L113.206 52.1839L112.695 52.5024ZM17.7284 54.6132C16.6955 54.9355 16.0878 55.7939 16.216 56.7494C16.3422 57.6893 16.8925 58.0969 18.704 58.5923C19.5268 58.8174 20.145 59.0518 20.3331 59.2099C20.7386 59.5508 20.7337 59.9841 20.3193 60.4475C20.0059 60.7981 19.9919 60.8019 19.0235 60.8019C18.0879 60.8019 18.0296 60.7877 17.711 60.4828C17.5277 60.3072 17.3186 60.0005 17.2465 59.8013C17.118 59.4459 17.106 59.4404 16.6226 59.5104C16.3516 59.5496 16.0942 59.6021 16.0507 59.627C15.9269 59.6981 16.3642 60.7482 16.6409 61.0447C17.1854 61.6278 17.6605 61.7786 18.9531 61.7786C19.9771 61.7786 20.2115 61.7444 20.5954 61.5392C21.4522 61.0812 21.9027 60.2689 21.801 59.3659C21.6921 58.4008 21.2448 58.0768 19.2085 57.4875C18.4337 57.2634 17.7051 56.9943 17.5892 56.8895C17.282 56.6116 17.3149 56.0705 17.6588 55.7477C17.9062 55.5153 18.0387 55.4846 18.7918 55.4846C19.5821 55.4846 19.6683 55.5074 19.9687 55.795C20.147 55.9656 20.3203 56.2144 20.3537 56.3478C20.4093 56.569 20.4579 56.5838 20.9066 56.5158C21.1771 56.4746 21.4302 56.4093 21.469 56.3706C21.62 56.2196 21.2684 55.4359 20.9079 55.1196C20.2161 54.5125 18.7826 54.2842 17.7284 54.6132ZM29.949 54.5553C29.5133 54.6959 28.9123 55.0888 28.7258 55.3549C28.5702 55.577 28.563 55.5671 28.563 55.129V54.6708H28.0201H27.4771V58.1975V61.7243H28.0744H28.6716V59.3057C28.6716 57.0115 28.6842 56.8625 28.9159 56.4092C29.3468 55.5663 30.6507 55.1963 31.3596 55.7157C31.9875 56.1758 32.0375 56.4326 32.0376 59.2013L32.0378 61.7243H32.6444H33.2509L33.2144 58.8758C33.1785 56.0674 33.1742 56.0204 32.9051 55.5403C32.5337 54.8773 31.9127 54.5427 30.9658 54.4954C30.57 54.4755 30.1124 54.5026 29.949 54.5553ZM37.4053 54.6444C36.0036 55.1454 35.2805 56.3297 35.2669 58.1463C35.2577 59.3799 35.5079 60.1642 36.1316 60.8575C36.7563 61.5519 37.4811 61.8328 38.6483 61.8328C40.0664 61.8328 41.0274 61.2135 41.5751 59.9469C41.6494 59.775 41.6962 59.6225 41.6789 59.6078C41.6617 59.5932 41.379 59.5502 41.0505 59.5124L40.4533 59.4437L40.2528 59.8818C39.9569 60.5283 39.4112 60.8562 38.631 60.8562C38.2836 60.8562 37.8674 60.7873 37.706 60.7031C37.0467 60.3589 36.4899 59.4866 36.4899 58.7979V58.4688H39.0959H41.702V57.9063C41.702 56.5669 41.0748 55.3883 40.0719 54.8431C39.3165 54.4325 38.2257 54.3512 37.4053 54.6444ZM44.9831 54.6518C44.0172 54.9972 43.548 55.6078 43.548 56.5192C43.548 57.0043 43.6681 57.301 44.0231 57.6924C44.3579 58.0617 44.6616 58.1946 46.1638 58.6295C47.5142 59.0205 48.0001 59.3112 48.0001 59.7282C48.0001 60.0361 47.6695 60.5275 47.3521 60.6916C46.9284 60.9106 45.8014 60.9051 45.3307 60.6819C44.9492 60.5009 44.5253 59.938 44.5253 59.6124C44.5253 59.4491 44.4523 59.435 43.9552 59.5018C43.6417 59.544 43.368 59.5943 43.3469 59.6135C43.3259 59.6327 43.3897 59.892 43.4886 60.1897C43.7168 60.8766 44.3914 61.5198 45.0878 61.7146C45.8608 61.9309 47.2848 61.8343 47.9215 61.5222C48.8629 61.061 49.3471 60.0686 49.0898 59.1275C48.8848 58.3777 48.486 58.0899 47.0378 57.6469C45.1596 57.0726 45.056 57.0289 44.8195 56.7123C44.6251 56.4519 44.617 56.3839 44.7452 56.0751C44.923 55.6458 45.4023 55.4303 46.1777 55.4308C46.8827 55.4312 47.409 55.7228 47.6212 56.2302C47.7689 56.5836 47.7827 56.5896 48.2672 56.5162C48.5395 56.4749 48.7933 56.4102 48.8312 56.3722C48.9417 56.2617 48.56 55.3757 48.2944 55.1263C47.646 54.5175 46.0127 54.2833 44.9831 54.6518ZM52.367 54.6518C52.0513 54.7646 51.6754 54.9674 51.5315 55.1025C50.5963 55.9807 50.7941 57.5081 51.919 58.0932C52.0736 58.1736 52.8065 58.4149 53.5478 58.6295C55.2893 59.1337 55.6158 59.4422 55.2192 60.2087C54.9876 60.6562 54.5339 60.8562 53.7498 60.8562C52.7198 60.8562 52.1497 60.497 51.9561 59.726C51.8874 59.4523 51.8629 59.4441 51.3268 59.5123C51.0201 59.5514 50.7498 59.6001 50.7262 59.6205C50.7027 59.6409 50.7708 59.8907 50.8776 60.1756C51.1616 60.9327 51.8573 61.5644 52.5872 61.7276C53.4544 61.9215 54.6772 61.8273 55.3123 61.5177C56.3211 61.0259 56.7937 59.9317 56.42 58.9538C56.1644 58.2847 55.8622 58.0874 54.4161 57.6452C52.5443 57.0729 52.4398 57.0288 52.2034 56.7123C51.7359 56.0865 52.4279 55.4299 53.5544 55.4308C54.2592 55.4312 54.7702 55.7087 55.0164 56.2246C55.1833 56.5742 55.2049 56.5839 55.6676 56.5137C56.2446 56.4262 56.2972 56.382 56.2145 56.0529C56.0918 55.5643 55.6525 55.0493 55.1425 54.7963C54.4199 54.438 53.1496 54.3718 52.367 54.6518ZM64.8021 54.5657C64.1863 54.7199 63.5876 55.0569 63.2795 55.4229C63.0064 55.7471 62.6993 56.4833 62.7966 56.5804C62.8243 56.6081 63.0857 56.6564 63.3775 56.6878L63.908 56.7446L64.1252 56.2773C64.4019 55.6822 64.8785 55.4308 65.7303 55.4306C66.8503 55.4303 67.3539 55.7925 67.4994 56.7031C67.5683 57.1343 67.5544 57.1687 67.2675 57.2778C67.0996 57.3415 66.3268 57.4896 65.5503 57.6069C64.4613 57.7713 64.0132 57.8907 63.5915 58.1287C62.6732 58.6472 62.3182 59.656 62.7177 60.6116C63.0765 61.4695 63.7126 61.8271 64.8853 61.8298C65.8493 61.8321 66.3085 61.7028 67.0081 61.2324C67.3157 61.0255 67.5807 60.8562 67.597 60.8562C67.6132 60.8562 67.6577 61.0515 67.696 61.2903L67.7654 61.7243H68.4101H69.0548L68.8853 61.3189C68.7555 61.0086 68.6996 60.2982 68.6465 58.2883C68.5674 55.287 68.5609 55.2653 67.6 54.7846C67.1815 54.5752 66.8708 54.5126 66.1397 54.4909C65.6289 54.4757 65.0271 54.5094 64.8021 54.5657ZM85.6254 54.5555C84.6562 54.7924 83.7719 55.5846 83.4537 56.5011C83.068 57.6122 83.1437 59.279 83.6226 60.217C83.8858 60.7326 84.3971 61.2382 84.9593 61.5387C85.3366 61.7403 85.5813 61.7786 86.4941 61.7786C87.4933 61.7786 87.6261 61.7531 88.158 61.4586C89.3373 60.8057 89.7357 59.9722 89.743 58.1433C89.7472 57.0578 89.7144 56.8208 89.4907 56.3225C88.8654 54.9295 87.2037 54.1698 85.6254 54.5555ZM94.1728 54.5836C93.9766 54.65 93.5979 54.8962 93.3312 55.1309L92.8464 55.5573V55.114V54.6708H92.3035H91.7605V58.1975V61.7243H92.3473H92.934L92.9763 59.3098C93.0094 57.4104 93.0552 56.8124 93.1907 56.5066C93.6891 55.3821 95.3228 55.1164 95.8052 56.0815C95.9703 56.4117 95.9951 56.8048 95.9952 59.0928L95.9954 61.7243H96.5855H97.1754L97.2098 59.2013C97.2412 56.8949 97.2632 56.6461 97.4651 56.3023C98.0752 55.2647 99.7628 55.2079 100.114 56.2133C100.184 56.4157 100.23 57.5704 100.23 59.1361V61.7243H100.834H101.438L101.404 58.8215C101.372 56.0651 101.358 55.896 101.129 55.4685C100.825 54.8991 100.285 54.5632 99.5536 54.4884C98.7281 54.4039 98.1196 54.605 97.528 55.158L97.0232 55.6299L96.782 55.2623C96.6493 55.0601 96.3837 54.8134 96.1916 54.7142C95.7622 54.4922 94.6543 54.4205 94.1728 54.5836ZM105.497 54.612C105.198 54.6988 104.919 54.7719 104.876 54.7745C104.691 54.7859 104 55.4986 103.807 55.8769C103.518 56.4441 103.541 56.5857 103.936 56.6647C104.545 56.7865 104.658 56.7459 104.863 56.3327C104.973 56.1127 105.191 55.8387 105.349 55.7239C105.916 55.3095 107.318 55.3485 107.877 55.7944C108.139 56.0031 108.199 56.1438 108.241 56.6493L108.291 57.2545L107.708 57.3708C107.388 57.4346 106.654 57.5606 106.078 57.6506C104.913 57.8329 104.583 57.9365 104.123 58.2636C103.265 58.8739 103.123 60.3783 103.848 61.1689C104.682 62.0777 106.781 62.0598 107.996 61.1336L108.365 60.8523L108.482 61.2883L108.6 61.7243H109.205C109.736 61.7243 109.8 61.7013 109.736 61.5344C109.535 61.0155 109.46 60.0952 109.46 58.1514C109.46 56.1558 109.445 55.9878 109.216 55.5348C108.866 54.8419 108.234 54.5473 106.985 54.4944C106.368 54.4684 105.851 54.5093 105.497 54.612ZM121.607 54.6168C120.914 54.8396 120.083 55.6121 119.771 56.3225C119.402 57.1649 119.348 58.6364 119.65 59.6311C120.075 61.0292 121.008 61.7411 122.51 61.8145C123.581 61.8667 124.312 61.6346 124.962 61.0361C125.583 60.464 125.83 59.9629 125.986 58.9599C126.287 57.0237 125.64 55.4992 124.207 54.7684C123.616 54.4672 122.309 54.3909 121.607 54.6168ZM130.364 54.6208C130.126 54.7116 129.747 54.9652 129.523 55.1844L129.114 55.5829V55.1269V54.6708H128.571H128.029V58.1975V61.7243H128.626H129.223V59.4936C129.223 56.9188 129.306 56.4386 129.832 55.9774C130.466 55.4209 131.199 55.3341 131.973 55.7241C132.526 56.0024 132.589 56.3583 132.589 59.1707V61.7243H133.186H133.784L133.783 59.0928C133.782 56.3763 133.718 55.8413 133.328 55.2922C132.837 54.6015 131.318 54.2574 130.364 54.6208ZM8.25729 57.1613C8.25729 60.117 8.34014 60.6383 8.89882 61.1969C9.81453 62.1127 11.6188 62.05 12.5736 61.069L12.9265 60.7064V61.2154V61.7243H13.4695H14.0124V58.1975V54.6708H13.4225H12.8326L12.7982 57.1395C12.7653 59.4919 12.7519 59.627 12.5152 60.0075C12.0398 60.7715 10.8564 61.0827 10.1239 60.6363C9.50951 60.2621 9.45174 59.964 9.45174 57.1701V54.6708H8.85452H8.25729V57.1613ZM23.8938 58.1975V61.7243H24.491H25.0882V58.1975V54.6708H24.491H23.8938V58.1975ZM71.1497 57.5736C71.1827 60.422 71.1882 60.4843 71.4444 60.896C71.8043 61.4746 72.5836 61.8304 73.4943 61.8318C74.311 61.8331 74.7553 61.6641 75.352 61.1254L75.7983 60.7224V61.2234V61.7243H76.2869H76.7756V58.1975V54.6708H76.2468H75.718L75.6663 57.031C75.6082 59.6826 75.5415 59.9759 74.8822 60.4785C74.1006 61.0742 72.8584 60.9126 72.4599 60.1633C72.3114 59.8841 72.2723 59.3769 72.2351 57.248L72.19 54.6708H71.6531H71.1161L71.1497 57.5736ZM116.301 58.1975V61.7243H116.898H117.496V58.1975V54.6708H116.898H116.301V58.1975ZM4.11959 55.7478C4.30777 55.8817 4.57055 56.1946 4.70357 56.4433C4.91336 56.8355 4.94539 57.0605 4.94539 58.1433C4.94539 59.3083 4.92563 59.4249 4.64776 59.8972C4.25793 60.56 3.77222 60.8562 3.07553 60.8562C2.0192 60.8562 1.35465 60.048 1.23477 58.6175C1.11662 57.2074 1.57388 56.0337 2.40663 55.6099C2.8905 55.3635 3.66754 55.4261 4.11959 55.7478ZM39.4169 55.6449C39.6483 55.763 39.934 55.9949 40.0517 56.1604C40.236 56.4194 40.5051 57.1586 40.5069 57.4108C40.5072 57.4556 39.6036 57.4922 38.4987 57.4922C37.3938 57.4922 36.4902 57.4556 36.4905 57.4108C36.4951 56.7948 37.1465 55.8386 37.7365 55.5816C38.2166 55.3725 38.9358 55.3997 39.4169 55.6449ZM87.6146 55.7842C89.0364 56.7246 88.9028 59.9256 87.4096 60.6973C87.2404 60.7847 86.8137 60.8562 86.4615 60.8562C85.2792 60.8562 84.5526 60.0372 84.4134 58.5477C84.3353 57.7116 84.513 56.8133 84.8606 56.2871C85.4315 55.4227 86.7137 55.1886 87.6146 55.7842ZM123.498 55.5798C124.535 56.0231 125.062 57.4174 124.772 58.9528C124.531 60.2264 123.839 60.8562 122.68 60.8562C121.746 60.8562 121.026 60.2362 120.74 59.1849C120.565 58.5384 120.678 57.0881 120.945 56.5646C121.444 55.5887 122.535 55.1678 123.498 55.5798ZM67.4909 58.8215C67.3628 59.9644 66.952 60.5349 66.0364 60.8412C64.8637 61.2336 63.8537 60.7517 63.8537 59.7997C63.8537 59.172 64.1971 58.8478 65.0308 58.6878C65.3688 58.623 66.0363 58.4797 66.5141 58.3693C66.9919 58.259 67.4243 58.1629 67.4749 58.156C67.5256 58.149 67.5327 58.4485 67.4909 58.8215ZM108.266 58.7773C108.266 59.6921 107.932 60.2755 107.187 60.6648C106.193 61.1836 105.072 61.007 104.723 60.2768C104.364 59.525 104.806 58.8942 105.833 58.6898C106.186 58.6197 106.841 58.4751 107.288 58.3686C107.736 58.262 108.139 58.1678 108.184 58.1591C108.229 58.1504 108.266 58.4286 108.266 58.7773Z" fill="#59575C"/>
<path fill-rule="evenodd" clip-rule="evenodd" d="M31.2751 0.77735C29.6079 1.13936 28.3096 2.33413 27.8509 3.92867C27.5625 4.93136 27.6624 6.23877 28.0987 7.1705C28.5524 8.13933 29.3801 9.00269 30.2796 9.44522C30.8951 9.74809 31.1225 9.79844 32.0389 9.83523C33.7851 9.90533 34.8219 9.45314 35.8635 8.16711C36.9972 6.76757 37.2272 4.89881 36.4671 3.26336C36.1418 2.56364 35.0548 1.49454 34.3155 1.14728C33.7179 0.866659 32.675 0.62152 32.151 0.638666C31.9977 0.643658 31.6036 0.706055 31.2751 0.77735ZM33.9056 4.70608L35.4075 7.30332L32.3476 7.33218C30.6647 7.34803 29.2669 7.34011 29.2414 7.31461C29.1607 7.23398 32.1931 2.04254 32.301 2.07651C32.3576 2.09431 33.0797 3.27757 33.9056 4.70608ZM46.6674 7.61411L43.2199 8.82255L43.2197 11.3998L43.2196 13.9771H41.1565H39.0933V16.9046V19.8322L41.1293 19.8617L43.1653 19.8912L43.223 26.6193L43.2808 33.3473L43.6168 34.599C44.0239 36.1148 44.4122 36.9099 45.2753 37.9954C46.3349 39.3279 47.318 40.0022 48.8836 40.4702C49.598 40.6838 49.9869 40.7132 52.6395 40.7537L55.5985 40.7988V37.7513V34.7038H54.0434C52.1391 34.7038 51.6618 34.5725 51.053 33.8812C50.2557 32.9762 50.2453 32.8745 50.2337 25.9682L50.2235 19.8912L52.911 19.8623L55.5985 19.8332V16.9052V13.9771H52.8853H50.172L50.1435 10.1914L50.1149 6.40567L46.6674 7.61411ZM32.551 12.7105L28.9948 14.027V27.0783V40.1296H32.6867H36.3787V25.7511C36.3787 14.315 36.3509 11.3749 36.2429 11.3833C36.1683 11.3892 34.5069 11.9865 32.551 12.7105Z" fill="#0D9DE6"/>
<path fill-rule="evenodd" clip-rule="evenodd" d="M42.1354 0.101247C40.5467 0.186867 37.782 0.494294 36.3158 0.748332L35.6539 0.862925L36.2759 1.48451C37.3177 2.52562 37.7883 3.7015 37.7906 5.26859C37.7913 5.76104 37.8188 6.16385 37.8516 6.16385C37.8845 6.16385 38.4586 6.01876 39.1275 5.84145C51.0768 2.67418 63.8108 4.35162 72.8508 10.2837C73.5657 10.7528 73.948 10.9372 74.1987 10.9334L74.5485 10.9283L73.7884 10.2215C71.4549 8.0516 68.3415 5.97471 65.0455 4.38917C59.7902 1.86117 54.03 0.440687 47.619 0.0918064C45.3309 -0.0327706 44.5953 -0.0314684 42.1354 0.101247ZM25.4673 3.7117C20.5288 5.59881 16.2638 7.92898 11.9965 11.0714L10.6874 12.0355L10.8289 13.5217C11.0561 15.9067 11.4899 18.859 11.9552 21.187C12.3613 23.2184 12.4392 23.5212 12.5262 23.409C12.5456 23.3841 12.7997 23.0463 13.0909 22.6584C15.3132 19.6978 18.6932 16.3944 21.9382 14.0111C23.8894 12.578 26.1872 11.1308 28.0985 10.1309L28.8836 9.72016L28.28 9.0543C27.1133 7.76729 26.5876 6.13607 26.8143 4.50626C26.8761 4.06243 26.9758 3.5702 27.0358 3.4123C27.0959 3.25452 27.1096 3.12658 27.0662 3.1281C27.0229 3.12962 26.3034 3.39223 25.4673 3.7117ZM8.58205 13.4988C5.62143 16.1143 2.63888 19.4822 0.517199 22.6058L0 23.3673L0.321525 24.5114C0.868803 26.4593 1.82317 28.7688 2.84421 30.6164C5.99746 36.3223 11.01 41.0603 17.1525 44.1406C19.6411 45.3887 22.7006 46.5101 25.5759 47.228C33.5625 49.2223 42.4156 49.0024 50.951 46.5979C53.6211 45.8456 57.088 44.5415 59.455 43.3989L60.5408 42.8748L59.835 42.7726C59.1686 42.6761 59.0595 42.6937 57.8804 43.0872C55.1324 44.0042 51.5128 44.7994 48.2705 45.1981C46.0879 45.4665 40.6275 45.465 38.4434 45.1953C32.3679 44.4451 27.1191 42.6129 22.7268 39.7087C16.6183 35.6699 12.8519 30.4018 11.0205 23.3353C10.3847 20.882 10.0879 19.1139 9.36203 13.4532L9.28786 12.8753L8.58205 13.4988Z" fill="#0F63A9"/>
<path fill-rule="evenodd" clip-rule="evenodd" d="M33.908 4.70603L35.4099 7.30327L32.35 7.33213C30.6671 7.34798 29.2693 7.34006 29.2438 7.31455C29.1631 7.23393 32.1955 2.04249 32.3034 2.07646C32.36 2.09426 33.0821 3.27752 33.908 4.70603Z" fill="white"/>
</svg>
