<svg width="52" height="50" viewBox="0 0 52 50" fill="none" xmlns="http://www.w3.org/2000/svg">
<path fill-rule="evenodd" clip-rule="evenodd" d="M25.5769 6.82841C26.3508 6.82841 27.099 6.88001 27.8471 6.9574V0.224283C27.099 0.172688 26.3508 0.121094 25.5769 0.121094C11.4916 0.121094 0.0117188 11.2398 0.0117188 24.8608C0.0117188 38.4818 11.4916 49.6005 25.5769 49.6005C26.6088 49.6005 27.6407 49.5489 28.6468 49.4199V42.661C27.6407 42.8157 26.6088 42.9189 25.5769 42.9189C15.3096 42.9189 6.92542 34.8186 6.92542 24.8608C6.92542 14.9288 15.3096 6.82841 25.5769 6.82841ZM37.6759 10.956C38.4498 11.5493 44.0994 15.9091 44.2284 24.577L44.1768 26.1506L50.3424 31.2585L50.652 29.7881C50.8584 28.6014 51.1421 26.2796 51.1421 24.8866C51.1421 12.994 42.371 3.0104 30.788 0.662838L39.3011 10.956H37.6759Z" fill="#2F8A39"/>
<path fill-rule="evenodd" clip-rule="evenodd" d="M29.1367 31.6708V0.275391L36.8759 9.94941H31.9744L43.0157 20.7327L35.715 20.7585L48.8459 31.6708H29.1367Z" fill="#2F8A39"/>
<path fill-rule="evenodd" clip-rule="evenodd" d="M23.2812 38.0695C23.2812 37.9663 23.2812 37.8373 23.2554 37.7599C23.2296 37.6567 23.2038 37.5793 23.178 37.4761C23.1006 37.3213 23.0233 37.1924 22.9201 37.0634C22.8169 36.9602 22.6879 36.857 22.5331 36.7796C22.4041 36.7022 22.2493 36.6248 22.0945 36.5732C21.8624 36.47 21.6818 36.3926 21.527 36.341C21.3722 36.2637 21.269 36.2121 21.1916 36.1347C21.14 36.1089 21.1142 36.0573 21.0885 36.0057C21.0627 35.9541 21.0627 35.9283 21.0627 35.8767C21.0627 35.8251 21.0885 35.7735 21.0885 35.7219C21.1142 35.6703 21.1658 35.6187 21.2174 35.5929C21.269 35.5671 21.3464 35.5413 21.4238 35.5413C21.5012 35.5413 21.5528 35.5413 21.6302 35.5671C21.6818 35.5929 21.7334 35.5929 21.785 35.6445C21.8366 35.6703 21.8624 35.7477 21.8882 35.7993C21.914 35.8767 21.914 35.9541 21.9398 36.0831H23.2554C23.2554 35.9025 23.2296 35.7219 23.2038 35.5929C23.178 35.4381 23.1264 35.335 23.0491 35.206C22.9717 35.1028 22.8943 34.9996 22.8169 34.8964C22.6621 34.7158 22.4557 34.6126 22.2235 34.5352C21.9914 34.4578 21.7592 34.4063 21.4754 34.432C21.1916 34.432 20.9337 34.4836 20.7015 34.561C20.4693 34.6384 20.2629 34.7674 20.1082 34.9222C19.9792 35.0512 19.876 35.206 19.7986 35.3865C19.7212 35.5671 19.6954 35.7477 19.6954 35.9799C19.6954 36.1089 19.6954 36.2121 19.7212 36.3153C19.747 36.4184 19.7728 36.5216 19.7986 36.599C19.876 36.728 19.9534 36.857 20.0566 36.9602C20.1597 37.0634 20.2887 37.1408 20.4177 37.1924C20.5467 37.2698 20.6757 37.3213 20.8305 37.3729C21.0369 37.4503 21.2432 37.5277 21.398 37.6051C21.5528 37.6825 21.6818 37.7599 21.7592 37.8115C21.8108 37.8631 21.8366 37.8889 21.8624 37.9663C21.8882 38.0179 21.8882 38.0695 21.8882 38.1211C21.8882 38.1985 21.8624 38.2501 21.8366 38.3016C21.8108 38.3532 21.7592 38.4048 21.6818 38.4306C21.6044 38.4564 21.527 38.4822 21.4238 38.4822C21.3464 38.4822 21.2948 38.4822 21.2174 38.4564C21.1658 38.4306 21.0885 38.4048 21.0627 38.379C21.0111 38.3274 20.9853 38.2758 20.9337 38.1985C20.9079 38.1211 20.8821 37.9921 20.8821 37.8631H19.5664C19.5664 38.0695 19.5922 38.2759 19.6438 38.4306C19.6954 38.5854 19.747 38.7402 19.8244 38.8692C19.9018 38.9982 19.9792 39.1014 20.0824 39.2046C20.2371 39.3593 20.4435 39.4625 20.6499 39.5399C20.8821 39.6173 21.1142 39.6431 21.398 39.6431C21.7076 39.6431 22.0172 39.5915 22.2493 39.5141C22.5073 39.4367 22.7137 39.3077 22.8685 39.153C22.9975 39.024 23.1006 38.8692 23.1522 38.6886C23.2296 38.4822 23.2812 38.3016 23.2812 38.0695ZM27.77 36.0831C27.77 35.7735 27.6926 35.4897 27.5378 35.2576C27.383 35.0254 27.1766 34.8448 26.8929 34.69C26.6091 34.561 26.2737 34.4836 25.8868 34.4836H23.9778V39.5141H25.3192V37.6567H25.861C26.2479 37.6567 26.5833 37.5793 26.8671 37.4503C27.1508 37.3213 27.3572 37.1408 27.512 36.9086C27.6926 36.7022 27.77 36.4184 27.77 36.0831ZM26.3769 36.0831C26.3769 36.2121 26.3253 36.3153 26.2479 36.3926C26.1705 36.47 26.0415 36.4958 25.8868 36.5216H25.345V35.6703H25.8868C26.0415 35.6703 26.1447 35.7219 26.2479 35.7993C26.3253 35.8767 26.3769 35.9541 26.3769 36.0831ZM31.8718 39.5399V38.379H29.7564V37.5277H31.5106V36.3668H29.7564V35.6703H31.8202V34.5094H28.4149V39.5399H31.8718ZM35.9477 35.6703V34.5094H32.2071V35.6703H33.4196V39.5399H34.7611V35.6703H35.9477ZM39.6368 38.0695C39.6368 38.3016 39.611 38.4822 39.5336 38.6628C39.4562 38.8434 39.3788 38.9982 39.2498 39.1272C39.095 39.2819 38.8886 39.4109 38.6307 39.4883C38.3727 39.5657 38.0889 39.6173 37.7794 39.6173C37.4956 39.6173 37.2634 39.5915 37.0312 39.5141C36.7991 39.4367 36.6185 39.3335 36.4637 39.1788C36.3605 39.0756 36.2573 38.9724 36.2057 38.8434C36.1283 38.7144 36.0767 38.5854 36.0251 38.4048C35.9735 38.2501 35.9477 38.0437 35.9477 37.8373H37.2634C37.2634 37.9663 37.2892 38.0953 37.315 38.1727C37.3408 38.2501 37.3924 38.3274 37.444 38.3532C37.4956 38.4048 37.5472 38.4306 37.5988 38.4306C37.6504 38.4564 37.7278 38.4564 37.8052 38.4564C37.9083 38.4564 38.0115 38.4306 38.0631 38.4048C38.1405 38.379 38.1921 38.3274 38.2179 38.2758C38.2437 38.2243 38.2695 38.1469 38.2695 38.0953C38.2695 38.0437 38.2695 37.9921 38.2437 37.9405C38.2179 37.8889 38.1921 37.8373 38.1405 37.7857C38.0631 37.7083 37.9341 37.6309 37.7794 37.5793C37.6246 37.5019 37.444 37.4245 37.2118 37.3471C37.057 37.2955 36.928 37.244 36.7991 37.1666C36.6701 37.0892 36.5411 37.0118 36.4379 36.9344C36.3347 36.8312 36.2573 36.728 36.1799 36.5732C36.1541 36.4958 36.1025 36.3926 36.1025 36.2895C36.0767 36.1863 36.0767 36.0831 36.0767 35.9541C36.0767 35.7477 36.1025 35.5413 36.1799 35.3608C36.2573 35.1802 36.3605 35.0254 36.4895 34.8964C36.6443 34.7416 36.8506 34.6126 37.0828 34.5352C37.315 34.4578 37.573 34.4062 37.8567 34.4062C38.1147 34.4062 38.3727 34.432 38.6049 34.5094C38.837 34.5868 39.0176 34.7158 39.1982 34.8706C39.2756 34.9738 39.353 35.0512 39.4304 35.1802C39.5078 35.2834 39.5594 35.4123 39.5852 35.5671C39.611 35.7219 39.6368 35.8767 39.6368 36.0573H38.3211C38.3211 35.9283 38.2953 35.8509 38.2695 35.7735C38.2437 35.6961 38.2179 35.6445 38.1663 35.6187C38.1147 35.5929 38.0631 35.5671 38.0115 35.5413C37.9599 35.5413 37.8825 35.5155 37.8052 35.5155C37.7278 35.5155 37.6504 35.5413 37.5988 35.5671C37.5472 35.5929 37.4956 35.6445 37.4698 35.6961C37.444 35.7477 37.444 35.7993 37.444 35.8509C37.444 35.9025 37.444 35.9541 37.4698 35.9799C37.4956 36.0315 37.5214 36.0573 37.573 36.1089C37.6504 36.1605 37.7536 36.2379 37.9083 36.3153C38.0631 36.3926 38.2437 36.47 38.4759 36.5474C38.6307 36.599 38.7855 36.6764 38.9144 36.7538C39.0692 36.8312 39.1982 36.9344 39.3014 37.0376C39.4046 37.1408 39.5078 37.2956 39.5594 37.4503C39.5852 37.5277 39.611 37.6309 39.6368 37.7341C39.6368 37.8631 39.6368 37.9663 39.6368 38.0695ZM42.0101 38.1211H40.3333V39.5399H42.0101V38.1211ZM46.8084 39.5399L45.5444 37.4245C45.8023 37.2955 45.9829 37.115 46.1119 36.8828C46.2409 36.6506 46.3183 36.3926 46.3183 36.0831C46.3183 35.8509 46.2667 35.6187 46.1893 35.4381C46.1119 35.2576 45.9829 35.077 45.8281 34.948C45.6733 34.819 45.4928 34.7158 45.2864 34.6384C45.08 34.561 44.8478 34.5352 44.5899 34.5352H42.8614V39.5657H44.2029V37.6825H44.2287L45.2606 39.5657H46.8084V39.5399ZM44.9252 36.0831C44.9252 36.1605 44.9252 36.2121 44.8994 36.2895C44.8736 36.3411 44.822 36.3926 44.7704 36.4442C44.7188 36.47 44.6157 36.4958 44.5125 36.4958H44.1771V35.6961H44.5125C44.6157 35.6961 44.7188 35.7219 44.7704 35.7477C44.822 35.7735 44.8736 35.8251 44.8994 35.9025C44.9252 35.9283 44.9252 36.0057 44.9252 36.0831ZM50.7554 37.9405V34.5094H49.4398V37.9147C49.4398 38.0695 49.3882 38.1727 49.285 38.2758C49.1818 38.3532 49.0528 38.4048 48.898 38.4048C48.7174 38.4048 48.5885 38.3532 48.5111 38.2758C48.4079 38.1985 48.3821 38.0695 48.3821 37.9147V34.5094H47.0148V37.9405C47.0148 38.1985 47.0664 38.4306 47.1438 38.6628C47.247 38.8692 47.3502 39.0498 47.5308 39.2046C47.6855 39.3593 47.8919 39.4625 48.1241 39.5399C48.3563 39.6173 48.5885 39.6431 48.8722 39.6431C49.156 39.6431 49.3882 39.5915 49.6203 39.5399C49.8525 39.4625 50.0331 39.3593 50.2137 39.2046C50.3685 39.0498 50.4975 38.8692 50.6006 38.6628C50.7038 38.4306 50.7554 38.1985 50.7554 37.9405Z" fill="#2F8A39"/>
<path fill-rule="evenodd" clip-rule="evenodd" d="M27.0733 11.3691C22.1976 11.1627 17.8378 12.3752 14.8453 15.2903V17.6378C12.3946 20.295 10.8983 23.8034 10.8983 27.6472V29.8142L4.52637 32.8067C4.52637 32.8067 6.74494 33.2453 9.29888 32.9873C11.3627 32.4197 13.2201 31.1815 15.2839 30.4075C17.3477 29.6336 19.1277 29.6078 19.1277 29.6078L27.8214 29.6336V13.5361C23.1779 14.181 19.3083 16.8123 18.0442 20.2692C17.8378 20.8625 17.2445 22.5909 15.5676 22.5909C13.8134 22.5651 14.2004 21.2753 14.4326 20.6561C15.2581 18.5408 16.9349 16.7865 19.3083 15.5483C22.0944 14.1294 26.5831 13.3813 27.8214 13.4587V11.4207C27.5892 11.3949 27.3312 11.3949 27.0733 11.3691ZM10.3824 32.8067C12.5751 32.3939 14.3294 31.2331 15.2323 30.8977C16.5995 30.4075 17.3735 30.3044 18.2506 30.1496C18.4569 30.1238 18.8697 30.0722 19.4115 30.0464C19.721 30.0464 23.41 30.0464 27.873 30.0464V31.62L18.9471 31.5942C18.9471 31.5942 17.5798 31.5426 15.7224 31.8522C14.252 32.1102 10.3824 32.8067 10.3824 32.8067Z" fill="#F58220"/>
</svg>
