<svg width="211" height="43" viewBox="0 0 211 43" fill="none" xmlns="http://www.w3.org/2000/svg">
<path fill-rule="evenodd" clip-rule="evenodd" d="M32.8162 0C29.4497 0 26.6333 1.10675 24.3718 3.32535C22.1104 5.54394 20.9797 8.30317 20.9797 11.603C20.9797 14.8927 22.1104 17.7947 24.3718 20.0133C26.6333 22.237 29.4446 23.3488 32.811 23.3488C36.1774 23.3488 38.9888 22.2421 41.2502 20.0235C43.5116 17.8049 44.6423 14.9029 44.6423 11.603C44.6423 8.30317 43.5116 5.54394 41.2502 3.32535C38.9939 1.10675 36.1774 0 32.8162 0ZM37.9403 17.0705C36.6246 18.4628 34.9234 19.1615 32.8264 19.1615C30.7141 19.1615 28.9975 18.4628 27.6817 17.0705C26.366 15.6781 25.7081 13.6686 25.7081 11.603C25.7081 9.53742 26.366 7.81355 27.6817 6.42118C28.9975 5.02882 30.6987 4.33009 32.7956 4.33009C34.908 4.33009 36.6246 5.02882 37.9403 6.42118C39.2561 7.81355 39.9139 9.54252 39.9139 11.603C39.9139 13.6686 39.2561 15.6781 37.9403 17.0705ZM106.235 10.8125C107.283 10.1239 107.874 8.79789 107.946 6.7374C107.946 3.48855 105.618 0.362116 101.681 0.137706H91.0578V23.3335L102.755 23.3488C106.8 23.3488 109.658 20.9976 109.658 16.4431C109.658 14.2806 107.977 11.7407 106.235 10.8125ZM95.7502 4.32499H100.509C102.36 4.38619 103.084 5.38584 103.084 6.63029C103.084 7.87475 102.365 8.9815 100.484 9.0121H95.7451V4.32499H95.7502ZM101.733 19.2023H95.7502V13.2147H101.774C103.67 13.2708 104.806 14.6886 104.806 16.2034C104.806 17.7182 103.655 19.1768 101.733 19.2023ZM153.046 19.1717L154.614 23.3539L159.589 23.3386L150.25 0H145.573L136.214 23.3539H141.205L142.772 19.1717H153.046ZM148.035 6.19167L151.499 14.9641H144.484L148.035 6.19167ZM179.607 15.5149L168.105 0.0765034L163.387 0.117305V23.3539H168.064V7.85435L179.649 23.3335L184.285 23.3539V0.117305H179.607V15.5149ZM199.107 0.127506H190.092V23.3335H199.107C206.148 23.3335 211 19.3452 211 11.6081C211 3.86087 205.783 0.127506 199.107 0.127506ZM199.107 19.1717H194.774V4.36069H199.107C203.255 4.36069 206.308 6.96181 206.323 11.6081C206.313 16.2493 203.255 19.1615 199.107 19.1717ZM17.382 7.05871C17.382 7.05871 17.3615 0.122405 9.73949 0.122405L0 0.163207V23.3743H4.67701V14.3112H8.948L14.545 23.3743H19.9107L13.6404 13.5105C16.1331 12.0722 17.382 10.1341 17.382 7.05871ZM9.76519 10.1137H4.67701V4.35049H9.81144C11.6617 4.41169 12.6125 5.69185 12.6639 7.21682C12.6125 8.88459 11.6463 10.0831 9.76519 10.1137ZM134.055 23.3743L127.78 13.5105C130.273 12.0722 131.522 10.1341 131.522 7.05871C131.522 7.05871 131.501 0.122405 123.879 0.122405L114.14 0.163207V23.3743H118.817V14.3112H123.088L128.685 23.3743H134.055ZM123.905 10.1137H118.817V4.35049H123.951C125.801 4.41169 126.752 5.69185 126.804 7.21682C126.757 8.88459 125.791 10.0831 123.905 10.1137ZM58.0103 9.25691C55.163 8.83869 53.7856 8.51228 53.2614 7.89515C52.2232 6.65579 53.431 4.33519 57.1726 4.33519C59.0434 4.33519 60.4568 5.02882 61.5001 6.26308L64.661 3.24374C62.5846 1.18325 60.6058 0 56.2578 0C51.9559 0 48.1321 2.70312 48.1321 6.8088C48.1321 11.348 52.7114 12.8679 56.4531 13.281C61.1249 13.7451 61.1866 16.0657 61.1866 16.285C61.1866 16.5502 60.724 18.9983 56.0522 18.9983C53.5595 18.7943 51.5756 17.6315 50.5374 16.3921L47.3817 19.4166C49.4581 21.4821 52.0433 23.3284 56.3862 23.3284C62.0757 23.3284 65.8122 20.2071 65.8122 16.489C65.8071 11.5877 61.5772 9.78223 58.0103 9.25691ZM77.0268 18.9983C74.5341 18.7943 72.5502 17.6315 71.512 16.3921L68.3563 19.4166C70.4327 21.4821 73.0179 23.3284 77.3608 23.3284C83.0503 23.3284 86.7868 20.2071 86.7868 16.489C86.7868 11.5877 82.5569 9.77713 78.9901 9.25181C76.1428 8.83359 74.7654 8.50718 74.2411 7.89005C73.2029 6.65069 74.4107 4.33009 78.1523 4.33009C80.0231 4.33009 81.4365 5.02372 82.4799 6.25798L85.6407 3.23864C83.5592 1.18325 81.5804 0 77.2324 0C72.9305 0 69.1067 2.70312 69.1067 6.8088C69.1067 11.348 73.686 12.8679 77.4277 13.281C82.0995 13.7451 82.1612 16.0657 82.1612 16.285C82.1612 16.5502 81.6986 18.9983 77.0268 18.9983ZM58.8532 34.809L55.5947 42.9949H57.3319L57.8767 41.526H61.459L62.0038 42.9949L63.7358 42.9898L60.4825 34.809H58.8532ZM58.4781 40.0572L59.7167 36.9817L60.9245 40.0572H58.4781ZM51.9251 38.0528C50.9332 37.9049 50.45 37.7927 50.2702 37.5734C49.9052 37.1398 50.3267 36.3238 51.6321 36.3238C52.2849 36.3238 52.7783 36.5635 53.138 37.0021L54.2379 35.9464C53.5132 35.2222 52.8245 34.809 51.3083 34.809C49.8127 34.809 48.4764 35.7577 48.4764 37.1959C48.4764 38.7872 50.0697 39.3176 51.3752 39.4655C53.0044 39.6287 53.025 40.4397 53.025 40.5162C53.025 40.608 52.8656 41.4699 51.2364 41.4699C50.3678 41.3985 49.674 40.9905 49.3142 40.557L48.2143 41.6178C48.939 42.3421 49.8384 42.9898 51.3495 42.9898C53.3333 42.9898 54.6337 41.8932 54.6337 40.5927C54.6388 38.8739 53.1637 38.2364 51.9251 38.0528ZM134.95 34.809L131.691 42.9949H133.428L133.973 41.526H137.556L138.1 42.9949L139.832 42.9898L136.579 34.809H134.95ZM134.569 40.0572L135.808 36.9817L137.016 40.0572H134.569ZM65.2417 42.9898H66.9018V39.5777H69.9855V38.0477H66.9018V36.2881H71.0854V34.7478H65.2417V42.9898ZM74.2617 39.5777H77.5921V38.0477H74.2617V36.2881H78.7023V34.7478L72.5965 34.7529V42.9898H79.0158V41.4495H74.2617V39.5777ZM80.1259 36.2881H82.8962V42.9949H84.5562V36.2881H87.3265V34.7478H80.1259V36.2881ZM92.1217 37.4408L90.1944 34.7478H88.2465L91.2942 38.8688V42.9898H92.9543V38.8688L96.0021 34.7478H94.0953L92.1217 37.4408ZM120.292 38.0477H116.422V34.7478H114.761V42.9898H116.422V39.5828H120.292V42.9898L121.952 42.9847V34.7427H120.292V38.0477ZM125.719 39.5777H129.05V38.0477H125.719V36.2881H130.16V34.7478L124.054 34.7529V42.9898H130.473V41.4495H125.719V39.5777ZM142.957 34.7478H141.297V42.9898H147.387V41.4495H142.957V34.7478ZM147.526 36.2881H150.296V42.9949H151.957V36.2881H154.727V34.7478H147.526V36.2881ZM161.341 38.0477H157.471V34.7478H155.811V42.9898H157.471V39.5828H161.341V42.9898L163.002 42.9847V34.7427H161.341V38.0477ZM107.561 41.0415C108.157 40.3581 108.404 39.9246 108.897 38.7056L107.823 38.1905C107.582 39.1034 107.345 39.588 106.811 40.2816L104.945 38.42C105.603 38.1089 105.839 37.9865 106.07 37.8182C106.646 37.4153 106.913 36.895 106.913 36.2473C106.913 35.1406 105.952 34.4163 104.503 34.4163C103.002 34.4163 102.041 35.161 102.041 36.3289C102.041 36.8644 102.252 37.3234 102.74 37.8488L103.054 38.1803C102.365 38.5118 102.072 38.6954 101.738 39.0371C101.27 39.5216 101.049 40.0419 101.049 40.6743C101.049 41.3067 101.28 41.883 101.676 42.2758C102.154 42.7501 102.894 43 103.835 43C104.4 43 104.899 42.9082 105.366 42.7297C105.793 42.5665 106.076 42.3982 106.605 41.9851L106.769 42.1636C106.924 42.3268 107.104 42.5461 107.309 42.8266H109.365C108.887 42.3829 108.645 42.1432 108.311 41.8116L107.561 41.0415ZM104.518 35.467C105.197 35.467 105.623 35.8087 105.623 36.3646C105.623 36.7063 105.479 36.9664 105.166 37.1806C105.001 37.2928 104.873 37.354 104.195 37.6448L103.84 37.2826C103.516 36.9511 103.403 36.7216 103.403 36.385C103.403 35.8189 103.83 35.467 104.518 35.467ZM103.953 41.8779C103.012 41.8779 102.411 41.3628 102.411 40.5519C102.411 40.1694 102.555 39.8379 102.838 39.5777C103.069 39.3584 103.264 39.236 103.789 38.9759L105.875 41.1486C105.258 41.6535 104.673 41.8779 103.953 41.8779Z" fill="black"/>
</svg>
