<svg width="15" height="23" viewBox="0 0 15 23" fill="none" xmlns="http://www.w3.org/2000/svg">
<path d="M12.1875 0.75H2.5625C1.40234 0.75 0.5 1.69531 0.5 2.8125V20.6875C0.5 21.8477 1.40234 22.75 2.5625 22.75H12.1875C13.3047 22.75 14.25 21.8477 14.25 20.6875V2.8125C14.25 1.69531 13.3047 0.75 12.1875 0.75ZM7.375 21.375C6.60156 21.375 6 20.7734 6 20C6 19.2695 6.60156 18.625 7.375 18.625C8.10547 18.625 8.75 19.2695 8.75 20C8.75 20.7734 8.10547 21.375 7.375 21.375ZM12.1875 16.7344C12.1875 17.0352 11.9297 17.25 11.6719 17.25H3.07812C2.77734 17.25 2.5625 17.0352 2.5625 16.7344V3.32812C2.5625 3.07031 2.77734 2.8125 3.07812 2.8125H11.6719C11.9297 2.8125 12.1875 3.07031 12.1875 3.32812V16.7344Z" fill="#B49B7E"/>
</svg>
