<svg width="17" height="16" viewBox="0 0 17 16" fill="none" xmlns="http://www.w3.org/2000/svg">
<path d="M8.5 0C9.08333 0 9.60417 0.145833 10.0625 0.4375C10.5208 0.729167 10.8854 1.11458 11.1562 1.59375C11.6771 1.42708 12.1979 1.40625 12.7188 1.53125C13.2396 1.65625 13.7188 1.92708 14.1562 2.34375C14.5521 2.76042 14.8125 3.22917 14.9375 3.75C15.0625 4.29167 15.0521 4.82292 14.9062 5.34375C15.3854 5.61458 15.7708 5.97917 16.0625 6.4375C16.3542 6.89583 16.5 7.41667 16.5 8C16.5 8.58333 16.3542 9.10417 16.0625 9.5625C15.7708 10.0208 15.3854 10.3854 14.9062 10.6562C15.2188 11.7396 14.9688 12.7396 14.1562 13.6562C13.7188 14.0521 13.2396 14.3125 12.7188 14.4375C12.1979 14.5625 11.6771 14.5521 11.1562 14.4062C10.8854 14.8854 10.5208 15.2708 10.0625 15.5625C9.60417 15.8542 9.08333 16 8.5 16C7.91667 16 7.39583 15.8542 6.9375 15.5625C6.47917 15.2708 6.11458 14.8854 5.84375 14.4062C5.32292 14.5521 4.79167 14.5625 4.25 14.4375C3.72917 14.3333 3.26042 14.0729 2.84375 13.6562C2.03125 12.7396 1.78125 11.7396 2.09375 10.6562C1.61458 10.3854 1.22917 10.0208 0.9375 9.5625C0.645833 9.10417 0.5 8.58333 0.5 8C0.5 7.41667 0.645833 6.89583 0.9375 6.4375C1.22917 5.97917 1.61458 5.61458 2.09375 5.34375C1.92708 4.82292 1.90625 4.29167 2.03125 3.75C2.15625 3.22917 2.42708 2.76042 2.84375 2.34375C3.26042 1.92708 3.72917 1.65625 4.25 1.53125C4.79167 1.42708 5.32292 1.44792 5.84375 1.59375C6.11458 1.11458 6.47917 0.729167 6.9375 0.4375C7.39583 0.145833 7.91667 0 8.5 0ZM6.5 7C6.79167 7 7.03125 6.90625 7.21875 6.71875C7.40625 6.53125 7.5 6.29167 7.5 6C7.5 5.70833 7.40625 5.46875 7.21875 5.28125C7.03125 5.09375 6.79167 5 6.5 5C6.20833 5 5.96875 5.09375 5.78125 5.28125C5.59375 5.46875 5.5 5.70833 5.5 6C5.5 6.29167 5.59375 6.53125 5.78125 6.71875C5.96875 6.90625 6.20833 7 6.5 7ZM10.5 9C10.2083 9 9.96875 9.09375 9.78125 9.28125C9.59375 9.46875 9.5 9.70833 9.5 10C9.5 10.2917 9.59375 10.5312 9.78125 10.7188C9.96875 10.9062 10.2083 11 10.5 11C10.7917 11 11.0312 10.9062 11.2188 10.7188C11.4062 10.5312 11.5 10.2917 11.5 10C11.5 9.70833 11.4062 9.46875 11.2188 9.28125C11.0312 9.09375 10.7917 9 10.5 9ZM11 6.5C11.3125 6.16667 11.3125 5.82292 11 5.46875C10.6667 5.17708 10.3229 5.17708 9.96875 5.46875L5.96875 9.46875C5.67708 9.82292 5.67708 10.1667 5.96875 10.5C6.32292 10.8125 6.66667 10.8125 7 10.5L11 6.5Z" fill="#F83C00"/>
</svg>
