<svg width="12" height="12" viewBox="0 0 12 12" fill="none" xmlns="http://www.w3.org/2000/svg">
<path d="M10.75 9.71875C11.0417 10.0729 11.0417 10.4271 10.75 10.7812C10.3958 11.0729 10.0417 11.0729 9.6875 10.7812L6 7.0625L2.28125 10.7812C1.92708 11.0729 1.57292 11.0729 1.21875 10.7812C0.927083 10.4271 0.927083 10.0729 1.21875 9.71875L4.9375 6L1.21875 2.25C0.927083 1.89583 0.927083 1.54167 1.21875 1.1875C1.57292 0.895833 1.92708 0.895833 2.28125 1.1875L6 4.9375L9.71875 1.21875C10.0729 0.927083 10.4271 0.927083 10.7812 1.21875C11.0729 1.57292 11.0729 1.92708 10.7812 2.28125L7.0625 6L10.75 9.71875Z" fill="#B6B8BC"/>
</svg>
