<svg width="66" height="66" viewBox="0 0 66 66" fill="none" xmlns="http://www.w3.org/2000/svg">
<rect width="66" height="66" rx="17" fill="#FAF4EF"/>
<path d="M24.375 31.1875H25.0605C26.3789 34.1934 29.332 36.25 32.8125 36.25C36.2402 36.25 39.1934 34.1934 40.5117 31.1875H41.25C41.6719 31.1875 42.0938 30.8184 42.0938 30.3438V25.2812C42.0938 24.8594 41.6719 24.4375 41.25 24.4375H40.5117C39.1934 21.4844 36.2402 19.375 32.8125 19.375C29.332 19.375 26.3789 21.4844 25.0605 24.4375H24.375C23.9004 24.4375 23.5312 24.8594 23.5312 25.2812V30.3438C23.5312 30.8184 23.9004 31.1875 24.375 31.1875ZM26.4844 26.5469C26.4844 25.3867 27.5918 24.4375 29.0156 24.4375H36.6094C37.9805 24.4375 39.1406 25.3867 39.1406 26.5469V27.8125C39.1406 30.6074 36.873 32.875 34.0781 32.875H31.5469C28.752 32.875 26.4844 30.6074 26.4844 27.8125V26.5469ZM30.2812 30.3438L30.9141 28.4453L32.8125 27.8125L30.9141 27.1797L30.2812 25.2812L29.6484 27.1797L27.75 27.8125L29.6484 28.4453L30.2812 30.3438ZM38.2441 36.3555C36.6621 37.3574 34.8164 37.9375 32.8125 37.9375C30.7559 37.9375 28.9102 37.3574 27.3281 36.3555C23.7422 36.7246 21 39.6777 21 43.3691V43.8438C21 45.2676 22.1074 46.375 23.5312 46.375H27.75V43C27.75 42.1035 28.4883 41.3125 29.4375 41.3125H36.1875C37.084 41.3125 37.875 42.1035 37.875 43V46.375H42.0938C43.4648 46.375 44.625 45.2676 44.625 43.8438V43.3691C44.625 39.6777 41.8301 36.7246 38.2441 36.3555ZM35.3438 43C34.8691 43 34.5 43.4219 34.5 43.8438C34.5 44.3184 34.8691 44.6875 35.3438 44.6875C35.7656 44.6875 36.1875 44.3184 36.1875 43.8438C36.1875 43.4219 35.7656 43 35.3438 43ZM30.2812 43C29.8066 43 29.4375 43.4219 29.4375 43.8438V46.375H31.125V43.8438C31.125 43.4219 30.7031 43 30.2812 43Z" fill="#B49B7E"/>
</svg>
