<svg width="66" height="66" viewBox="0 0 66 66" fill="none" xmlns="http://www.w3.org/2000/svg">
<rect width="66" height="66" rx="17" fill="#FAF4EF"/>
<path d="M28.1152 38.5176C27.6406 38.043 27.8516 38.2012 26.7969 37.8848C26.2695 37.7793 25.8477 37.5156 25.4258 37.1992L23.0527 43.0527C22.7891 43.6328 23.2637 44.2656 23.8438 44.2129L26.6387 44.1074L28.5371 46.1113C28.959 46.5859 29.6973 46.4277 29.9082 45.9004L32.7031 39.1504C32.123 39.4668 31.4902 39.625 30.8047 39.625C29.8027 39.625 28.8008 39.2559 28.1152 38.5176ZM43.1445 43.0527L40.7715 37.1992C40.3496 37.5156 39.9277 37.7793 39.4531 37.8848C38.293 38.2012 38.5566 38.043 38.082 38.5176C37.3965 39.2559 36.3945 39.625 35.3926 39.625C34.707 39.625 34.0742 39.4668 33.4941 39.1504L36.2891 45.9004C36.5 46.4277 37.2383 46.5859 37.6602 46.1113L39.5586 44.1074L42.3535 44.2129C42.9336 44.2656 43.4082 43.6328 43.1445 43.0527ZM36.8691 37.3047C37.6602 36.5137 37.7656 36.5664 38.873 36.25C39.6113 36.0918 40.1914 35.5117 40.4023 34.7207C40.7715 33.2441 40.666 33.4023 41.7734 32.3477C42.3008 31.7676 42.5117 30.9766 42.3008 30.2383C41.9316 28.7617 41.9316 28.9727 42.3008 27.4434C42.5117 26.7051 42.3008 25.9141 41.7734 25.3867C40.666 24.2793 40.7715 24.4375 40.4023 22.9609C40.1914 22.2227 39.6113 21.6426 38.873 21.4316C37.3965 21.0098 37.6074 21.1152 36.5 20.0078C35.9727 19.4805 35.1816 19.2695 34.4434 19.4805C33.0195 19.8496 33.1777 19.8496 31.7539 19.4805C31.0156 19.2695 30.2246 19.4805 29.6973 20.0078C28.5898 21.1152 28.8008 21.0098 27.3242 21.4316C26.5859 21.6426 26.0059 22.2227 25.7949 22.9609C25.4258 24.4375 25.5312 24.2793 24.4238 25.3867C23.8965 25.9141 23.6855 26.7051 23.8965 27.4434C24.2656 28.9727 24.2656 28.7617 23.8965 30.2383C23.6855 30.9766 23.8965 31.7676 24.4238 32.3477C25.5312 33.4023 25.4258 33.2441 25.7949 34.7207C26.0059 35.5117 26.5859 36.0918 27.3242 36.25C28.4844 36.5664 28.5898 36.5137 29.3809 37.3047C30.0664 38.043 31.1211 38.1484 31.9648 37.6211C32.2812 37.4102 32.7031 37.3047 33.0723 37.3047C33.4941 37.3047 33.916 37.4102 34.2324 37.6211C35.0762 38.1484 36.1309 38.043 36.8691 37.3047ZM28.1152 28.6562C28.1152 25.8613 30.3301 23.5938 33.125 23.5938C35.8672 23.5938 38.082 25.8613 38.082 28.6562C38.082 31.4512 35.8672 33.7188 33.125 33.7188C30.3301 33.7188 28.1152 31.4512 28.1152 28.6562Z" fill="#B49B7E"/>
</svg>
