<svg width="66" height="66" viewBox="0 0 66 66" fill="none" xmlns="http://www.w3.org/2000/svg">
<rect width="66" height="66" rx="17" fill="#FAF4EF"/>
<path d="M39.9375 29.5C39.9375 24.8594 34.9805 21.0625 28.9688 21.0625C22.9043 21.0625 18 24.8594 18 29.5C18 31.3457 18.7383 32.9805 20.0039 34.3516C19.2656 35.9863 18.1055 37.252 18.1055 37.252C18 37.3574 17.9473 37.5684 18 37.7266C18.1055 37.8848 18.2109 37.9375 18.4219 37.9375C20.3203 37.9375 21.9023 37.3047 23.0625 36.6191C24.75 37.4629 26.8066 37.9375 28.9688 37.9375C34.9805 37.9375 39.9375 34.1934 39.9375 29.5ZM46.3711 41.1016C47.584 39.7305 48.375 38.0957 48.375 36.25C48.375 32.7695 45.5273 29.7109 41.5195 28.4453C41.5723 28.8145 41.625 29.1836 41.625 29.5C41.625 35.0898 35.9297 39.625 28.9688 39.625C28.3887 39.625 27.8086 39.625 27.2812 39.5723C28.916 42.5781 32.8184 44.6875 37.4062 44.6875C39.5684 44.6875 41.5723 44.2129 43.2598 43.3691C44.4199 44.0547 46.002 44.6875 47.9531 44.6875C48.1113 44.6875 48.2695 44.6348 48.3223 44.4766C48.375 44.3184 48.375 44.1074 48.2168 44.002C48.2168 44.002 47.0566 42.7363 46.3711 41.1016Z" fill="#B49B7E"/>
</svg>
