<svg width="66" height="66" viewBox="0 0 66 66" fill="none" xmlns="http://www.w3.org/2000/svg">
<rect width="66" height="66" rx="17" fill="#FAF4EF"/>
<path d="M39.4062 41.3125H22.5312C22.0566 41.3125 21.6875 41.7344 21.6875 42.1562V45.5312C21.6875 46.0059 22.0566 46.375 22.5312 46.375H39.4062C39.8281 46.375 40.25 46.0059 40.25 45.5312V42.1562C40.25 41.7344 39.8281 41.3125 39.4062 41.3125ZM42.4121 30.291C40.9355 29.1309 38.8262 29.2891 37.6133 30.7656L36.5586 32.084L34.9766 25.2812C34.0273 21.2207 29.9668 18.6367 25.8535 19.5859C21.793 20.5352 19.209 24.5957 20.1582 28.709L22.6895 39.625H38.9844L42.834 35.0371C43.9941 33.6133 43.8359 31.5039 42.4121 30.291Z" fill="#B49B7E"/>
</svg>
