<svg width="66" height="66" viewBox="0 0 66 66" fill="none" xmlns="http://www.w3.org/2000/svg">
<rect width="66" height="66" rx="17" fill="#FAF4EF"/>
<path d="M45.3125 34.5625C45.3125 30.3438 42.6758 26.7578 38.9844 25.2285L36.875 29.5V23.5938C36.875 23.1719 36.4531 22.75 36.0312 22.75H30.9688C30.4941 22.75 30.125 23.1719 30.125 23.5938V29.5L27.9629 25.2285C24.2715 26.7578 21.6875 30.3438 21.6875 34.5625V37.9375H45.3125V34.5625ZM46.1562 39.625H20.8438C20.3691 39.625 20 40.0469 20 40.4688V42.1562C20 42.6309 20.3691 43 20.8438 43H46.1562C46.5781 43 47 42.6309 47 42.1562V40.4688C47 40.0469 46.5781 39.625 46.1562 39.625Z" fill="#B49B7E"/>
</svg>
