<svg width="66" height="66" viewBox="0 0 66 66" fill="none" xmlns="http://www.w3.org/2000/svg">
<rect width="66" height="66" rx="17" fill="#FAF4EF"/>
<path d="M33.1875 21.0625C24.75 21.0625 18 24.1211 18 27.8125V37.9375C18 41.6816 24.75 44.6875 33.1875 44.6875C41.5723 44.6875 48.375 41.6816 48.375 37.9375V27.8125C48.375 24.1211 41.5723 21.0625 33.1875 21.0625ZM28.8105 29.4473C28.5469 30.291 28.0195 31.0293 27.2812 31.5566C23.2734 30.8711 20.5312 29.4473 20.5312 27.8125C20.5312 26.2305 23.168 24.8594 27.0703 24.1211L28.3887 26.4941C28.916 27.3906 29.0742 28.4453 28.8105 29.4473ZM33.1875 32.0312C32.0273 32.0312 30.9727 31.9785 29.9707 31.9258C30.3926 30.5547 31.6582 29.5 33.1875 29.5C34.6641 29.5 35.9297 30.5547 36.3516 31.9258C35.3496 31.9785 34.2949 32.0312 33.1875 32.0312ZM36.5625 24.4375C36.5625 26.3359 35.0332 27.8125 33.1875 27.8125C31.2891 27.8125 29.8125 26.3359 29.8125 24.4375V23.752C30.8672 23.6992 31.9746 23.5938 33.1875 23.5938C34.3477 23.5938 35.4551 23.6992 36.5625 23.752V24.4375ZM38.9883 31.5566C38.3027 31.0293 37.7227 30.291 37.5117 29.4473C37.248 28.4453 37.4062 27.3906 37.8809 26.4941L39.252 24.1211C43.1543 24.8594 45.8438 26.2305 45.8438 27.8125C45.8438 29.4473 43.0488 30.8711 38.9883 31.5566Z" fill="#B49B7E"/>
</svg>
