<svg width="66" height="66" viewBox="0 0 66 66" fill="none" xmlns="http://www.w3.org/2000/svg">
<rect width="66" height="66" rx="17" fill="#FAF4EF"/>
<path d="M26.125 32.875C29.3418 32.875 32.0312 30.2383 32.0312 26.9688C32.0312 23.752 29.3418 21.0625 26.125 21.0625C22.8555 21.0625 20.2188 23.752 20.2188 26.9688C20.2188 30.2383 22.8555 32.875 26.125 32.875ZM30.1328 34.5625H29.7109C28.6035 35.0898 27.3906 35.4062 26.125 35.4062C24.8066 35.4062 23.5938 35.0898 22.4863 34.5625H22.0645C18.6895 34.5625 16 37.3047 16 40.6797V42.1562C16 43.5801 17.1074 44.6875 18.5312 44.6875H33.7188C35.0898 44.6875 36.25 43.5801 36.25 42.1562V40.6797C36.25 37.3047 33.5078 34.5625 30.1328 34.5625ZM41.3125 32.875C44.1074 32.875 46.375 30.6074 46.375 27.8125C46.375 25.0176 44.1074 22.75 41.3125 22.75C38.5176 22.75 36.25 25.0176 36.25 27.8125C36.25 30.6074 38.5176 32.875 41.3125 32.875ZM43.8438 34.5625H43.6328C42.8945 34.8262 42.1035 34.9844 41.3125 34.9844C40.4688 34.9844 39.6777 34.8262 38.9395 34.5625H38.7812C37.6738 34.5625 36.6719 34.8789 35.8281 35.4062C37.0938 36.7773 37.9375 38.623 37.9375 40.6797V42.6836C37.9375 42.7891 37.8848 42.8945 37.8848 43H47.2188C48.5898 43 49.75 41.8926 49.75 40.4688C49.75 37.252 47.0605 34.5625 43.8438 34.5625Z" fill="#B49B7E"/>
</svg>
