<svg width="66" height="66" viewBox="0 0 66 66" fill="none" xmlns="http://www.w3.org/2000/svg">
<rect width="66" height="66" rx="17" fill="#FAF4EF"/>
<path d="M44.5742 23.8047L34.4492 19.5859C34.1328 19.4805 33.8164 19.4277 33.5 19.4277C33.1309 19.4277 32.8145 19.4805 32.498 19.5859L22.373 23.8047C21.4238 24.2266 20.8438 25.123 20.8438 26.125C20.8438 36.6191 26.8555 43.8438 32.498 46.2168C33.1309 46.4805 33.8164 46.4805 34.4492 46.2168C38.9844 44.3184 46.1562 37.832 46.1562 26.125C46.1562 25.123 45.5234 24.2266 44.5742 23.8047ZM33.5 42.9473V22.8555L42.7285 26.7051C42.5703 34.668 38.4043 40.4688 33.5 42.9473Z" fill="#B49B7E"/>
</svg>
