<svg width="15" height="15" viewBox="0 0 15 15" fill="none" xmlns="http://www.w3.org/2000/svg">
<path d="M13.9453 11.6016C13.9453 11.9124 13.8218 12.2104 13.6021 12.4302C13.3823 12.65 13.0842 12.7734 12.7734 12.7734H2.22656C1.91576 12.7734 1.61769 12.65 1.39792 12.4302C1.17815 12.2104 1.05469 11.9124 1.05469 11.6016V5.15625C1.05469 4.84545 1.17815 4.54738 1.39792 4.32761C1.61769 4.10784 1.91576 3.98438 2.22656 3.98438H4.57031L5.74219 2.22656H9.25781L10.4297 3.98438H12.7734C13.0842 3.98438 13.3823 4.10784 13.6021 4.32761C13.8218 4.54738 13.9453 4.84545 13.9453 5.15625V11.6016Z" stroke="black" stroke-linecap="round" stroke-linejoin="round"/>
<path d="M7.5 10.4297C8.79442 10.4297 9.84375 9.38035 9.84375 8.08594C9.84375 6.79152 8.79442 5.74219 7.5 5.74219C6.20558 5.74219 5.15625 6.79152 5.15625 8.08594C5.15625 9.38035 6.20558 10.4297 7.5 10.4297Z" stroke="black" stroke-linecap="round" stroke-linejoin="round"/>
</svg>
