<svg width="24" height="24" viewBox="0 0 24 24" fill="none" xmlns="http://www.w3.org/2000/svg">
<path d="M1 17.5L7.30575 11.1942C7.82145 10.6787 8.5208 10.3891 9.25 10.3891C9.9792 10.3891 10.6785 10.6787 11.1942 11.1942L17.5 17.5H1ZM14.75 14.75L16.9308 12.5692C17.4465 12.0537 18.1458 11.7641 18.875 11.7641C19.6042 11.7641 20.3035 12.0537 20.8192 12.5692L23 14.75H14.75ZM14.75 6.5H14.7638H14.75ZM3.75 23H20.25C20.9793 23 21.6788 22.7103 22.1945 22.1945C22.7103 21.6788 23 20.9793 23 20.25V3.75C23 3.02065 22.7103 2.32118 22.1945 1.80546C21.6788 1.28973 20.9793 1 20.25 1H3.75C3.02065 1 2.32118 1.28973 1.80546 1.80546C1.28973 2.32118 1 3.02065 1 3.75V20.25C1 20.9793 1.28973 21.6788 1.80546 22.1945C2.32118 22.7103 3.02065 23 3.75 23Z" stroke="white" stroke-width="1.5" stroke-linecap="round" stroke-linejoin="round"/>
</svg>
