<svg width="27" height="26" viewBox="0 0 27 26" fill="none" xmlns="http://www.w3.org/2000/svg">
<path d="M6.77778 3.4375V2.6875V3.4375ZM7.60444 3.4375L7.60455 2.6875H7.60444V3.4375ZM9.08356 2.71438L9.68935 3.15655L9.68985 3.15585L9.08356 2.71438ZM9.80533 1.72312L9.19954 1.28095L9.19903 1.28165L9.80533 1.72312ZM11.2844 1L11.2843 1.75H11.2844V1ZM14.7156 1V1.75H14.7157L14.7156 1ZM16.1947 1.72312L16.801 1.28165L16.8005 1.28095L16.1947 1.72312ZM16.9164 2.71438L16.3101 3.15585L16.3107 3.15655L16.9164 2.71438ZM18.3956 3.4375V2.6875H18.3955L18.3956 3.4375ZM19.2222 3.4375V2.6875V3.4375ZM15.6667 8.3125H16.4167H15.6667ZM13 5.875V5.125V5.875ZM13.5 21L14.0303 21.5303L14.5607 21L14.0303 20.4697L13.5 21ZM2.54655 14.5532C2.85207 14.2735 2.873 13.7991 2.5933 13.4936C2.31359 13.188 1.83918 13.1671 1.53367 13.4468L2.54655 14.5532ZM25.4663 13.4468C25.1608 13.1671 24.6864 13.188 24.4067 13.4936C24.127 13.7991 24.1479 14.2735 24.4534 14.5532L25.4663 13.4468ZM17.8856 19.925C17.4762 19.9882 17.1956 20.3713 17.2588 20.7807C17.322 21.19 17.7051 21.4706 18.1144 21.4074L17.8856 19.925ZM10.5303 16.9697C10.2374 16.6768 9.76256 16.6768 9.46967 16.9697C9.17678 17.2626 9.17678 17.7374 9.46967 18.0303L10.5303 16.9697ZM9.46967 23.9697C9.17678 24.2626 9.17678 24.7374 9.46967 25.0303C9.76256 25.3232 10.2374 25.3232 10.5303 25.0303L9.46967 23.9697ZM5.75 5.0625C5.75 4.85329 5.84032 4.63741 6.02671 4.46703L5.01469 3.35987C4.53429 3.79899 4.25 4.40975 4.25 5.0625H5.75ZM6.02671 4.46703C6.21535 4.2946 6.48453 4.1875 6.77778 4.1875V2.6875C6.12803 2.6875 5.49284 2.92281 5.01469 3.35987L6.02671 4.46703ZM6.77778 4.1875H7.60444V2.6875H6.77778V4.1875ZM7.60434 4.1875C8.00893 4.18756 8.40998 4.09648 8.77258 3.9192L8.11376 2.57163C7.96032 2.64664 7.78517 2.68752 7.60455 2.6875L7.60434 4.1875ZM8.77258 3.9192C9.13535 3.74185 9.45192 3.48183 9.68935 3.15655L8.47777 2.2722C8.3904 2.3919 8.26703 2.4967 8.11376 2.57163L8.77258 3.9192ZM9.68985 3.15585L10.4116 2.1646L9.19903 1.28165L8.47726 2.2729L9.68985 3.15585ZM10.4111 2.1653C10.4985 2.0456 10.6219 1.9408 10.7751 1.86587L10.1163 0.518296C9.75354 0.695653 9.43697 0.955669 9.19954 1.28095L10.4111 2.1653ZM10.7751 1.86587C10.9286 1.79086 11.1037 1.74998 11.2843 1.75L11.2845 0.25C10.88 0.249945 10.4789 0.341023 10.1163 0.518296L10.7751 1.86587ZM11.2844 1.75H14.7156V0.25H11.2844V1.75ZM14.7157 1.75C14.8963 1.74998 15.0714 1.79086 15.2249 1.86587L15.8837 0.518296C15.5211 0.341023 15.12 0.249945 14.7155 0.25L14.7157 1.75ZM15.2249 1.86587C15.3781 1.9408 15.5015 2.0456 15.5889 2.1653L16.8005 1.28095C16.563 0.955669 16.2465 0.695653 15.8837 0.518296L15.2249 1.86587ZM15.5884 2.1646L16.3101 3.15585L17.5227 2.2729L16.801 1.28165L15.5884 2.1646ZM16.3107 3.15655C16.5481 3.48183 16.8646 3.74185 17.2274 3.9192L17.8862 2.57163C17.733 2.4967 17.6096 2.3919 17.5222 2.2722L16.3107 3.15655ZM17.2274 3.9192C17.59 4.09648 17.9911 4.18756 18.3957 4.1875L18.3955 2.6875C18.2148 2.68752 18.0397 2.64664 17.8862 2.57163L17.2274 3.9192ZM18.3956 4.1875H19.2222V2.6875H18.3956V4.1875ZM19.2222 4.1875C19.5155 4.1875 19.7846 4.2946 19.9733 4.46703L20.9853 3.35987C20.5072 2.92281 19.872 2.6875 19.2222 2.6875V4.1875ZM19.9733 4.46703C20.1597 4.63741 20.25 4.85329 20.25 5.0625H21.75C21.75 4.40975 21.4657 3.79899 20.9853 3.35987L19.9733 4.46703ZM20.25 5.0625V12.375H21.75V5.0625H20.25ZM20.25 12.375C20.25 12.5842 20.1597 12.8001 19.9733 12.9705L20.9853 14.0776C21.4657 13.6385 21.75 13.0277 21.75 12.375H20.25ZM19.9733 12.9705C19.7846 13.1429 19.5155 13.25 19.2222 13.25V14.75C19.872 14.75 20.5072 14.5147 20.9853 14.0776L19.9733 12.9705ZM19.2222 13.25H6.77778V14.75H19.2222V13.25ZM6.77778 13.25C6.48453 13.25 6.21535 13.1429 6.02671 12.9705L5.01469 14.0776C5.49284 14.5147 6.12803 14.75 6.77778 14.75V13.25ZM6.02671 12.9705C5.84032 12.8001 5.75 12.5842 5.75 12.375H4.25C4.25 13.0277 4.53429 13.6385 5.01469 14.0776L6.02671 12.9705ZM5.75 12.375V5.0625H4.25V12.375H5.75ZM14.9167 8.3125C14.9167 8.7372 14.7327 9.15974 14.3796 9.48249L15.3916 10.5897C16.0387 9.99816 16.4167 9.18074 16.4167 8.3125H14.9167ZM14.3796 9.48249C14.0243 9.8073 13.529 10 13 10V11.5C13.8855 11.5 14.7468 11.1791 15.3916 10.5897L14.3796 9.48249ZM13 10C12.471 10 11.9757 9.8073 11.6204 9.48249L10.6084 10.5897C11.2532 11.1791 12.1145 11.5 13 11.5V10ZM11.6204 9.48249C11.2673 9.15974 11.0833 8.7372 11.0833 8.3125H9.58333C9.58333 9.18074 9.96127 9.99816 10.6084 10.5897L11.6204 9.48249ZM11.0833 8.3125C11.0833 7.8878 11.2673 7.46526 11.6204 7.14251L10.6084 6.03534C9.96127 6.62684 9.58333 7.44426 9.58333 8.3125H11.0833ZM11.6204 7.14251C11.9757 6.8177 12.471 6.625 13 6.625V5.125C12.1145 5.125 11.2532 5.44591 10.6084 6.03534L11.6204 7.14251ZM13 6.625C13.529 6.625 14.0243 6.8177 14.3796 7.14251L15.3916 6.03534C14.7468 5.44591 13.8855 5.125 13 5.125V6.625ZM14.3796 7.14251C14.7327 7.46526 14.9167 7.8878 14.9167 8.3125H16.4167C16.4167 7.44426 16.0387 6.62684 15.3916 6.03534L14.3796 7.14251ZM13.5 20.25C10.1192 20.25 7.09301 19.7005 4.93971 18.8392C3.86097 18.4077 3.03833 17.9126 2.49764 17.4013C1.95854 16.8915 1.75 16.4177 1.75 16H0.25C0.25 16.963 0.741019 17.8046 1.46698 18.4911C2.19136 19.1762 3.1993 19.7586 4.38262 20.2319C6.75343 21.1802 9.97723 21.75 13.5 21.75V20.25ZM1.75 16C1.75 15.5701 1.97144 15.0797 2.54655 14.5532L1.53367 13.4468C0.7708 14.1452 0.25 15.0077 0.25 16H1.75ZM24.4534 14.5532C25.0286 15.0797 25.25 15.5701 25.25 16H26.75C26.75 15.0077 26.2292 14.1452 25.4663 13.4468L24.4534 14.5532ZM25.25 16C25.25 16.6449 24.7322 17.4358 23.3823 18.2089C22.0727 18.9589 20.1692 19.5724 17.8856 19.925L18.1144 21.4074C20.5108 21.0374 22.6074 20.3812 24.1278 19.5105C25.6078 18.6629 26.75 17.4819 26.75 16H25.25ZM14.0303 20.4697L10.5303 16.9697L9.46967 18.0303L12.9697 21.5303L14.0303 20.4697ZM12.9697 20.4697L9.46967 23.9697L10.5303 25.0303L14.0303 21.5303L12.9697 20.4697Z" fill="white"/>
</svg>
