<svg width="61" height="61" viewBox="0 0 61 61" fill="none" xmlns="http://www.w3.org/2000/svg">
<path d="M13.4688 60.5262C13.8685 60.5262 14.2182 60.4263 14.4679 60.1765L19.4136 56.4298C23.2602 58.7278 26.6572 59.8268 30.0043 59.8268H30.1042H30.2541C33.6011 59.8268 36.9982 58.7278 40.8448 56.4298L45.7904 60.1765C46.0902 60.3764 46.4399 60.5262 46.7896 60.5262C50.1866 60.5262 54.4329 57.7287 57.3803 53.5823C60.1279 49.6857 60.9771 45.5394 59.7782 42.1424L59.6783 41.8926L52.9841 36.6472V25.2572C52.9841 15.0162 50.5862 8.17219 45.6406 4.37552C41.3443 1.02846 35.6494 0.578857 30.1542 0.578857C24.659 0.578857 19.014 1.02846 14.6178 4.42548C9.67216 8.22215 7.27426 15.0661 7.27426 25.3071V36.6971L0.630099 41.8926L0.530186 42.1424C-0.668761 45.5394 0.180493 49.6857 2.92808 53.5823C5.82554 57.7287 10.0718 60.5262 13.4688 60.5262ZM9.27251 25.2572C9.27251 4.32557 19.6134 2.5771 30.1542 2.5771C40.6949 2.5771 51.0358 4.32557 51.0358 25.2572V37.6463L56.581 41.9925C52.9841 42.8917 46.7896 46.2887 46.7896 56.0302H48.7878C48.7878 45.6393 56.4811 43.9907 58.1796 43.741C58.7291 46.3387 57.9298 49.4859 55.7817 52.4833C53.3338 55.9802 49.6371 58.528 46.9394 58.5779L40.9947 54.0819L40.3952 54.4316C36.6485 56.7795 33.4013 57.8785 30.2541 57.8785H30.1042H30.0043C26.8571 57.8785 23.6099 56.7795 19.8632 54.4316L19.2637 54.0819L13.319 58.5779C10.6213 58.528 6.92457 55.9802 4.47672 52.4833C2.37856 49.4859 1.52931 46.3886 2.07883 43.7909C4.07707 44.1406 11.2708 46.0389 11.2708 56.0302H13.269C13.269 46.4386 7.27426 42.9916 3.62747 42.0425L9.22255 37.6463V25.2572H9.27251Z" fill="#B49B7E"/>
<path d="M36.7481 48.8365H23.5597C23.0102 48.8365 22.5605 49.2861 22.5605 49.8356C22.5605 50.3851 23.0102 50.8347 23.5597 50.8347H36.7481C37.2976 50.8347 37.7472 50.3851 37.7472 49.8356C37.7472 49.2861 37.2976 48.8365 36.7481 48.8365Z" fill="#B49B7E"/>
<path d="M36.7481 44.9899H23.5597C23.0102 44.9899 22.5605 45.4395 22.5605 45.989C22.5605 46.5385 23.0102 46.9881 23.5597 46.9881H36.7481C37.2976 46.9881 37.7472 46.5385 37.7472 45.989C37.7472 45.4395 37.2976 44.9899 36.7481 44.9899Z" fill="#B49B7E"/>
<path d="M33.8506 43.1415C34.4002 43.1415 34.8498 42.6919 34.8498 42.1424C34.8498 41.5929 34.4002 41.1432 33.8506 41.1432H26.4571C25.9076 41.1432 25.458 41.5929 25.458 42.1424C25.458 42.6919 25.9076 43.1415 26.4571 43.1415H33.8506Z" fill="#B49B7E"/>
<path d="M33.8506 52.6831H26.4571C25.9076 52.6831 25.458 53.1327 25.458 53.6822C25.458 54.2317 25.9076 54.6813 26.4571 54.6813H33.8506C34.4002 54.6813 34.8498 54.2317 34.8498 53.6822C34.8498 53.1327 34.4002 52.6831 33.8506 52.6831Z" fill="#B49B7E"/>
<path d="M19.8629 39.8944C22.1109 39.8944 24.309 38.9952 25.9076 37.3966C27.2064 36.0977 28.7551 35.3983 30.4036 35.3983C32.0522 35.3983 33.6008 36.0977 34.8997 37.3966C36.4983 38.9952 38.6964 39.8944 40.9444 39.8944C44.841 39.8944 49.1372 36.9969 49.6368 32.2011C49.7367 31.1021 49.8366 29.9531 49.8366 28.8041C49.8366 25.7068 49.4869 22.9593 48.7875 20.5614L48.7375 20.4614C46.6893 15.4159 44.2415 13.2678 40.5447 13.2678C39.146 13.2678 37.7472 13.5675 36.1986 13.8672C34.4001 14.2169 32.5018 14.6166 30.4036 14.6166C28.3055 14.6166 26.4072 14.2169 24.6087 13.8672C23.0601 13.5675 21.6613 13.2678 20.2625 13.2678C16.5658 13.2678 14.1179 15.4159 12.0697 20.4614L12.0198 20.5614C11.3204 22.9593 10.9707 25.7568 10.9707 28.8041C10.9707 29.9531 11.0207 31.1021 11.1705 32.2011C11.6701 37.0469 16.0163 39.8944 19.8629 39.8944ZM20.2625 15.266C21.4615 15.266 22.7104 15.5158 24.2091 15.8155C26.0075 16.1652 28.1057 16.6148 30.4036 16.6148C32.7016 16.6148 34.7498 16.2152 36.5982 15.8155C38.0969 15.5158 39.3458 15.266 40.5447 15.266C42.8927 15.266 44.841 16.2651 46.8892 21.1608C47.5386 23.3589 47.8383 25.9566 47.8383 28.8041C47.8383 29.8532 47.7884 30.9522 47.6885 32.0013C47.2888 35.6981 43.9418 37.8961 40.9444 37.8961C39.2459 37.8961 37.5474 37.1968 36.3484 35.9479C34.6999 34.2993 32.6017 33.3501 30.4036 33.3501C28.2555 33.3501 26.1074 34.2493 24.4589 35.9479C23.2599 37.1468 21.5614 37.8961 19.8629 37.8961C16.8655 37.8961 13.5684 35.6981 13.1688 32.0013C13.0689 30.9522 13.0189 29.8532 13.0189 28.8041C13.0189 25.9566 13.3186 23.3589 13.9681 21.1608C15.9663 16.2651 17.9146 15.266 20.2625 15.266Z" fill="#B49B7E"/>
</svg>
