<svg width="57" height="62" viewBox="0 0 57 62" fill="none" xmlns="http://www.w3.org/2000/svg">
<path fill-rule="evenodd" clip-rule="evenodd" d="M30.0528 15.4151C34.802 15.4151 43.2106 14.8013 46.3249 10.9651C47.4149 9.58406 47.7263 7.89613 47.2592 6.05476C46.7142 4.05994 45.0013 0.684082 41.5756 0.684082C38.072 0.684082 33.7899 4.36683 28.8849 11.5789L28.1842 12.5763L27.4835 11.5789C22.5785 4.36683 18.2964 0.684082 14.7928 0.684082C11.2893 0.684082 9.5764 4.05994 9.10926 6.05476C8.64212 7.89613 8.95355 9.58406 10.0435 10.9651C13.08 14.878 21.4885 15.4151 26.2378 15.4151H30.0528ZM25.6927 12.2694C19.8534 3.82978 16.3499 2.52548 14.7927 2.52548C11.9899 2.52548 10.9778 6.4384 10.9778 6.51512C10.6663 7.81943 10.822 8.89356 11.5227 9.81425C13.2356 11.9625 18.1406 13.3436 24.992 13.497H26.5491L25.6927 12.2694ZM45.3905 6.51512C45.3905 6.51512 44.4562 2.52548 41.5755 2.52548C40.0184 2.52548 36.5148 3.75306 30.6756 12.2694L29.8191 13.5737H31.3763C38.2277 13.4203 43.1327 12.116 44.8455 9.89098C45.5462 8.89357 45.7019 7.81943 45.3905 6.51512Z" fill="#B49B7E"/>
<path fill-rule="evenodd" clip-rule="evenodd" d="M56.3684 32.5245V21.0927C56.3684 20.5556 55.9013 20.172 55.3563 20.172H0.934283C0.389285 20.172 0 20.5556 0 21.0927V32.5245C0 33.0616 0.389285 33.4452 0.934283 33.4452H3.65928V60.6055C3.65928 61.1426 4.04856 61.5262 4.59356 61.5262H51.7749C52.3199 61.5262 52.7091 61.1426 52.7091 60.6055V33.4452H55.4341C55.9791 33.4452 56.3684 33.0616 56.3684 32.5245ZM33.167 33.4452H50.8405V59.6081H33.167V33.4452ZM23.2013 22.0134H1.86849V31.6039H23.2013V22.0134ZM5.52777 33.4452H23.2013V59.6081H5.52777V33.4452ZM31.2206 22.0134H25.0699V59.6081H31.2206V22.0134ZM33.167 22.0134H54.4998V31.6039H33.167V22.0134Z" fill="#B49B7E"/>
</svg>
