<svg width="59" height="58" viewBox="0 0 59 58" fill="none" xmlns="http://www.w3.org/2000/svg">
<path d="M11.7773 55.8494H2.37577C1.54927 48.7725 2.16915 47.8426 6.97321 47.1195C12.5005 46.2929 17.7178 45.4664 20.4039 39.0094C22.9867 32.7589 22.9867 21.4978 20.4039 2.53983H29.8054C29.8054 2.38486 29.7538 2.22989 29.7538 2.07493L29.4438 0.473572H17.9761L18.131 1.66167C20.8172 20.6713 20.9205 32.294 18.441 38.2345C16.323 43.3485 12.6038 44.175 6.66327 45.0532C-0.56865 46.138 -0.465337 49.7023 0.412825 56.9859L0.516138 57.9157H11.9839L11.9322 57.3991C11.8806 56.8825 11.8289 56.366 11.7773 55.8494Z" fill="#B49B7E"/>
<path d="M32.5951 0.473572L32.7501 1.66167C35.4362 20.6713 35.5395 32.294 33.06 38.2345C30.9421 43.3485 27.1712 44.175 21.2307 45.0532C13.9987 46.138 14.102 49.7023 14.9802 56.9859L15.0835 57.9157H41.9449H56.5121V56.8825C56.5637 54.713 56.3055 50.5804 56.0988 46.2413C55.8922 42.0571 55.6339 37.718 55.6339 35.1868C55.6339 34.7735 55.6339 34.4119 55.6339 33.9987C55.5823 30.641 55.5306 26.8701 58.1651 1.61002L58.3717 0.473572H43.7529H32.5951ZM53.6193 34.0503C53.6193 34.4119 53.6193 34.8252 53.6193 35.2384C53.6193 37.8729 53.8259 42.2121 54.0842 46.3963C54.2909 50.1155 54.4458 53.6282 54.4975 55.9011H39.9303H16.9432C16.1167 48.8241 16.7365 47.8943 21.5406 47.1711C27.0678 46.3446 32.2852 45.5181 34.9713 39.061C37.5541 32.8106 37.5541 21.5495 34.9713 2.59149H41.48H56.0472C53.5677 26.9217 53.6193 30.6927 53.6193 34.0503Z" fill="#B49B7E"/>
</svg>
