<svg width="44" height="64" viewBox="0 0 44 64" fill="none" xmlns="http://www.w3.org/2000/svg">
<path d="M27.2955 0.999878H15.8628V5.57298H27.2955V0.999878Z" stroke="#B49B7E" stroke-width="2" stroke-miterlimit="10" stroke-linecap="round" stroke-linejoin="round"/>
<path d="M27.2949 5.57294L36.2582 9.643C38.499 10.6719 40.0081 12.7984 40.1911 15.245L42.1575 39.8712H34.1088" stroke="#B49B7E" stroke-width="2" stroke-miterlimit="10" stroke-linecap="round" stroke-linejoin="round"/>
<path d="M15.8626 5.57295L6.8993 9.64301C4.65848 10.672 3.14936 12.7984 2.96643 15.2451L1 39.8712H9.04865" stroke="#B49B7E" stroke-width="2" stroke-miterlimit="10" stroke-linecap="round" stroke-linejoin="round"/>
<path d="M21.5791 0.999878V30.725" stroke="#B49B7E" stroke-width="2" stroke-miterlimit="10" stroke-linecap="round" stroke-linejoin="round"/>
<path d="M33.0114 18.149L35.298 62.7368H26.1518L21.5787 39.8713L17.0056 62.7368H7.85938L10.1459 18.149" stroke="#B49B7E" stroke-width="2" stroke-miterlimit="10" stroke-linecap="round" stroke-linejoin="round"/>
<path d="M41.7923 35.2981H33.8809" stroke="#B49B7E" stroke-width="2" stroke-miterlimit="10" stroke-linecap="round" stroke-linejoin="round"/>
<path d="M9.27767 35.2981H1.36621" stroke="#B49B7E" stroke-width="2" stroke-miterlimit="10" stroke-linecap="round" stroke-linejoin="round"/>
<path d="M41.4261 30.725H33.6519" stroke="#B49B7E" stroke-width="2" stroke-miterlimit="10" stroke-linecap="round" stroke-linejoin="round"/>
<path d="M9.5062 30.725H1.73193" stroke="#B49B7E" stroke-width="2" stroke-miterlimit="10" stroke-linecap="round" stroke-linejoin="round"/>
<path d="M26.1523 18.149H33.012" stroke="#B49B7E" stroke-width="2" stroke-miterlimit="10" stroke-linecap="round" stroke-linejoin="round"/>
<path d="M17.0056 18.149H10.146" stroke="#B49B7E" stroke-width="2" stroke-miterlimit="10" stroke-linecap="round" stroke-linejoin="round"/>
</svg>
