<svg width="54" height="61" viewBox="0 0 54 61" fill="none" xmlns="http://www.w3.org/2000/svg">
<path d="M23.3689 60.2798V58.214H8.59864V49.796L2.19473 27.279C1.98815 25.833 2.81446 25.0067 3.74406 24.8001C4.62202 24.5935 5.86149 24.955 6.27464 26.556C7.35917 30.5843 7.92726 32.9083 7.92726 32.9083L9.9414 32.6501V7.55086C9.99304 6.10481 11.0259 5.43343 12.0588 5.43343C12.9884 5.43343 14.073 6.00152 14.073 7.55086V25.11H16.1387V4.60712C16.1387 3.57423 17.0167 2.69628 18.0496 2.69628H18.3594C19.3923 2.69628 20.2703 3.57423 20.2703 4.60712V20.6685C20.9417 20.2554 21.613 19.9455 22.3361 19.7906V6.6729C22.3877 5.22686 23.4206 4.55548 24.4535 4.55548C24.7117 4.55548 25.0216 4.60712 25.2798 4.71041C25.538 4.03903 25.8995 3.47095 26.3127 2.90286C25.7446 2.59299 25.1249 2.4897 24.4535 2.43806C23.6272 2.43806 22.7492 2.64463 22.0262 3.16108C21.4581 1.66339 20.0121 0.578857 18.3078 0.578857H17.9979C16.0354 0.578857 14.3828 2.0249 14.073 3.93575C13.4532 3.57423 12.7302 3.36766 12.0588 3.36766C10.0447 3.31601 7.92726 4.71041 7.82397 7.49921V25.0067C6.84273 23.0442 4.88024 22.3728 3.22762 22.7343C1.31677 23.1475 -0.387491 24.955 0.0773085 27.6405L6.42957 50.0026V60.2282H23.3689V60.2798Z" fill="#B49B7E"/>
<path d="M33.7494 60.2798H53.6842V13.1801C53.6842 10.9077 51.9283 9.66826 50.1207 9.66826H50.0691C49.5526 9.66826 48.9845 9.77155 48.4681 9.97813V6.72453C48.4681 3.98737 46.4539 2.54133 44.4398 2.54133C44.3882 2.54133 44.3882 2.54133 44.3365 2.54133C43.5102 2.54133 42.6839 2.79955 42.0125 3.26435C41.4444 1.76666 39.9984 0.682129 38.2941 0.682129H37.9843C36.0218 0.682129 34.3691 2.12817 34.0593 4.03902C33.4395 3.67751 32.7165 3.47093 32.0451 3.47093C31.9935 3.47093 31.9935 3.47093 31.9419 3.47093C29.9277 3.47093 27.9136 4.86533 27.8103 7.60248V25.1099C27.0356 23.509 25.5379 22.7343 24.0919 22.7343C23.782 22.7343 23.5238 22.7859 23.2139 22.8376C21.3031 23.2507 19.5988 25.0583 20.0636 27.7438L26.4159 50.1059V60.3315H33.7494V60.2798ZM22.1294 27.279C21.9228 25.833 22.7491 25.0067 23.6787 24.8001C23.8337 24.7484 23.9886 24.7484 24.1435 24.7484C24.9699 24.7484 25.8478 25.2132 26.2093 26.556C27.2939 30.5843 27.8619 32.9083 27.8619 32.9083L29.8761 32.65V7.55084C29.9277 6.10479 30.9606 5.43342 31.9419 5.43342C31.9419 5.43342 31.9419 5.43342 31.9935 5.43342C32.9231 5.43342 34.0076 6.00151 34.0076 7.55084V25.1099H36.0734V4.60711C36.0734 3.57422 36.9514 2.69626 37.9843 2.69626H38.2941C39.327 2.69626 40.205 3.57422 40.205 4.60711V25.1616H42.2707V6.62124C42.3224 5.1752 43.3553 4.50382 44.3365 4.50382C44.3365 4.50382 44.3365 4.50382 44.3882 4.50382C45.3178 4.50382 46.4023 5.07191 46.4023 6.62124V25.1099H48.4681V13.0768C48.5197 11.6824 49.9141 11.6824 50.0691 11.6824C50.224 11.6824 51.5667 11.734 51.5667 13.1284V58.1624H31.6836H28.5333V49.796L22.1294 27.279Z" fill="#B49B7E"/>
</svg>
