<svg width="35" height="33" viewBox="0 0 35 33" fill="none" xmlns="http://www.w3.org/2000/svg">
<path fill-rule="evenodd" clip-rule="evenodd" d="M16.5457 18.9574H18.0849V17.3972H16.5457V18.9574ZM17.3461 8.8156C15.553 8.8156 14.2986 10.0872 14.2986 11.905H15.8377C15.8377 10.9454 16.3995 10.3759 17.3461 10.3759C18.2619 10.3759 18.8544 10.9766 18.8544 11.905C18.8544 12.4277 18.4235 13.0908 18.0079 13.4262C16.8382 14.378 16.615 15.283 16.615 16.617H18.1541C18.1541 15.5326 18.3004 15.1816 18.9699 14.6433C19.6779 14.066 20.4013 12.9972 20.4013 11.905C20.3936 10.1106 19.1161 8.8156 17.3461 8.8156ZM17.5 0C7.8496 0 0 6.26454 0 13.9645C0 18.3021 2.56266 22.4213 6.88764 25.0504C6.67986 27.0319 6.14116 28.834 5.25616 30.5504C4.97911 31.0887 4.6482 31.8766 5.00989 32.4851C5.20229 32.8128 5.55629 33 5.96416 33C6.31047 33 6.69525 32.8752 7.19547 32.6177C10.1814 31.0496 12.7133 29.4113 14.7449 27.7418C15.7069 27.8667 16.6073 27.9291 17.5077 27.9291C27.1581 27.9291 35.0077 21.6645 35.0077 13.9645C35 6.26454 27.1504 0 17.5 0ZM17.5 26.361C16.5765 26.361 15.6299 26.2908 14.6141 26.1426L14.2755 26.0957L14.0139 26.3142C12.0745 27.9525 9.61192 29.5674 6.68755 31.1199C7.69569 29.1227 8.28056 27.0163 8.45756 24.6837L8.49604 24.1844L8.06508 23.9426C3.98637 21.6099 1.53914 17.873 1.53914 13.9645C1.53914 7.12269 8.69613 1.56028 17.5 1.56028C26.3039 1.56028 33.4609 7.12269 33.4609 13.9645C33.4609 20.7986 26.3039 26.361 17.5 26.361Z" fill="#BAA081"/>
</svg>
