<svg width="12" height="11" viewBox="0 0 12 11" fill="none" xmlns="http://www.w3.org/2000/svg">
<path d="M10.8765 1.08683C9.38095 -0.361627 6.9472 -0.361627 5.45142 1.08683L0.801182 5.59066C-0.2671 6.62531 -0.2671 8.30894 0.801416 9.34359C1.33556 9.86091 2.03704 10.1197 2.73876 10.1197C3.44024 10.1197 4.1422 9.86091 4.67634 9.34359L8.93892 5.21521C9.24946 4.91444 9.42056 4.5147 9.42056 4.08931C9.42056 3.66392 9.24946 3.26418 8.93892 2.96341C8.2979 2.34258 7.2547 2.34258 6.61392 2.96341L3.82649 5.66307C3.61251 5.87032 3.61251 6.2065 3.82649 6.41375C4.04048 6.621 4.38759 6.621 4.60157 6.41375L7.38899 3.71409C7.60274 3.50707 7.95032 3.50707 8.16407 3.71409C8.26767 3.81442 8.32462 3.94767 8.32462 4.08931C8.32462 4.23096 8.26767 4.3642 8.16407 4.46454L3.90149 8.59291C3.26048 9.21375 2.21751 9.21375 1.57649 8.59291C0.935479 7.97208 0.935479 6.96195 1.57649 6.34111L6.22673 1.83751C7.29524 0.802862 9.03337 0.802862 10.1017 1.83751C10.6192 2.33872 10.9044 3.00518 10.9044 3.71409C10.9044 4.423 10.6194 5.08946 10.1017 5.59066L5.45165 10.0945C5.23767 10.3017 5.23767 10.6379 5.45165 10.8452C5.55876 10.9489 5.69892 11.0007 5.83907 11.0007C5.97923 11.0007 6.11962 10.9489 6.22649 10.8452L10.8765 6.34134C11.6009 5.63947 12.0001 4.70629 12.0001 3.71409C12.0001 2.72166 11.6009 1.78848 10.8765 1.08683Z" fill="black"/>
</svg>
