<svg width="28" height="36" viewBox="0 0 28 36" fill="none" xmlns="http://www.w3.org/2000/svg">
<path fill-rule="evenodd" clip-rule="evenodd" d="M24.8919 0.0269293L23.5405 0.700163L21.3784 0L19.1622 0.727092L16.9459 0L14.7297 0.727092L12.6486 0.0269293H10.3243V7.80951L1.89189 15.996C0.648649 17.3694 0 19.2814 0 21.328C0 24.0479 0 29.1106 0 32.3152V35.3043H10L10.1892 35.1966C10.3243 35.1158 13.3243 33.3116 15.1081 31.1842L15.1892 31.0764L15.2432 30.9418C15.8919 29.0837 16.8108 26.3369 17.5676 24.1017C18 22.7822 18.4054 21.6512 18.5946 21.0318C19.2432 19.2006 19.2703 17.8272 18.6757 16.9655C18 16.0499 16.6216 15.9152 15.1351 16.6423C13.2162 17.5849 12.4865 19.8469 12.0541 21.1934C11.9459 21.5165 11.8649 21.8128 11.7838 21.9743C11.5946 22.4052 11.4595 22.7553 11.3784 23.0246C11.3243 23.1054 11.2973 23.2131 11.2432 23.2939C10.9459 23.2669 9.89189 22.7553 8.83784 22.1628V19.3083L10.3243 17.5041V19.8469H11.8108V1.50804H12.4324L14.7568 2.28899L16.973 1.5619L19.1892 2.28899L21.4054 1.5619L23.6757 2.31592L25.2703 1.53497H26.5676V22.7553L25.0541 21.9743L23.7297 22.6476L22.1081 21.0318L20.3243 22.8091H19.1622V24.2903H20.9459L22.1081 23.1323L23.4324 24.4518L25.0541 23.6439L26.3514 24.2903H28V0.0538587H24.8919V0.0269293ZM10.3243 15.1881L7.37838 18.7697V22.9707L7.72973 23.1862C8.48649 23.6709 10.3784 24.775 11.2432 24.775C12.2973 24.775 12.5135 24.1556 12.7568 23.5362C12.8378 23.2939 12.9459 22.9976 13.1351 22.5937C13.2432 22.3513 13.3514 22.0282 13.4595 21.6512C13.8378 20.4394 14.4324 18.6351 15.7838 17.9619C16.2162 17.7464 16.6486 17.6118 16.9459 17.6118C17.3243 17.6118 17.4324 17.7734 17.4595 17.8272C17.5676 17.9888 17.8649 18.6351 17.1892 20.5471C17 21.1665 16.6216 22.2975 16.1622 23.6439C15.4324 25.8252 14.5405 28.4912 13.8649 30.3494C12.4595 31.9651 10.2162 33.4462 9.56757 33.8232H1.45946V32.3152C1.45946 29.1106 1.45946 24.0479 1.45946 21.328C1.45946 19.6315 2 18.0696 2.94595 17.0193L10.3243 9.85613V15.1881ZM20.6486 5.92445H14V7.40557H20.6216V5.92445H20.6486ZM24.3243 5.92445H22.8378V7.40557H24.3243V5.92445ZM14 10.3139H20.6216V8.85975H14V10.3139ZM22.8378 10.3139H24.3243V8.85975H22.8378V10.3139ZM14 13.2492H20.6216V11.795H14V13.2492ZM22.8378 13.2492H24.3243V11.795H22.8378V13.2492ZM22.8378 16.1845H24.3243V14.7303H22.8378V16.1845Z" fill="#BAA081"/>
</svg>
