<svg width="34" height="36" viewBox="0 0 34 36" fill="none" xmlns="http://www.w3.org/2000/svg">
<path fill-rule="evenodd" clip-rule="evenodd" d="M29.557 34.1921H1.49004V15.6137H11.839V18.583C11.839 18.9916 12.1641 19.3185 12.5705 19.3185H19.208C19.6143 19.3185 19.9394 18.9916 19.9394 18.583V15.6137H25.8454V14.1155H19.208H12.5705H0.731474C0.3251 14.1155 0 14.4424 0 14.851V34.9004C0 35.309 0.3251 35.6359 0.731474 35.6359H30.2884C30.6948 35.6359 31.0199 35.309 31.0199 34.9004V24.5216H29.5299V34.1921H29.557ZM13.302 15.6137H18.4765V17.8475H13.302V15.6137ZM5.1745 32.6939V31.1956H3.68446V32.6939H5.1745ZM8.12749 32.6939V31.1956H6.63745V32.6939H8.12749ZM11.0805 32.6939V31.1956H9.61753V32.6939H11.0805ZM18.7474 13.2165C19.0454 13.4617 19.4789 13.4345 19.7227 13.162L20.4542 12.4265C20.5896 12.2903 20.6709 12.0996 20.6709 11.909V10.4107H22.161C25.412 10.4107 28.0669 13.0803 28.0669 16.3492C28.0669 19.5092 25.5474 23.0233 22.161 23.0233H21.4295C21.0231 23.0233 20.698 23.3502 20.698 23.7588V24.5216C20.698 24.9302 21.0231 25.2571 21.4295 25.2571H22.9195C29.0422 25.2571 34 20.2447 34 14.1155C34 7.959 29.0151 2.97389 22.9195 2.97389H20.698V1.50287C20.698 1.31218 20.6167 1.1215 20.4813 0.985291L19.7227 0.222542C19.4518 -0.0498689 19.0454 -0.07711 18.7474 0.168059L11.3514 6.10661C11.1888 6.24281 11.0805 6.46074 11.0805 6.67867C11.0805 6.8966 11.1888 7.11453 11.3514 7.25073L18.7474 13.2165ZM19.1538 1.74804L19.208 1.80252V3.73664C19.208 4.14525 19.5331 4.47215 19.9394 4.47215H22.8924C28.1753 4.47215 32.51 8.80347 32.51 14.1427C32.51 18.4196 29.7466 22.0426 25.9267 23.323C28.1482 21.7702 29.557 18.9644 29.557 16.3765C29.557 12.2903 26.2518 8.93968 22.161 8.93968H19.9394C19.5331 8.93968 19.208 9.26657 19.208 9.67519V11.6093L19.1538 11.6365L13.004 6.67867L19.1538 1.74804Z" fill="#BAA081"/>
</svg>
