<svg width="161" height="130" viewBox="0 0 161 130" fill="none" xmlns="http://www.w3.org/2000/svg">
<path fill-rule="evenodd" clip-rule="evenodd" d="M153.27 18.27H126.6L127.6 10.37C128.22 3.55 125.9 0 119.06 0H100.59C93.76 0 90.97 3.55 90.35 10.37L89.35 18.27H62.42C57.86 18.27 53.82 21.96 53.41 26.51L50.48 58.26H24.15C22.85 58.26 21.79 59.32 21.79 60.62V61.05C21.79 62.35 22.85 63.41 24.15 63.41H50.01L49.4 70.07H2.36C1.06 70.07 0 71.13 0 72.43V72.86C0 74.16 1.06 75.22 2.36 75.22H48.92L47.72 88.23H33.22C31.92 88.23 30.86 89.29 30.86 90.59V91.02C30.86 92.32 31.92 93.38 33.22 93.38H47.24L44.75 120.34C44.33 124.89 47.69 129.58 52.26 129.58H143.11C147.67 129.58 151.71 125.89 152.12 121.34L160.78 26.53C161.2 21.97 157.83 18.27 153.27 18.27ZM93.61 7.37C93.82 5.1 96.84 3.25 99.12 3.25H119.59C121.87 3.25 124.55 5.1 124.34 7.37L123.34 18.27H92.61L93.61 7.37ZM157.62 25.4C156.5 37.71 150.18 106.9 148.84 121.59C148.51 125.24 145.77 126.7 143 126.7C130.13 126.7 64.54 126.7 53 126.7C50.8 126.7 47.75 123.49 48 120.7C48.4 116.37 49.36 105.9 50.51 93.37H76.67C77.97 93.37 79.03 92.31 79.03 91.01V90.58C79.03 89.28 77.97 88.22 76.67 88.22H50.99C51.38 84 51.78 79.61 52.19 75.21H63.97C65.27 75.21 66.33 74.15 66.33 72.85V72.42C66.33 71.12 65.27 70.06 63.97 70.06H52.66C52.87 67.83 53.07 65.6 53.27 63.4H85.75C87.05 63.4 88.11 62.34 88.11 61.04V60.61C88.11 59.31 87.05 58.25 85.75 58.25H53.75C55.12 43.37 56.31 30.45 56.76 25.55C57.01 22.83 60.34 21.51 62.76 21.51C68.95 21.51 88.88 21.51 88.88 21.51L88.1 32.01C88.1 32.01 87.87 34.13 89.48 34.13C91.09 34.13 91.36 32.01 91.36 32.01L92.13 21.53H122.86L122.09 32.01C122.09 32.01 121.39 34.15 123.43 34.15C125.48 34.15 125.35 32.01 125.35 32.01L126.12 21.53C126.12 21.53 147.35 21.53 153.75 21.53C156.47 21.52 157.85 22.9 157.62 25.4Z" fill="#CAB49A"/>
</svg>
