<svg width="139" height="75" viewBox="0 0 139 75" fill="none" xmlns="http://www.w3.org/2000/svg">
<path fill-rule="evenodd" clip-rule="evenodd" d="M131.679 0H37.667C33.6322 0 30.3493 3.26674 30.3493 7.28173V22.827H12.2769C11.3709 22.827 10.6373 23.557 10.6373 24.4549C10.6373 25.3565 11.3709 26.0865 12.2769 26.0865H38.54C39.446 26.0865 40.1796 25.3565 40.1796 24.4549C40.1796 23.5534 39.446 22.8234 38.54 22.8234H33.6248V7.28173C33.6248 6.77073 33.7239 6.28528 33.8999 5.83998L65.7164 37.5L33.8999 69.16C33.7239 68.7111 33.6248 68.2256 33.6248 67.7183V57.0676C33.6248 56.1661 32.8912 55.4361 31.9852 55.4361C31.0792 55.4361 30.3456 56.1661 30.3456 57.0676V67.7183C30.3456 71.7333 33.6285 75 37.6633 75H131.675C135.71 75 138.993 71.7333 138.993 67.7183V7.28173C139 3.26674 135.717 0 131.679 0ZM36.2145 3.53319C36.6656 3.35799 37.1535 3.25944 37.6633 3.25944H131.675C132.188 3.25944 132.676 3.35799 133.124 3.53319L96.5682 39.9053C94.6608 41.8033 91.9098 44.9569 85.7695 44.9569C78.03 44.9569 74.6884 41.8216 72.7627 39.9053L36.2145 3.53319ZM131.679 71.7406H37.667C37.1535 71.7406 36.6656 71.642 36.2181 71.4668L68.0346 39.8068L70.4555 42.2158C73.0121 44.7562 78.3491 48.22 85.7439 48.22C93.1386 48.22 96.3408 44.7598 98.8974 42.2158L101.318 39.8068L133.135 71.4668C132.68 71.642 132.192 71.7406 131.679 71.7406ZM135.721 67.7183C135.721 68.2293 135.622 68.7147 135.446 69.16L103.629 37.5L135.446 5.83998C135.622 6.28893 135.721 6.77438 135.721 7.28173V67.7183ZM46.7344 37.5C46.7344 36.5984 46.0008 35.8685 45.0948 35.8685H33.6248V30.9775C33.6248 30.0759 32.8912 29.3459 31.9852 29.3459C31.0792 29.3459 30.3456 30.0759 30.3456 30.9775V35.8685H1.63961C0.733606 35.8685 0 36.5984 0 37.5C0 38.4015 0.733606 39.1315 1.63961 39.1315H45.0948C45.9971 39.1315 46.7344 38.4015 46.7344 37.5ZM40.1796 50.5451C40.1796 49.6435 39.446 48.9135 38.54 48.9135H33.6248V44.0225C33.6248 43.121 32.8912 42.391 31.9852 42.391C31.0792 42.391 30.3456 43.121 30.3456 44.0225V48.9135H18.8794C17.9733 48.9135 17.2397 49.6435 17.2397 50.5451C17.2397 51.4466 17.9733 52.1766 18.8794 52.1766H38.54C39.446 52.173 40.1796 51.443 40.1796 50.5451Z" fill="#CAB49A"/>
</svg>
