<svg width="123" height="117" viewBox="0 0 123 117" fill="none" xmlns="http://www.w3.org/2000/svg">
<path fill-rule="evenodd" clip-rule="evenodd" d="M64.62 47.98C64.62 52.95 68.65 56.98 73.62 56.98C78.59 56.98 82.62 52.95 82.62 47.98C82.62 43.01 78.59 38.98 73.62 38.98C68.65 38.98 64.62 43.01 64.62 47.98ZM77.62 47.98C77.62 50.19 75.83 51.98 73.62 51.98C71.41 51.98 69.62 50.19 69.62 47.98C69.62 45.77 71.41 43.98 73.62 43.98C75.83 43.98 77.62 45.77 77.62 47.98ZM48.62 35.98C53.59 35.98 57.62 31.95 57.62 26.98C57.62 22.01 53.59 17.98 48.62 17.98C43.65 17.98 39.62 22.01 39.62 26.98C39.62 31.95 43.65 35.98 48.62 35.98ZM48.62 22.98C50.83 22.98 52.62 24.77 52.62 26.98C52.62 29.19 50.83 30.98 48.62 30.98C46.41 30.98 44.62 29.19 44.62 26.98C44.62 24.77 46.41 22.98 48.62 22.98ZM44.94 57.13C45.37 57.47 45.88 57.64 46.38 57.64C47.06 57.64 47.73 57.34 48.19 56.77L75.94 22.08C76.74 21.08 76.57 19.63 75.58 18.83C74.58 18.03 73.13 18.19 72.33 19.19L44.57 53.88C43.78 54.87 43.94 56.33 44.94 57.13ZM116.42 36.21L115.76 35.66C113.63 33.83 105.24 27.2 102.18 24.78V0H20.44V24.78C17.38 27.19 9 33.83 6.86 35.66L6.2 36.21C3.58 38.42 0 41.44 0 46.63V105.02C0 111.46 5.24 116.7 11.68 116.7H110.94C117.38 116.7 122.62 111.46 122.62 105.02V46.63C122.62 41.44 119.04 38.42 116.42 36.21ZM23.28 2.84H99.35V59.03L80.86 77.53C72.84 84.38 65.77 86.67 61.09 86.67C56.41 86.67 49.75 84.33 41.95 77.69L23.28 59.02V2.84ZM119.78 107.02C119.78 110.24 114.16 113.86 110.94 113.86H8.68C5.46 113.86 2.84 108.24 2.84 105.02V45.63C2.84 43.32 5.4 40.84 7.97 38.67L8.66 38.08C10.63 36.4 17.63 30.39 20.44 27.99V56.18L12.75 48.49L10.62 50.62L20.44 60.44V61.24H21.24L34.84 74.83L9.61 100.04L11.74 102.17L36.96 76.95L38.98 78.97C49.19 87.69 56.18 89.51 61.03 89.51C65.88 89.51 73.39 87.74 83.82 78.82L85.67 76.97L110.88 102.18L113.01 100.05L87.8 74.83L101.4 61.23H102.19V60.44L112.01 50.62L109.88 48.49L102.19 56.19V28.17C105.49 30.68 113.04 36.44 114.97 38.09L115.66 38.68C118.23 40.85 119.79 43.32 119.79 45.64V107.02H119.78Z" fill="#CAB49A"/>
</svg>
