<svg width="66" height="55" viewBox="0 0 66 55" fill="none" xmlns="http://www.w3.org/2000/svg">
<path d="M23.8718 36.3076C15.9046 36.3076 0 40.3061 0 48.2435V54.2114H47.7435V48.2435C47.7435 40.3061 31.8389 36.3076 23.8718 36.3076Z" fill="#B49B7E"/>
<path d="M62.9642 11.9584C62.994 11.6302 63.0239 11.302 63.0239 10.9439C63.0239 10.5858 62.994 10.2576 62.9343 9.92934L65.1425 8.19864C65.3514 8.04944 65.3812 7.75105 65.2618 7.54217L63.1731 3.93156C63.0537 3.69285 62.7553 3.63317 62.5464 3.69285L59.9802 4.73724C59.4431 4.31948 58.8463 3.99124 58.2197 3.72269L57.8318 0.947596C57.7721 0.679038 57.5632 0.5 57.2946 0.5H53.1171C52.8485 0.5 52.6397 0.679038 52.6098 0.947596L52.2219 3.72269C51.5953 3.99124 50.9985 4.34932 50.4614 4.73724L47.8653 3.69285C47.6266 3.60333 47.358 3.69285 47.2387 3.93156L45.1499 7.54217C45.0305 7.78088 45.0604 8.04944 45.2693 8.19864L47.4774 9.92934C47.4177 10.2576 47.3879 10.6157 47.3879 10.9439C47.3879 11.2721 47.4177 11.6302 47.4774 11.9584L45.2693 13.6891C45.0604 13.8383 45.0305 14.1367 45.1499 14.3456L47.2387 17.9562C47.358 18.1949 47.6564 18.2546 47.8653 18.1949L50.4614 17.1505C50.9985 17.5683 51.5953 17.8965 52.2219 18.1651L52.6098 20.9402C52.6397 21.2087 52.8485 21.3878 53.1171 21.3878H57.2946C57.5632 21.3878 57.7721 21.2087 57.8019 20.9402L58.1898 18.1651C58.8165 17.8965 59.4133 17.5385 59.9504 17.1505L62.5464 18.1949C62.7851 18.2845 63.0537 18.1949 63.1731 17.9562L65.2618 14.3456C65.3812 14.1069 65.3514 13.8383 65.1425 13.6891L62.9642 11.9584ZM55.2059 14.6739C53.1469 14.6739 51.4759 13.0028 51.4759 10.9439C51.4759 8.88495 53.1469 7.21393 55.2059 7.21393C57.2648 7.21393 58.9358 8.88495 58.9358 10.9439C58.9358 13.0028 57.2648 14.6739 55.2059 14.6739Z" fill="#B49B7E"/>
<path d="M56.4585 26.401L54.9665 23.805C54.877 23.6259 54.6681 23.5662 54.5189 23.6259L52.6688 24.3719C52.2809 24.0735 51.8632 23.8348 51.4156 23.6558L51.147 21.6863C51.0873 21.5073 50.9083 21.3879 50.7293 21.3879H47.7453C47.5662 21.3879 47.417 21.5073 47.3872 21.7162L47.1187 23.6856C46.6711 23.8646 46.2533 24.1332 45.8654 24.4017L44.0153 23.6558C43.8363 23.5961 43.6572 23.6558 43.5677 23.8348L42.0757 26.4308C41.9862 26.6099 42.0161 26.7889 42.1653 26.9083L43.7468 28.1317C43.7169 28.3704 43.6871 28.6091 43.6871 28.8479C43.6871 29.0866 43.7169 29.3551 43.7468 29.564L42.1653 30.7874C42.0161 30.9068 41.9862 31.1157 42.0757 31.2649L43.5677 33.8609C43.6572 34.04 43.8661 34.0996 44.0153 34.04L45.8654 33.294C46.2533 33.5924 46.6711 33.8311 47.1187 34.0101L47.3872 35.9796C47.417 36.1884 47.5662 36.3078 47.7453 36.3078H50.7293C50.9083 36.3078 51.0873 36.1884 51.0873 35.9796L51.3559 34.0101C51.8035 33.8311 52.2212 33.5625 52.6092 33.294L54.4592 34.04C54.6383 34.0996 54.8173 34.04 54.9068 33.8609L56.3988 31.2649C56.4883 31.0858 56.4585 30.9068 56.3093 30.7874L54.7576 29.564C54.7875 29.3253 54.8173 29.0866 54.8173 28.8479C54.8173 28.6091 54.7875 28.3406 54.7576 28.1317L56.3391 26.9083C56.4883 26.7889 56.5182 26.58 56.4585 26.401ZM49.2373 31.3246C47.8646 31.3246 46.7606 30.1906 46.7606 28.8479C46.7606 27.4752 47.8945 26.3712 49.2373 26.3712C50.5801 26.3712 51.714 27.5051 51.714 28.8479C51.714 30.2205 50.6099 31.3246 49.2373 31.3246Z" fill="#B49B7E"/>
<path d="M11.1594 18.404H36.6127C37.4183 18.404 38.0748 17.7475 38.0748 16.9418V16.8822C38.0748 16.0765 37.4183 15.42 36.6127 15.42H35.807C35.807 11.0037 33.39 7.21409 29.8391 5.12531V7.96008C29.8391 8.7956 29.1826 9.45207 28.3471 9.45207C27.5116 9.45207 26.8551 8.7956 26.8551 7.96008V3.90189C25.9002 3.66317 24.9155 3.48413 23.8711 3.48413C22.8267 3.48413 21.842 3.66317 20.8871 3.90189V7.96008C20.8871 8.7956 20.2307 9.45207 19.3952 9.45207C18.5597 9.45207 17.9032 8.7956 17.9032 7.96008V5.12531C14.3523 7.21409 11.9352 11.0037 11.9352 15.42H11.1594C10.3537 15.42 9.69727 16.0765 9.69727 16.8822V16.9717C9.69727 17.7475 10.3537 18.404 11.1594 18.404Z" fill="#B49B7E"/>
<path d="M23.8736 30.3398C29.4238 30.3398 34.0489 26.5204 35.3917 21.3879H12.3555C13.6983 26.5204 18.3234 30.3398 23.8736 30.3398Z" fill="#B49B7E"/>
</svg>
