<svg width="45" height="55" viewBox="0 0 45 55" fill="none" xmlns="http://www.w3.org/2000/svg">
<path d="M44.3522 10.6478L22.1761 0.791748L0 10.6478V25.4319C0 39.1071 9.46181 51.8953 22.1761 55C27.8433 53.6202 32.8453 50.3184 36.6645 45.8585L28.9768 38.1708C24.1966 41.3494 17.6916 40.8073 13.4781 36.5938C8.67332 31.789 8.67332 23.9781 13.4781 19.1733C18.283 14.3685 26.0939 14.3685 30.8987 19.1733C35.1122 23.3867 35.6296 29.8917 32.4757 34.6719L39.6213 41.8175C42.6028 36.9881 44.3522 31.2962 44.3522 25.4319V10.6478Z" fill="#B49B7E"/>
<path d="M22.1752 35.2877C26.2577 35.2877 29.5673 31.9782 29.5673 27.8957C29.5673 23.8132 26.2577 20.5037 22.1752 20.5037C18.0927 20.5037 14.7832 23.8132 14.7832 27.8957C14.7832 31.9782 18.0927 35.2877 22.1752 35.2877Z" fill="#B49B7E"/>
</svg>
