<svg width="61" height="55" viewBox="0 0 61 55" fill="none" xmlns="http://www.w3.org/2000/svg">
<path d="M23.1047 45.2335C22.7923 44.6091 22.248 44.5459 22.0277 44.5459C21.8074 44.5459 21.2631 44.6081 20.9665 45.1987L20.1543 46.8166C19.4797 48.1645 17.5035 48.0158 17.0323 46.5962L15.2499 41.2732L14.1263 44.6355C13.5025 46.4981 11.7562 47.75 9.78432 47.75H8.47219C7.53601 47.75 6.77775 46.9948 6.77775 46.0625C6.77775 45.1302 7.53601 44.375 8.47219 44.375H9.78432C10.2958 44.375 10.7491 44.0502 10.9111 43.5671L12.8375 37.8043C13.187 36.7696 14.1549 36.0736 15.2499 36.0736C16.345 36.0736 17.3129 36.7686 17.6613 37.8043L19.1313 42.196C21.2228 40.4885 24.8563 41.173 26.1208 43.6895C26.321 44.0881 26.7022 44.317 27.1121 44.3497V35.6886L40.6675 22.2846V17.375H26.2638C24.8659 17.375 23.7221 16.2359 23.7221 14.8438V0.5H2.54166C1.13315 0.5 0 1.62852 0 3.03125V51.9688C0 53.3715 1.13315 54.5 2.54166 54.5H38.1248C39.5333 54.5 40.6665 53.3715 40.6665 51.9688V47.75L27.111 47.7384C25.4038 47.7057 23.8725 46.7597 23.1047 45.2335ZM40.6665 13.3566C40.6665 12.6922 40.4017 12.0488 39.9252 11.5742L29.5573 1.23828C29.0808 0.763672 28.4348 0.5 27.757 0.5H27.111V14H40.6665V13.3566ZM30.4999 37.0934V44.375H37.8061L54.9284 27.2068L47.7397 20.0476L30.4999 37.0934ZM60.2097 18.1481L56.8346 14.7868C55.7819 13.7384 54.0737 13.7384 53.0211 14.7868L50.1352 17.6608L57.3239 24.82L60.2097 21.946C61.2634 20.8977 61.2634 19.1964 60.2097 18.1481Z" fill="#B49B7E"/>
</svg>
