<svg width="66" height="66" viewBox="0 0 66 66" fill="none" xmlns="http://www.w3.org/2000/svg">
<rect width="66" height="66" rx="17" fill="#FAF4EF"/>
<path d="M41.75 21.75H36.525C36 20.3 34.625 19.25 33 19.25C31.375 19.25 30 20.3 29.475 21.75H24.25C22.875 21.75 21.75 22.875 21.75 24.25V41.75C21.75 43.125 22.875 44.25 24.25 44.25H41.75C43.125 44.25 44.25 43.125 44.25 41.75V24.25C44.25 22.875 43.125 21.75 41.75 21.75ZM33 21.75C33.6875 21.75 34.25 22.3125 34.25 23C34.25 23.6875 33.6875 24.25 33 24.25C32.3125 24.25 31.75 23.6875 31.75 23C31.75 22.3125 32.3125 21.75 33 21.75ZM30.5 39.25L25.5 34.25L27.2625 32.4875L30.5 35.7125L38.7375 27.475L40.5 29.25L30.5 39.25Z" fill="#B49B7E"/>
</svg>
