<svg width="66" height="66" viewBox="0 0 66 66" fill="none" xmlns="http://www.w3.org/2000/svg">
<rect width="66" height="66" rx="17" fill="#FAF4EF"/>
<path d="M33 20.5C26.1 20.5 20.5 26.1 20.5 33C20.5 39.9 26.1 45.5 33 45.5C39.9 45.5 45.5 39.9 45.5 33C45.5 26.1 39.9 20.5 33 20.5ZM42.325 29.4L38.85 30.8375C38.2125 29.1375 36.875 27.7875 35.1625 27.1625L36.6 23.6875C39.225 24.6875 41.3125 26.775 42.325 29.4ZM33 36.75C30.925 36.75 29.25 35.075 29.25 33C29.25 30.925 30.925 29.25 33 29.25C35.075 29.25 36.75 30.925 36.75 33C36.75 35.075 35.075 36.75 33 36.75ZM29.4125 23.675L30.875 27.15C29.15 27.775 27.7875 29.1375 27.15 30.8625L23.675 29.4125C24.6875 26.775 26.775 24.6875 29.4125 23.675ZM23.675 36.5875L27.15 35.15C27.7875 36.875 29.1375 38.225 30.8625 38.85L29.4 42.325C26.775 41.3125 24.6875 39.225 23.675 36.5875ZM36.6 42.325L35.1625 38.85C36.875 38.2125 38.225 36.8625 38.85 35.1375L42.325 36.6C41.3125 39.225 39.225 41.3125 36.6 42.325Z" fill="#B49B7E"/>
</svg>
