<svg width="66" height="66" viewBox="0 0 66 66" fill="none" xmlns="http://www.w3.org/2000/svg">
<rect width="66" height="66" rx="17" fill="#FAF4EF"/>
<path d="M30.1 35.1125L33 32.9125L35.8875 35.1125L34.7875 31.55L37.6875 29.25H34.1375L33 25.7375L31.8625 29.25H28.3125L31.2 31.55L30.1 35.1125ZM43 30.5C43 24.975 38.525 20.5 33 20.5C27.475 20.5 23 24.975 23 30.5C23 33.0375 23.95 35.3375 25.5 37.1V46.75L33 44.25L40.5 46.75V37.1C42.05 35.3375 43 33.0375 43 30.5ZM33 23C37.1375 23 40.5 26.3625 40.5 30.5C40.5 34.6375 37.1375 38 33 38C28.8625 38 25.5 34.6375 25.5 30.5C25.5 26.3625 28.8625 23 33 23Z" fill="#B49B7E"/>
</svg>
