<svg width="66" height="66" viewBox="0 0 66 66" fill="none" xmlns="http://www.w3.org/2000/svg">
<rect width="66" height="66" rx="17" fill="#FAF4EF"/>
<path d="M45.5 25.15L39.75 20.325L38.1375 22.2375L43.8875 27.0625L45.5 25.15ZM27.85 22.2375L26.25 20.325L20.5 25.1375L22.1125 27.05L27.85 22.2375ZM33.625 28H31.75V35.5L37.6875 39.0625L38.625 37.525L33.625 34.5625V28ZM33 23C26.7875 23 21.75 28.0375 21.75 34.25C21.75 40.4625 26.775 45.4999 33 45.4999C39.2125 45.4999 44.25 40.4625 44.25 34.25C44.25 28.0375 39.2125 23 33 23ZM33 42.9999C28.1625 42.9999 24.25 39.0875 24.25 34.25C24.25 29.4125 28.1625 25.5 33 25.5C37.8375 25.5 41.75 29.4125 41.75 34.25C41.75 39.0875 37.8375 42.9999 33 42.9999Z" fill="#B49B7E"/>
</svg>
