<svg width="66" height="66" viewBox="0 0 66 66" fill="none" xmlns="http://www.w3.org/2000/svg">
<rect width="66" height="66" rx="17" fill="#FAF4EF"/>
<path d="M33 20.5C26.1 20.5 20.5 26.1 20.5 33C20.5 34.6625 20.825 36.2625 21.425 37.7125L28 31.125L32.125 34.6L36.225 30.5H34.25V28H40.5V34.25H38V32.275L32.2625 38L28.15 34.5125L22.65 40.0125C24.9 43.325 28.7 45.5 33 45.5H43C44.375 45.5 45.5 44.375 45.5 43V33C45.5 26.1 39.9 20.5 33 20.5ZM42.375 43.625C41.6875 43.625 41.125 43.0625 41.125 42.375C41.125 41.6875 41.6875 41.125 42.375 41.125C43.0625 41.125 43.625 41.6875 43.625 42.375C43.625 43.0625 43.0625 43.625 42.375 43.625Z" fill="#B49B7E"/>
</svg>
