<svg width="24" height="24" viewBox="0 0 24 24" fill="none" xmlns="http://www.w3.org/2000/svg">
<path d="M5.14453 0.0625H11.1562V6.8125H0.1875L2.87695 1.48633C3.36914 0.572266 4.125 0.0976563 5.14453 0.0625ZM12.8438 0.0625H18.8555C19.875 0.0976563 20.6309 0.572266 21.123 1.48633L23.8125 6.8125H12.8438V0.0625ZM0.1875 8.5H23.8125V20.3125C23.7773 21.2617 23.4434 22.0527 22.8105 22.6855C22.1777 23.3184 21.3867 23.6523 20.4375 23.6875H3.5625C2.61328 23.6523 1.82227 23.3184 1.18945 22.6855C0.556641 22.0527 0.222656 21.2617 0.1875 20.3125V8.5ZM13.0547 11.0312C12.9844 10.3984 12.6328 10.0469 12 9.97656C11.3672 10.0469 11.0156 10.3984 10.9453 11.0312V11.3477C10.6289 11.418 10.3477 11.5059 10.1016 11.6113C9.25781 11.9629 8.71289 12.6309 8.4668 13.6152C8.36133 14.1426 8.41406 14.6523 8.625 15.1445C8.87109 15.6016 9.1875 15.9355 9.57422 16.1465C10.2422 16.5684 10.9102 16.8496 11.5781 16.9902L11.6836 17.043C12.4219 17.2539 12.9492 17.4648 13.2656 17.6758C13.3711 17.7461 13.4238 17.8164 13.4238 17.8867C13.459 17.9219 13.4766 18.0449 13.4766 18.2559C13.4414 18.4316 13.3008 18.5723 13.0547 18.6777C12.7031 18.8535 12.1934 18.8887 11.5254 18.7832C11.1387 18.7129 10.6816 18.5723 10.1543 18.3613C10.0137 18.3262 9.89062 18.291 9.78516 18.2559C9.1875 18.1152 8.74805 18.3438 8.4668 18.9414C8.32617 19.5742 8.55469 20.0137 9.15234 20.2598C9.22266 20.2949 9.29297 20.3301 9.36328 20.3652C9.85547 20.541 10.3828 20.6992 10.9453 20.8398V21.1562C11.0156 21.7891 11.3672 22.1406 12 22.2109C12.6328 22.1406 12.9844 21.7891 13.0547 21.1562V20.8926C13.3359 20.8223 13.6172 20.7344 13.8984 20.6289C14.7773 20.2773 15.3223 19.5918 15.5332 18.5723C15.6387 18.0449 15.5859 17.5352 15.375 17.043C15.1641 16.5508 14.8652 16.1816 14.4785 15.9355C13.7754 15.5137 13.0723 15.2148 12.3691 15.0391H12.3164C11.5781 14.8281 11.0508 14.6172 10.7344 14.4062C10.6289 14.3359 10.5762 14.2832 10.5762 14.248C10.541 14.248 10.5234 14.1602 10.5234 13.9844C10.5234 13.8438 10.6816 13.7031 10.998 13.5625C11.3496 13.3867 11.8418 13.334 12.4746 13.4043C12.6152 13.4395 12.8086 13.4746 13.0547 13.5098C13.3359 13.5801 13.5293 13.6152 13.6348 13.6152C14.2676 13.7207 14.707 13.4746 14.9531 12.877C15.0586 12.2441 14.7949 11.8223 14.1621 11.6113C13.8457 11.5059 13.4766 11.418 13.0547 11.3477V11.0312Z" fill="#1D2A3D"/>
</svg>
