<svg width="34" height="22" viewBox="0 0 34 22" fill="none" xmlns="http://www.w3.org/2000/svg">
<path d="M22.8867 0.75C23.3613 0.75 23.7832 0.960938 24.0996 1.27734L26.9473 4.125V14.3555C26.8418 14.1973 26.6836 14.0918 26.5781 13.9336L18.8789 7.71094L20.25 6.44531C20.6191 6.12891 20.6191 5.60156 20.3027 5.28516C19.9863 4.91602 19.459 4.91602 19.0898 5.23242L14.9238 9.08203C14.8711 9.08203 14.8711 9.08203 14.8711 9.08203C13.9746 9.87305 12.6035 9.66211 11.918 8.92383C11.1797 8.13281 11.1797 6.81445 12.0234 5.9707L17.2441 1.22461C17.5605 0.908203 17.9297 0.75 18.3516 0.75H22.8867ZM28.6875 4.17773H33.75V17.6777H30.375C29.4258 17.6777 28.6875 16.8867 28.6875 15.9902V4.17773ZM31.2188 15.9902C31.6406 15.9902 32.0625 15.5684 32.0625 15.1465C32.0625 14.6719 31.6406 14.3027 31.2188 14.3027C30.7441 14.3027 30.375 14.6719 30.375 15.1465C30.375 15.5684 30.7441 15.9902 31.2188 15.9902ZM0 17.625V4.17773H5.0625V15.9375C5.0625 16.8867 4.27148 17.625 3.375 17.625H0ZM2.53125 14.3027C2.05664 14.3027 1.6875 14.6719 1.6875 15.1465C1.6875 15.5684 2.05664 15.9902 2.53125 15.9902C2.95312 15.9902 3.375 15.5684 3.375 15.1465C3.375 14.6719 2.95312 14.3027 2.53125 14.3027ZM25.4707 15.252C26.209 15.832 26.3145 16.8867 25.7344 17.625L25.2598 18.2578C24.627 18.9961 23.5723 19.1016 22.8867 18.5215L22.5703 18.2578L20.9355 20.3145C20.25 21.1582 18.9844 21.2637 18.1406 20.5781L17.2441 19.7871H17.1914C16.0312 21.2109 13.9219 21.4746 12.4453 20.2617L7.69922 15.9375H6.75V4.125L9.59766 1.27734C9.91406 0.960938 10.3359 0.75 10.8105 0.75H15.2402L10.916 4.70508C9.38672 6.12891 9.28125 8.55469 10.6523 10.084C12.0762 11.6133 14.4492 11.7715 16.0312 10.2949L17.6133 8.87109L25.4707 15.252Z" fill="#1D2A3D"/>
</svg>
