<svg width="28" height="26" viewBox="0 0 28 26" fill="none" xmlns="http://www.w3.org/2000/svg">
<path d="M10.2031 2.90625C9.95703 2.94141 9.81641 3.08203 9.78125 3.32812V5.4375H18.2188V3.32812C18.1836 3.08203 18.043 2.94141 17.7969 2.90625H10.2031ZM7.25 3.32812C7.28516 2.48438 7.56641 1.78125 8.09375 1.21875C8.65625 0.691406 9.35938 0.410156 10.2031 0.375H17.7969C18.6406 0.410156 19.3438 0.691406 19.9062 1.21875C20.4336 1.78125 20.7148 2.48438 20.75 3.32812V5.4375H24.125C25.0742 5.47266 25.8652 5.80664 26.498 6.43945C27.1309 7.07227 27.4648 7.86328 27.5 8.8125V13.875H17.375H10.625H0.5V8.8125C0.535156 7.86328 0.869141 7.07227 1.50195 6.43945C2.13477 5.80664 2.92578 5.47266 3.875 5.4375H7.25V3.32812ZM27.5 15.5625V22.3125C27.4648 23.2617 27.1309 24.0527 26.498 24.6855C25.8652 25.3184 25.0742 25.6523 24.125 25.6875H3.875C2.92578 25.6523 2.13477 25.3184 1.50195 24.6855C0.869141 24.0527 0.535156 23.2617 0.5 22.3125V15.5625H10.625V17.25C10.625 17.7422 10.7832 18.1465 11.0996 18.4629C11.416 18.7793 11.8203 18.9375 12.3125 18.9375H15.6875C16.1797 18.9375 16.584 18.7793 16.9004 18.4629C17.2168 18.1465 17.375 17.7422 17.375 17.25V15.5625H27.5Z" fill="#1D2A3D"/>
</svg>
