<svg width="34" height="24" viewBox="0 0 34 24" fill="none" xmlns="http://www.w3.org/2000/svg">
<path d="M3.5 0.0625H22.0625C23.0117 0.0976563 23.8027 0.431641 24.4355 1.06445C25.0684 1.69727 25.4023 2.48828 25.4375 3.4375V5.96875H28.0215C28.9355 6.00391 29.6914 6.37305 30.2891 7.07617L33.4004 10.8203C33.7168 11.207 33.875 11.6641 33.875 12.1914V12.7188V13.5625V16.9375C33.875 17.4297 33.7168 17.834 33.4004 18.1504C33.084 18.4668 32.6797 18.625 32.1875 18.625H32.082C32.1523 18.9062 32.1875 19.1875 32.1875 19.4688C32.1523 20.6641 31.748 21.666 30.9746 22.4746C30.166 23.248 29.1641 23.6523 27.9688 23.6875C26.7734 23.6523 25.7715 23.248 24.9629 22.4746C24.1895 21.666 23.7852 20.6641 23.75 19.4688C23.75 19.1875 23.7852 18.9062 23.8555 18.625H22.0625H15.207C15.2773 18.9062 15.3125 19.1875 15.3125 19.4688C15.2773 20.6641 14.873 21.666 14.0996 22.4746C13.291 23.248 12.2891 23.6523 11.0938 23.6875C9.65234 23.6523 8.52734 23.0898 7.71875 22C6.91016 23.0898 5.78516 23.6523 4.34375 23.6875C3.14844 23.6523 2.14648 23.248 1.33789 22.4746C0.564453 21.666 0.160156 20.6641 0.125 19.4688V18.625V14.4062V3.4375C0.160156 2.48828 0.494141 1.69727 1.12695 1.06445C1.75977 0.431641 2.55078 0.0976563 3.5 0.0625ZM30.9746 11.875L28.3379 8.6582C28.2676 8.55273 28.1621 8.5 28.0215 8.5H25.4375V11.875H30.9746ZM27.9688 21.1562C28.4609 21.1562 28.8652 20.998 29.1816 20.6816C29.498 20.3652 29.6562 19.9609 29.6562 19.4688C29.6562 18.9766 29.498 18.5723 29.1816 18.2559C28.8652 17.9395 28.4609 17.7812 27.9688 17.7812C27.4766 17.7812 27.0723 17.9395 26.7559 18.2559C26.4395 18.5723 26.2812 18.9766 26.2812 19.4688C26.2812 19.9609 26.4395 20.3652 26.7559 20.6816C27.0723 20.998 27.4766 21.1562 27.9688 21.1562ZM12.7812 19.4688C12.7812 18.9766 12.623 18.5723 12.3066 18.2559C11.9902 17.9395 11.5859 17.7812 11.0938 17.7812C10.6016 17.7812 10.1973 17.9395 9.88086 18.2559C9.56445 18.5723 9.40625 18.9766 9.40625 19.4688C9.40625 19.9609 9.56445 20.3652 9.88086 20.6816C10.1973 20.998 10.6016 21.1562 11.0938 21.1562C11.5859 21.1562 11.9902 20.998 12.3066 20.6816C12.623 20.3652 12.7812 19.9609 12.7812 19.4688ZM4.34375 21.1562C4.83594 21.1562 5.24023 20.998 5.55664 20.6816C5.87305 20.3652 6.03125 19.9609 6.03125 19.4688C6.03125 18.9766 5.87305 18.5723 5.55664 18.2559C5.24023 17.9395 4.83594 17.7812 4.34375 17.7812C3.85156 17.7812 3.44727 17.9395 3.13086 18.2559C2.81445 18.5723 2.65625 18.9766 2.65625 19.4688C2.65625 19.9609 2.81445 20.3652 3.13086 20.6816C3.44727 20.998 3.85156 21.1562 4.34375 21.1562Z" fill="#1D2A3D"/>
</svg>
