<svg width="259" height="54" viewBox="0 0 259 54" fill="none" xmlns="http://www.w3.org/2000/svg">
<path fill-rule="evenodd" clip-rule="evenodd" d="M40.29 0C36.1581 0 32.7011 1.38929 29.9255 4.17426C27.1499 6.95923 25.762 10.4228 25.762 14.5651C25.762 18.6945 27.1499 22.3374 29.9255 25.1224C32.7011 27.9138 36.1517 29.3094 40.2837 29.3094C44.4156 29.3094 47.8662 27.9202 50.6418 25.1352C53.4175 22.3502 54.8053 18.7073 54.8053 14.5651C54.8053 10.4228 53.4175 6.95923 50.6418 4.17426C47.8725 1.38929 44.4156 0 40.29 0ZM46.5793 21.4283C44.9644 23.1761 42.8764 24.0532 40.3026 24.0532C37.7099 24.0532 35.6029 23.1761 33.988 21.4283C32.3731 19.6805 31.5656 17.158 31.5656 14.5651C31.5656 11.9722 32.3731 9.80823 33.988 8.06042C35.6029 6.31261 37.691 5.4355 40.2647 5.4355C42.8574 5.4355 44.9644 6.31261 46.5793 8.06042C48.1942 9.80823 49.0017 11.9786 49.0017 14.5651C49.0017 17.158 48.1942 19.6805 46.5793 21.4283ZM130.403 13.5727C131.69 12.7084 132.416 11.0439 132.504 8.45736C132.504 4.37913 129.646 0.454559 124.814 0.17286H111.775V29.2902L126.133 29.3094C131.097 29.3094 134.605 26.358 134.605 20.6408C134.605 17.9263 132.542 14.738 130.403 13.5727ZM117.535 5.4291H123.376C125.647 5.50592 126.537 6.76076 126.537 8.32291C126.537 9.88506 125.653 11.2743 123.345 11.3128H117.528V5.4291H117.535ZM124.877 24.1044H117.535V16.5882H124.928C127.256 16.6586 128.65 18.4384 128.65 20.3399C128.65 22.2414 127.237 24.0724 124.877 24.1044ZM187.859 24.066L189.783 29.3159L195.89 29.2966L184.427 0H178.687L167.2 29.3159H173.325L175.249 24.066H187.859ZM181.709 7.77232L185.96 18.7842H177.35L181.709 7.77232ZM220.46 19.4756L206.342 0.0960336L200.551 0.147251V29.3159H206.292V9.85945L220.511 29.2902L226.201 29.3159V0.147251H220.46V19.4756ZM244.394 0.160056H233.329V29.2902H244.394C253.036 29.2902 258.991 24.2837 258.991 14.5715C258.991 4.8465 252.588 0.160056 244.394 0.160056ZM244.394 24.066H239.076V5.47391H244.394C249.484 5.47391 253.232 8.73906 253.251 14.5715C253.238 20.3975 249.484 24.0532 244.394 24.066ZM21.3463 8.8607C21.3463 8.8607 21.321 0.153654 11.9659 0.153654L0.0117188 0.204872V29.3415H5.75224V17.9647H10.9944L17.8641 29.3415H24.4499L16.7538 16.9595C19.8133 15.1541 21.3463 12.7212 21.3463 8.8607ZM11.9974 12.6956H5.75224V5.46111H12.0542C14.3252 5.53794 15.4922 7.1449 15.5553 9.05917C15.4922 11.1527 14.3062 12.6572 11.9974 12.6956ZM164.55 29.3415L156.848 16.9595C159.907 15.1541 161.44 12.7212 161.44 8.8607C161.44 8.8607 161.415 0.153654 152.06 0.153654L140.106 0.204872V29.3415H145.846V17.9647H151.088L157.958 29.3415H164.55ZM152.091 12.6956H145.846V5.46111H152.148C154.419 5.53794 155.586 7.1449 155.649 9.05917C155.592 11.1527 154.406 12.6572 152.091 12.6956ZM71.2131 11.6201C67.7183 11.0951 66.0277 10.6853 65.3842 9.91067C64.11 8.35492 65.5924 5.4419 70.1848 5.4419C72.481 5.4419 74.2158 6.31261 75.4964 7.86195L79.3759 4.07182C76.8274 1.48532 74.3987 0 69.0619 0C63.7819 0 59.0886 3.39319 59.0886 8.54699C59.0886 14.245 64.7092 16.1528 69.3017 16.6714C75.0359 17.254 75.1116 20.1671 75.1116 20.4423C75.1116 20.7753 74.5438 23.8483 68.8096 23.8483C65.7501 23.5922 63.3151 22.1325 62.0408 20.5768L58.1676 24.3733C60.7161 26.9662 63.8892 29.2838 69.2196 29.2838C76.2029 29.2838 80.789 25.3657 80.789 20.6984C80.7827 14.5459 75.591 12.2795 71.2131 11.6201ZM94.5536 23.8483C91.4941 23.5922 89.0591 22.1325 87.7849 20.5768L83.9116 24.3733C86.4601 26.9662 89.6332 29.2838 94.9637 29.2838C101.947 29.2838 106.533 25.3657 106.533 20.6984C106.533 14.5459 101.341 12.2731 96.9634 11.6137C93.4686 11.0887 91.778 10.6789 91.1345 9.90426C89.8603 8.34852 91.3427 5.4355 95.9351 5.4355C98.2313 5.4355 99.9661 6.30621 101.247 7.85555L105.126 4.06542C102.571 1.48532 100.143 0 94.806 0C89.5259 0 84.8326 3.39319 84.8326 8.54699C84.8326 14.245 90.4532 16.1528 95.0457 16.6714C100.78 17.254 100.856 20.1671 100.856 20.4423C100.856 20.7753 100.288 23.8483 94.5536 23.8483ZM72.2476 43.6953L68.2482 53.9709H70.3804L71.049 52.127H75.4459L76.1146 53.9709L78.2405 53.9645L74.2473 43.6953H72.2476ZM71.7871 50.2832L73.3074 46.4226L74.7898 50.2832H71.7871ZM63.7441 47.7671C62.5266 47.5814 61.9336 47.4406 61.7128 47.1653C61.2649 46.6211 61.7822 45.5967 63.3845 45.5967C64.1857 45.5967 64.7912 45.8977 65.2328 46.4482L66.5828 45.123C65.6933 44.2139 64.848 43.6953 62.9871 43.6953C61.1514 43.6953 59.5112 44.8861 59.5112 46.6915C59.5112 48.689 61.4668 49.3549 63.0691 49.5405C65.0688 49.7454 65.094 50.7634 65.094 50.8594C65.094 50.9746 64.8985 52.0566 62.8988 52.0566C61.8327 51.967 60.9811 51.4548 60.5395 50.9106L59.1895 52.2423C60.079 53.1514 61.1829 53.9645 63.0376 53.9645C65.4725 53.9645 67.0685 52.588 67.0685 50.9554C67.0748 48.7979 65.2644 47.9976 63.7441 47.7671ZM165.648 43.6953L161.648 53.9709H163.78L164.449 52.127H168.846L169.515 53.9709L171.641 53.9645L167.647 43.6953H165.648ZM165.181 50.2832L166.701 46.4226L168.184 50.2832H165.181ZM80.0888 53.9645H82.1263V49.6814H85.9113V47.7607H82.1263V45.5519H87.2613V43.6185H80.0888V53.9645ZM91.1598 49.6814H95.2475V47.7607H91.1598V45.5519H96.6101V43.6185L89.1159 43.6249V53.9645H96.9949V52.031H91.1598V49.6814ZM98.3575 45.5519H101.758V53.9709H103.795V45.5519H107.195V43.6185H98.3575V45.5519ZM113.081 46.9988L110.715 43.6185H108.325L112.065 48.7915V53.9645H114.103V48.7915L117.844 43.6185H115.503L113.081 46.9988ZM147.657 47.7607H142.906V43.6185H140.869V53.9645H142.906V49.6878H147.657V53.9645L149.694 53.9581V43.6121H147.657V47.7607ZM154.318 49.6814H158.406V47.7607H154.318V45.5519H159.768V43.6185L152.274 43.6249V53.9645H160.153V52.031H154.318V49.6814ZM175.476 43.6185H173.438V53.9645H180.914V52.031H175.476V43.6185ZM181.084 45.5519H184.484V53.9709H186.522V45.5519H189.922V43.6185H181.084V45.5519ZM198.041 47.7607H193.291V43.6185H191.253V53.9645H193.291V49.6878H198.041V53.9645L200.078 53.9581V43.6121H198.041V47.7607ZM132.031 51.5188C132.763 50.6609 133.066 50.1167 133.671 48.5866L132.353 47.94C132.056 49.086 131.766 49.6942 131.11 50.5649L128.82 48.2281C129.628 47.8375 129.918 47.6839 130.202 47.4726C130.908 46.9668 131.236 46.3138 131.236 45.5007C131.236 44.1114 130.057 43.2023 128.278 43.2023C126.436 43.2023 125.256 44.137 125.256 45.6031C125.256 46.2754 125.515 46.8516 126.114 47.511L126.499 47.9272C125.653 48.3433 125.294 48.5738 124.884 49.0027C124.31 49.6109 124.038 50.264 124.038 51.0579C124.038 51.8517 124.322 52.5752 124.808 53.0682C125.395 53.6636 126.303 53.9773 127.458 53.9773C128.151 53.9773 128.763 53.862 129.337 53.638C129.861 53.4331 130.208 53.2218 130.858 52.7032L131.06 52.9273C131.249 53.1322 131.47 53.4075 131.722 53.7596H134.245C133.659 53.2026 133.362 52.9017 132.952 52.4856L132.031 51.5188ZM128.297 44.5212C129.129 44.5212 129.653 44.9501 129.653 45.648C129.653 46.0769 129.476 46.4034 129.091 46.6723C128.889 46.8132 128.732 46.89 127.899 47.2549L127.464 46.8004C127.066 46.3842 126.928 46.0961 126.928 45.6736C126.928 44.9629 127.451 44.5212 128.297 44.5212ZM127.603 52.5688C126.448 52.5688 125.71 51.9222 125.71 50.9042C125.71 50.424 125.887 50.0079 126.234 49.6814C126.518 49.4061 126.757 49.2524 127.401 48.9259L129.962 51.6533C129.205 52.2871 128.486 52.5688 127.603 52.5688Z" fill="black"/>
</svg>
