<svg width="32" height="24" viewBox="0 0 32 24" fill="none" xmlns="http://www.w3.org/2000/svg">
<path d="M11.7812 2.59375C11.8164 1.89063 12.0625 1.29297 12.5195 0.800781C13.0117 0.34375 13.6094 0.0976563 14.3125 0.0625H17.6875C18.3906 0.0976563 18.9883 0.34375 19.4805 0.800781C19.9375 1.29297 20.1836 1.89063 20.2188 2.59375V5.96875C20.1836 6.67187 19.9375 7.26953 19.4805 7.76172C18.9883 8.21875 18.3906 8.46484 17.6875 8.5H17.2656V10.6094H25.2812C26.125 10.6445 26.8281 10.9258 27.3906 11.4531C27.918 12.0156 28.1992 12.7188 28.2344 13.5625V15.25H28.6562C29.3594 15.2852 29.957 15.5312 30.4492 15.9883C30.9062 16.4805 31.1523 17.0781 31.1875 17.7812V21.1562C31.1523 21.8594 30.9062 22.457 30.4492 22.9492C29.957 23.4062 29.3594 23.6523 28.6562 23.6875H25.2812C24.5781 23.6523 23.9805 23.4062 23.4883 22.9492C23.0312 22.457 22.7852 21.8594 22.75 21.1562V17.7812C22.7852 17.0781 23.0312 16.4805 23.4883 15.9883C23.9805 15.5312 24.5781 15.2852 25.2812 15.25H25.7031V13.5625C25.668 13.3164 25.5273 13.1758 25.2812 13.1406H17.2656V15.25H17.6875C18.3906 15.2852 18.9883 15.5312 19.4805 15.9883C19.9375 16.4805 20.1836 17.0781 20.2188 17.7812V21.1562C20.1836 21.8594 19.9375 22.457 19.4805 22.9492C18.9883 23.4062 18.3906 23.6523 17.6875 23.6875H14.3125C13.6094 23.6523 13.0117 23.4062 12.5195 22.9492C12.0625 22.457 11.8164 21.8594 11.7812 21.1562V17.7812C11.8164 17.0781 12.0625 16.4805 12.5195 15.9883C13.0117 15.5312 13.6094 15.2852 14.3125 15.25H14.7344V13.1406H6.71875C6.47266 13.1758 6.33203 13.3164 6.29688 13.5625V15.25H6.71875C7.42188 15.2852 8.01953 15.5312 8.51172 15.9883C8.96875 16.4805 9.21484 17.0781 9.25 17.7812V21.1562C9.21484 21.8594 8.96875 22.457 8.51172 22.9492C8.01953 23.4062 7.42188 23.6523 6.71875 23.6875H3.34375C2.64062 23.6523 2.04297 23.4062 1.55078 22.9492C1.09375 22.457 0.847656 21.8594 0.8125 21.1562V17.7812C0.847656 17.0781 1.09375 16.4805 1.55078 15.9883C2.04297 15.5312 2.64062 15.2852 3.34375 15.25H3.76562V13.5625C3.80078 12.7188 4.08203 12.0156 4.60938 11.4531C5.17188 10.9258 5.875 10.6445 6.71875 10.6094H14.7344V8.5H14.3125C13.6094 8.46484 13.0117 8.21875 12.5195 7.76172C12.0625 7.26953 11.8164 6.67187 11.7812 5.96875V2.59375Z" fill="#1D2A3D"/>
</svg>
