<svg width="34" height="28" viewBox="0 0 34 28" fill="none" xmlns="http://www.w3.org/2000/svg">
<path d="M0.125 26.1094V9.39258C0.125 8.68945 0.318359 8.05664 0.705078 7.49414C1.0918 6.9668 1.60156 6.5625 2.23438 6.28125L16.3672 0.638672C16.7891 0.462891 17.2109 0.462891 17.6328 0.638672L31.7656 6.28125C32.3984 6.5625 32.9082 6.9668 33.2949 7.49414C33.6816 8.05664 33.875 8.68945 33.875 9.39258V26.1094C33.8047 26.8828 33.3828 27.3047 32.6094 27.375H30.0781C29.3047 27.3047 28.8828 26.8828 28.8125 26.1094V12.1875C28.8125 11.6953 28.6543 11.291 28.3379 10.9746C28.0215 10.6582 27.6172 10.5 27.125 10.5H6.875C6.38281 10.5 5.97852 10.6582 5.66211 10.9746C5.3457 11.291 5.1875 11.6953 5.1875 12.1875V26.1094C5.11719 26.8828 4.69531 27.3047 3.92188 27.375H1.39062C0.617187 27.3047 0.195312 26.8828 0.125 26.1094ZM19.9531 20.625H25.8594C26.6328 20.6953 27.0547 21.1172 27.125 21.8906V26.1094C27.0547 26.8828 26.6328 27.3047 25.8594 27.375H19.9531C19.1797 27.3047 18.7578 26.8828 18.6875 26.1094V21.8906C18.7578 21.1172 19.1797 20.6953 19.9531 20.625ZM6.875 13.4531C6.94531 12.6797 7.36719 12.2578 8.14062 12.1875H15.7344C16.5078 12.2578 16.9297 12.6797 17 13.4531V17.6719C16.9297 18.4453 16.5078 18.8672 15.7344 18.9375H8.14062C7.36719 18.8672 6.94531 18.4453 6.875 17.6719V13.4531ZM8.14062 20.625H15.7344C16.5078 20.6953 16.9297 21.1172 17 21.8906V26.1094C16.9297 26.8828 16.5078 27.3047 15.7344 27.375H8.14062C7.36719 27.3047 6.94531 26.8828 6.875 26.1094V21.8906C6.94531 21.1172 7.36719 20.6953 8.14062 20.625Z" fill="#1D2A3D"/>
</svg>
