<svg width="28" height="28" viewBox="0 0 28 28" fill="none" xmlns="http://www.w3.org/2000/svg">
<path d="M14 5.4375C13.2969 5.40234 12.6992 5.15625 12.207 4.69922C11.75 4.20703 11.5039 3.60937 11.4688 2.90625C11.5039 2.20313 11.75 1.60547 12.207 1.11328C12.6992 0.65625 13.2969 0.410156 14 0.375C14.7031 0.410156 15.3008 0.65625 15.793 1.11328C16.25 1.60547 16.4961 2.20313 16.5312 2.90625C16.4961 3.60937 16.25 4.20703 15.793 4.69922C15.3008 5.15625 14.7031 5.40234 14 5.4375ZM7.25 27.375C6.75781 27.375 6.35352 27.2168 6.03711 26.9004C5.7207 26.584 5.5625 26.1797 5.5625 25.6875C5.5625 25.1953 5.7207 24.791 6.03711 24.4746C6.35352 24.1582 6.75781 24 7.25 24H20.75C21.2422 24 21.6465 24.1582 21.9629 24.4746C22.2793 24.791 22.4375 25.1953 22.4375 25.6875C22.4375 26.1797 22.2793 26.584 21.9629 26.9004C21.6465 27.2168 21.2422 27.375 20.75 27.375H16.1094H11.8906H7.25ZM20.75 15.5625C20.2227 15.5625 19.7832 15.3516 19.4316 14.9297L17.7969 12.873V15.5625H10.2031V12.873L8.56836 14.9297C8.2168 15.3516 7.77734 15.5625 7.25 15.5625C6.86328 15.5625 6.51172 15.4395 6.19531 15.1934C5.84375 14.877 5.63281 14.5078 5.5625 14.0859C5.52734 13.6289 5.65039 13.207 5.93164 12.8203L8.99023 9.02344C10.0098 7.79297 11.3281 7.16016 12.9453 7.125H15.0547C16.6719 7.16016 17.9902 7.79297 19.0098 9.02344L22.0684 12.8203C22.3496 13.207 22.4727 13.6289 22.4375 14.0859C22.3672 14.5078 22.1562 14.877 21.8047 15.1934C21.4883 15.4395 21.1367 15.5625 20.75 15.5625ZM3.50586 17.6191L3.875 18.9375L5.19336 19.3066C5.43945 19.377 5.5625 19.5352 5.5625 19.7812C5.5625 20.0273 5.43945 20.1855 5.19336 20.2559L3.875 20.625L3.50586 21.9434C3.43555 22.1895 3.27734 22.3125 3.03125 22.3125C2.78516 22.3125 2.62695 22.1895 2.55664 21.9434L2.1875 20.625L0.869141 20.2559C0.623047 20.1855 0.5 20.0273 0.5 19.7812C0.5 19.5352 0.623047 19.377 0.869141 19.3066L2.1875 18.9375L2.55664 17.6191C2.62695 17.373 2.78516 17.25 3.03125 17.25C3.27734 17.25 3.43555 17.373 3.50586 17.6191ZM25.8125 8.8125L27.1309 9.18164C27.377 9.25195 27.5 9.41016 27.5 9.65625C27.5 9.90234 27.377 10.0605 27.1309 10.1309L25.8125 10.5L25.4434 11.8184C25.373 12.0645 25.2148 12.1875 24.9688 12.1875C24.7227 12.1875 24.5645 12.0645 24.4941 11.8184L24.125 10.5L22.8066 10.1309C22.5605 10.0605 22.4375 9.90234 22.4375 9.65625C22.4375 9.41016 22.5605 9.25195 22.8066 9.18164L24.125 8.8125L24.4941 7.49414C24.5645 7.24805 24.7227 7.125 24.9688 7.125C25.2148 7.125 25.373 7.24805 25.4434 7.49414L25.8125 8.8125ZM9.78125 17.25H18.2188C18.7461 17.2852 19.0273 17.5664 19.0625 18.0938C19.0273 18.6211 18.7461 18.9023 18.2188 18.9375H9.78125C9.25391 18.9023 8.97266 18.6211 8.9375 18.0938C8.97266 17.5664 9.25391 17.2852 9.78125 17.25ZM9.78125 20.625H18.2188C18.7461 20.6602 19.0273 20.9414 19.0625 21.4688C19.0273 21.9961 18.7461 22.2773 18.2188 22.3125H9.78125C9.25391 22.2773 8.97266 21.9961 8.9375 21.4688C8.97266 20.9414 9.25391 20.6602 9.78125 20.625Z" fill="#1D2A3D"/>
</svg>
