<svg width="27" height="24" viewBox="0 0 27 24" fill="none" xmlns="http://www.w3.org/2000/svg">
<path d="M1.6875 22V6.8125H25.3125V22C25.3125 22.9492 24.5215 23.6875 23.625 23.6875H3.375C2.42578 23.6875 1.6875 22.9492 1.6875 22ZM10.125 10.8203V11.2422C10.125 11.6113 10.3887 11.875 10.7578 11.875H16.2422C16.5586 11.875 16.875 11.6113 16.875 11.2422V10.8203C16.875 10.5039 16.5586 10.1875 16.2422 10.1875H10.7578C10.3887 10.1875 10.125 10.5039 10.125 10.8203ZM25.3125 0.0625C26.209 0.0625 27 0.853516 27 1.75V4.28125C27 4.75586 26.5781 5.125 26.1562 5.125H0.84375C0.369141 5.125 0 4.75586 0 4.28125V1.75C0 0.853516 0.738281 0.0625 1.6875 0.0625H25.3125Z" fill="#1D2A3D"/>
</svg>
