<svg width="34" height="28" viewBox="0 0 34 28" fill="none" xmlns="http://www.w3.org/2000/svg">
<path d="M7.71875 8.8125C6.52344 8.77734 5.52148 8.37305 4.71289 7.59961C3.93945 6.79102 3.53516 5.78906 3.5 4.59375C3.53516 3.39844 3.93945 2.39648 4.71289 1.58789C5.52148 0.814453 6.52344 0.410156 7.71875 0.375C8.91406 0.410156 9.91602 0.814453 10.7246 1.58789C11.498 2.39648 11.9023 3.39844 11.9375 4.59375C11.9023 5.78906 11.498 6.79102 10.7246 7.59961C9.91602 8.37305 8.91406 8.77734 7.71875 8.8125ZM27.125 8.8125C25.9297 8.77734 24.9277 8.37305 24.1191 7.59961C23.3457 6.79102 22.9414 5.78906 22.9062 4.59375C22.9414 3.39844 23.3457 2.39648 24.1191 1.58789C24.9277 0.814453 25.9297 0.410156 27.125 0.375C28.3203 0.410156 29.3223 0.814453 30.1309 1.58789C30.9043 2.39648 31.3086 3.39844 31.3438 4.59375C31.3086 5.78906 30.9043 6.79102 30.1309 7.59961C29.3223 8.37305 28.3203 8.77734 27.125 8.8125ZM0.125 16.1426C0.160156 14.5254 0.705078 13.1895 1.75977 12.1348C2.81445 11.0801 4.15039 10.5352 5.76758 10.5H7.98242C8.82617 10.5 9.61719 10.6758 10.3555 11.0273C10.2852 11.4141 10.25 11.8008 10.25 12.1875C10.3203 14.2617 11.0762 15.9492 12.5176 17.25H1.23242C0.564453 17.1797 0.195312 16.8105 0.125 16.1426ZM21.4824 17.25C22.9238 15.9492 23.6797 14.2617 23.75 12.1875C23.75 11.8008 23.7148 11.4141 23.6445 11.0273C24.3828 10.6758 25.1738 10.5 26.0176 10.5H28.2324C29.8496 10.5352 31.1855 11.0801 32.2402 12.1348C33.2949 13.1895 33.8398 14.5254 33.875 16.1426C33.8047 16.8105 33.4355 17.1797 32.7676 17.25H21.4824ZM22.0625 12.1875C22.0273 13.6289 21.5352 14.8242 20.5859 15.7734C19.6367 16.7227 18.4414 17.2148 17 17.25C15.5586 17.2148 14.3633 16.7227 13.4141 15.7734C12.4648 14.8242 11.9727 13.6289 11.9375 12.1875C11.9727 10.7461 12.4648 9.55078 13.4141 8.60156C14.3633 7.65234 15.5586 7.16016 17 7.125C18.4414 7.16016 19.6367 7.65234 20.5859 8.60156C21.5352 9.55078 22.0273 10.7461 22.0625 12.1875ZM6.875 25.9512C6.91016 23.9824 7.5957 22.3301 8.93164 20.9941C10.2676 19.6582 11.9199 18.9727 13.8887 18.9375H20.1113C22.0801 18.9727 23.7324 19.6582 25.0684 20.9941C26.4043 22.3301 27.0898 23.9824 27.125 25.9512C27.0547 26.8301 26.5801 27.3047 25.7012 27.375H8.29883C7.41992 27.3047 6.94531 26.8301 6.875 25.9512Z" fill="#1D2A3D"/>
</svg>
