<svg width="34" height="28" viewBox="0 0 34 28" fill="none" xmlns="http://www.w3.org/2000/svg">
<path d="M6.875 2.90625C6.83984 3.60937 6.59375 4.20703 6.13672 4.69922C5.64453 5.15625 5.04688 5.40234 4.34375 5.4375C3.64062 5.40234 3.04297 5.15625 2.55078 4.69922C2.09375 4.20703 1.84766 3.60937 1.8125 2.90625C1.84766 2.20313 2.09375 1.60547 2.55078 1.11328C3.04297 0.65625 3.64062 0.410156 4.34375 0.375C5.04688 0.410156 5.64453 0.65625 6.13672 1.11328C6.59375 1.60547 6.83984 2.20313 6.875 2.90625ZM30.5 7.125V5.4375H25.4375V7.125H30.5ZM14.4688 2.0625H31.3438C32.0469 2.09766 32.6445 2.34375 33.1367 2.80078C33.5938 3.29297 33.8398 3.89063 33.875 4.59375V7.96875C33.8398 8.67188 33.5938 9.26953 33.1367 9.76172C32.6445 10.2188 32.0469 10.4648 31.3438 10.5H14.4688C13.7656 10.4648 13.168 10.2188 12.6758 9.76172C12.2188 9.26953 11.9727 8.67188 11.9375 7.96875V4.59375C11.9727 3.89063 12.2188 3.29297 12.6758 2.80078C13.168 2.34375 13.7656 2.09766 14.4688 2.0625ZM30.5 22.3125V20.625H18.6875V22.3125H30.5ZM14.4688 17.25H31.3438C32.0469 17.2852 32.6445 17.5312 33.1367 17.9883C33.5938 18.4805 33.8398 19.0781 33.875 19.7812V23.1562C33.8398 23.8594 33.5938 24.457 33.1367 24.9492C32.6445 25.4062 32.0469 25.6523 31.3438 25.6875H14.4688C13.7656 25.6523 13.168 25.4062 12.6758 24.9492C12.2188 24.457 11.9727 23.8594 11.9375 23.1562V19.7812C11.9727 19.0781 12.2188 18.4805 12.6758 17.9883C13.168 17.5312 13.7656 17.2852 14.4688 17.25ZM3.5 7.125H5.1875C6.13672 7.16016 6.92773 7.49414 7.56055 8.12695C8.19336 8.75977 8.52734 9.55078 8.5625 10.5C8.5625 10.9922 8.4043 11.3965 8.08789 11.7129C7.77148 12.0293 7.36719 12.1875 6.875 12.1875H1.8125C1.32031 12.1875 0.916016 12.0293 0.599609 11.7129C0.283203 11.3965 0.125 10.9922 0.125 10.5C0.160156 9.55078 0.494141 8.75977 1.12695 8.12695C1.75977 7.49414 2.55078 7.16016 3.5 7.125ZM6.875 18.0938C6.83984 18.7969 6.59375 19.3945 6.13672 19.8867C5.64453 20.3438 5.04688 20.5898 4.34375 20.625C3.64062 20.5898 3.04297 20.3438 2.55078 19.8867C2.09375 19.3945 1.84766 18.7969 1.8125 18.0938C1.84766 17.3906 2.09375 16.793 2.55078 16.3008C3.04297 15.8438 3.64062 15.5977 4.34375 15.5625C5.04688 15.5977 5.64453 15.8438 6.13672 16.3008C6.59375 16.793 6.83984 17.3906 6.875 18.0938ZM3.5 22.3125H5.1875C6.13672 22.3477 6.92773 22.6816 7.56055 23.3145C8.19336 23.9473 8.52734 24.7383 8.5625 25.6875C8.5625 26.1797 8.4043 26.584 8.08789 26.9004C7.77148 27.2168 7.36719 27.375 6.875 27.375H1.8125C1.32031 27.375 0.916016 27.2168 0.599609 26.9004C0.283203 26.584 0.125 26.1797 0.125 25.6875C0.160156 24.7383 0.494141 23.9473 1.12695 23.3145C1.75977 22.6816 2.55078 22.3477 3.5 22.3125Z" fill="#1D2A3D"/>
</svg>
